<?xml version="1.0" encoding="iso-8859-1"?>
<!-- Generator: Adobe Illustrator 19.0.0, SVG Export Plug-In . SVG Version: 6.00 Build 0)  -->
<svg version="1.1" id="Layer_1" xmlns="http://www.w3.org/2000/svg" xmlns:xlink="http://www.w3.org/1999/xlink" x="0px" y="0px"
	 viewBox="0 0 206.517 206.517" style="enable-background:new 0 0 206.517 206.517;" xml:space="preserve">
<g>
	<g>
		<g>
			<path d="M103.259,0C49.544,0,5.845,43.619,5.845,97.235c0,23.391,8.388,45.876,23.657,63.524l-5.523,41.344
				c-0.196,1.465,0.453,2.915,1.674,3.741c0.658,0.449,1.423,0.673,2.188,0.673c0.657,0,1.313-0.164,1.908-0.498l34.787-19.528
				c12.232,5.297,25.248,7.983,38.722,7.983c53.715,0,97.414-43.619,97.414-97.239C200.673,43.619,156.974,0,103.259,0z
				 M103.259,186.681c-13.02,0-25.569-2.721-37.302-8.09c-1.134-0.517-2.443-0.468-3.529,0.145l-29.69,16.667l4.726-35.369
				c0.15-1.134-0.202-2.272-0.963-3.12c-14.743-16.416-22.862-37.607-22.862-59.677c0-49.319,40.204-89.442,89.621-89.442
				s89.621,40.122,89.621,89.442S152.675,186.681,103.259,186.681z"/>
			<path d="M75.983,89.621c-6.446,0-11.69,5.244-11.69,11.69c0,6.446,5.244,11.69,11.69,11.69c6.446,0,11.69-5.244,11.69-11.69
				C87.673,94.864,82.429,89.621,75.983,89.621z M75.983,105.207c-2.148,0-3.897-1.746-3.897-3.897c0-2.15,1.748-3.897,3.897-3.897
				c2.148,0,3.897,1.746,3.897,3.897C79.88,103.46,78.131,105.207,75.983,105.207z"/>
			<path d="M103.259,89.621c-6.446,0-11.69,5.244-11.69,11.69c0,6.446,5.244,11.69,11.69,11.69c6.446,0,11.69-5.244,11.69-11.69
				C114.948,94.864,109.705,89.621,103.259,89.621z M103.259,105.207c-2.148,0-3.897-1.746-3.897-3.897
				c0-2.15,1.748-3.897,3.897-3.897c2.149,0,3.897,1.746,3.897,3.897C107.155,103.46,105.407,105.207,103.259,105.207z"/>
			<path d="M130.535,89.621c-6.446,0-11.69,5.244-11.69,11.69c0,6.446,5.244,11.69,11.69,11.69c6.446,0,11.69-5.244,11.69-11.69
				C142.224,94.864,136.981,89.621,130.535,89.621z M130.535,105.207c-2.148,0-3.897-1.746-3.897-3.897
				c0-2.15,1.748-3.897,3.897-3.897c2.148,0,3.897,1.746,3.897,3.897C134.431,103.46,132.683,105.207,130.535,105.207z"/>
		</g>
	</g>
</g>
<g>
</g>
<g>
</g>
<g>
</g>
<g>
</g>
<g>
</g>
<g>
</g>
<g>
</g>
<g>
</g>
<g>
</g>
<g>
</g>
<g>
</g>
<g>
</g>
<g>
</g>
<g>
</g>
<g>
</g>
</svg>
