<?xml version="1.0" encoding="iso-8859-1"?>
<!-- Generator: Adobe Illustrator 19.0.0, SVG Export Plug-In . SVG Version: 6.00 Build 0)  -->
<svg version="1.1" id="Layer_1" xmlns="http://www.w3.org/2000/svg" xmlns:xlink="http://www.w3.org/1999/xlink" x="0px" y="0px"
	 viewBox="0 0 218.686 218.686" style="enable-background:new 0 0 218.686 218.686;" xml:space="preserve">
<g>
	<g>
		<g>
			<path d="M124.929,109.103c0-7.243-4.986-13.291-11.69-15.033V34.94h-7.793v59.131c-6.704,1.742-11.69,7.79-11.69,15.033
				c0,8.596,6.99,15.586,15.586,15.586c2.882,0,5.55-0.839,7.868-2.208l42.787,42.787l5.51-5.51l-42.787-42.787
				C124.09,114.654,124.929,111.986,124.929,109.103z M109.343,116.897c-4.296,0-7.793-3.497-7.793-7.793s3.497-7.793,7.793-7.793
				c4.296,0,7.793,3.497,7.793,7.793S113.638,116.897,109.343,116.897z"/>
			<path d="M218.348,105.207C216.331,48.143,170.304,2.115,113.239,0.099V0h-7.793v0.099C48.382,2.115,2.354,48.143,0.338,105.207
				H0.239V113h0.099c2.016,57.064,48.044,103.091,105.108,105.108v0.578h7.793v-0.578c57.064-2.016,103.091-48.044,105.108-105.108
				h0.099v-7.793H218.348z M210.555,113c-0.952,24.998-10.992,47.698-26.918,64.887l-10.317-10.316l-5.51,5.51l10.317,10.316
				c-17.189,15.926-39.889,25.966-64.887,26.918v-15.488h-7.793v15.488c-25.978-0.989-49.473-11.796-66.882-28.82l10.363-10.363
				l-5.51-5.51l-10.21,10.21C18.354,158.906,9.044,137.017,8.13,113h19.384v-7.793H8.13C9.12,79.229,19.927,55.734,36.95,38.325
				l8.415,8.415l5.51-5.51l-8.261-8.261C59.539,18.115,81.429,8.806,105.447,7.892v15.967h7.793V7.892
				c24.998,0.952,47.698,10.992,64.887,26.918l-8.368,8.368l5.51,5.51l8.368-8.368c15.926,17.19,25.966,39.889,26.918,64.887
				h-19.384V113H210.555z"/>
		</g>
	</g>
</g>
<g>
</g>
<g>
</g>
<g>
</g>
<g>
</g>
<g>
</g>
<g>
</g>
<g>
</g>
<g>
</g>
<g>
</g>
<g>
</g>
<g>
</g>
<g>
</g>
<g>
</g>
<g>
</g>
<g>
</g>
</svg>
