<svg id="Layer_1" data-name="Layer 1" xmlns="http://www.w3.org/2000/svg" xmlns:xlink="http://www.w3.org/1999/xlink" viewBox="0 0 163.4 163.23">
    <title>icon-insta</title>
    <path d="M71.14,41C58.4,42.35,50.53,47,45.63,56.72c-3.21,6.35-4.05,14-4.13,22.89-.16,17.06-.15,37.65,0,55.16.08,9.33,1.43,18.06,4.88,24a24.29,24.29,0,0,0,1.87,2.63c.53.7.63,1.3,1.13,1.87a28.07,28.07,0,0,0,9.38,6.76c5,2.15,12,3.18,20.26,3.37,16.56.4,30.84.94,47.29.38,10.15-.35,20.42-.22,27.76-2.63.79-.26,1.47-.79,2.26-1.12s2-.41,2.62-.75c.37-.2.69-.85,1.13-1.13s1.08-.46,1.5-.75a27.13,27.13,0,0,0,6-5.63,28.12,28.12,0,0,0,2.63-4.5c4.28-8.47,4-18.1,4.5-30.77.34-7.92,0-17.2,0-25.52,0-8.6,0-16.26-.37-25.14-.58-13.23-4.07-22.58-11.64-28.52a29.27,29.27,0,0,0-7.87-4.13c-7.72-2.7-18.88-2.68-28.9-3-6.71-.21-13.3,0-19.52,0-6.47,0-12.93-.48-19.51,0-.21,0-.44.38-.37.37-5.75.28-11-.09-15.39.38M81.27,26c-.06,0,.16-.36.38-.38,10.47-.77,21.22,0,31.52,0,13.47,0,26.06-.44,37.53,1.51a53.85,53.85,0,0,1,15,4.87A56.11,56.11,0,0,1,174,37.58a24.75,24.75,0,0,1,3,2.63c.3.32.4,1.09.76,1.5a35.69,35.69,0,0,1,2.62,3c.53.75,1,1.48,1.5,2.25A45.41,45.41,0,0,1,186,55.59c.4,1.18.41,2.46.75,3.76.27,1,.92,1.95,1.13,3,1,4.94.89,10.54,1.12,16.14.68,16,.7,34.15.38,50.66-.24,11.78-.73,22.15-3.76,30.39-.37,1-1,1.93-1.49,3-.82,1.87-1.19,3.37-2.63,4.88-.38.39-1.24,2.16-1.88,3a28.34,28.34,0,0,1-5.25,5.63c-.76.58-1.29,1.14-2.25,1.87a43.8,43.8,0,0,1-6.38,4.14,54.07,54.07,0,0,1-19.89,5.62c-10.46,1-22.11.75-33,.75s-22.33.15-33.78-.37c-9.08-.42-15.65-.67-22.51-3a42.19,42.19,0,0,1-9-4.51,13.93,13.93,0,0,1-2.63-1.5c-.16-.15-.2-.62-.37-.75-.34-.26-.83-.1-1.13-.38s-1.14-1.23-1.87-1.87c-5.52-4.84-9.48-11.25-12-19.89-.42-1.44-1.23-3.13-1.5-4.5-1.18-6.07-1.28-13.78-1.5-21.77-.41-14.58-.48-31,0-46.15.27-8.76.58-16.63,1.5-21.39.2-1.05.83-1.89,1.12-3s.39-2.28.76-3.38.74-2,1.12-3A40.82,40.82,0,0,1,42.25,37.2a51.21,51.21,0,0,1,5.25-3.75,47.48,47.48,0,0,1,16.14-6.37c5.23-1,11-.82,17.63-1.13" transform="translate(-26.16 -25.23)"/>
    <path d="M149.57,54.09a9.55,9.55,0,0,1,6.76,1.13,10.26,10.26,0,0,1,4.88,9.38c-.28,3.32-3.28,7.27-6.39,8.26-5,1.59-11.26-1-12.75-6-.31-1-.81-4.84,0-7.13.71-2,3.51-4.92,7.5-5.63" transform="translate(-26.16 -25.23)"/>
    <path d="M98.54,81.49A31,31,0,0,0,95.16,83c-.32.3-.31.11-.75.37a28.32,28.32,0,0,0-12.76,16.89A29.45,29.45,0,0,0,82,114.51c.24.78.12,1.58.38,2.25s.82.85,1.13,1.5c.14.31-.13.81,0,1.13,0,.15.61.5.74.75.33.57.72.87,1.13,1.5s.33,1.31.75,1.87a32.57,32.57,0,0,0,2.63,2.63c.84.85,1.93,2.1,2.62,2.63s1.22.31,1.89.75.92.8,1.49,1.12A26.33,26.33,0,0,0,104.91,134a26.74,26.74,0,0,0,13.52-2.25,28.13,28.13,0,0,0,3.37-1.5,27.41,27.41,0,0,0,3-1.88,25.13,25.13,0,0,0,3.38-3.75c.44-.5.82-.72,1.13-1.13a27.9,27.9,0,0,0,3.75-6c.21-.51.15-1.27.37-1.87s.58-1.21.76-1.88a34.14,34.14,0,0,0,0-13.88,27.58,27.58,0,0,0-7.13-12c-5.49-5.49-13-8.76-22.89-7.51a24.59,24.59,0,0,0-5.63,1.13m7.88-16.14a39.08,39.08,0,0,1,4.88,0,44.18,44.18,0,0,1,19.88,6.76c11.27,7.52,22.21,24.36,17.64,44.27a42.52,42.52,0,0,1-11.26,20.27A43.51,43.51,0,0,1,107.92,149a42.66,42.66,0,0,1-21.39-6,41.39,41.39,0,0,1-18.39-22.89,42.06,42.06,0,0,1,.37-27.39c.27-.73.86-1.57,1.13-2.26a30,30,0,0,1,2.63-5.63A44.37,44.37,0,0,1,89.15,69.48a42.73,42.73,0,0,1,7.89-3,52.37,52.37,0,0,1,9.38-1.13" transform="translate(-26.16 -25.23)"/>
</svg>