<?xml version="1.0" encoding="utf-8"?>
<!-- Generator: Adobe Illustrator 16.0.0, SVG Export Plug-In . SVG Version: 6.00 Build 0)  -->
<!DOCTYPE svg PUBLIC "-//W3C//DTD SVG 1.1//EN" "http://www.w3.org/Graphics/SVG/1.1/DTD/svg11.dtd">
<svg version="1.1" id="Layer_1" xmlns="http://www.w3.org/2000/svg"
	 width="35px" height="35px" viewBox="0 0 35 35">
<path d="M33.654,4.038H1.346C0.604,4.038,0,4.642,0,5.385v2.692
	c0,0.742,0.604,1.346,1.346,1.346h32.308C34.396,9.423,35,8.819,35,8.077V5.385C35,4.642,34.396,4.038,33.654,4.038 M33.654,14.808
	H1.346C0.604,14.808,0,15.411,0,16.153v2.693c0,0.742,0.604,1.346,1.346,1.346h32.308c0.742,0,1.346-0.604,1.346-1.346v-2.693
	C35,15.411,34.396,14.808,33.654,14.808 M33.654,25.577H1.346C0.604,25.577,0,26.181,0,26.923v2.693
	c0,0.742,0.604,1.346,1.346,1.346h32.308c0.742,0,1.346-0.604,1.346-1.346v-2.693C35,26.181,34.396,25.577,33.654,25.577"/>
</svg>
