<svg id="Layer_1" data-name="Layer 1" xmlns="http://www.w3.org/2000/svg" viewBox="0 0 190.99 159.82"><title>icon-twitter</title><path d="M202.43,46a76.65,76.65,0,0,1-22.5,6.35A40.33,40.33,0,0,0,197.16,30a76.94,76.94,0,0,1-24.89,9.78A38.61,38.61,0,0,0,143.67,27C122,27,104.49,45.09,104.49,67.37a41.48,41.48,0,0,0,1,9.19C72.94,74.88,44.07,58.82,24.74,34.4a41.18,41.18,0,0,0-5.3,20.3A40.64,40.64,0,0,0,36.86,88.27a38.19,38.19,0,0,1-17.74-5v.5c0,19.56,13.49,35.86,31.43,39.56a38.2,38.2,0,0,1-17.7.7c5,16,19.45,27.7,36.6,28a77.18,77.18,0,0,1-48.66,17.27,75.85,75.85,0,0,1-9.35-.56,108.67,108.67,0,0,0,60.07,18.12c72.07,0,111.48-61.48,111.48-114.8,0-1.76,0-3.5-.11-5.22A80.69,80.69,0,0,0,202.43,46" transform="translate(-11.44 -27.02)"/></svg>