<?xml version="1.0" encoding="utf-8"?>
<!-- Generator: Adobe Illustrator 19.2.0, SVG Export Plug-In . SVG Version: 6.00 Build 0)  -->
<svg version="1.1"
	 id="svg5669" inkscape:output_extension="org.inkscape.output.svg.inkscape" inkscape:version="0.46" sodipodi:docname="Lindos3.svg" sodipodi:version="0.32" xmlns:cc="http://creativecommons.org/ns#" xmlns:dc="http://purl.org/dc/elements/1.1/" xmlns:inkscape="http://www.inkscape.org/namespaces/inkscape" xmlns:rdf="http://www.w3.org/1999/02/22-rdf-syntax-ns#" xmlns:sodipodi="http://sodipodi.sourceforge.net/DTD/sodipodi-0.dtd" xmlns:svg="http://www.w3.org/2000/svg"
	 xmlns="http://www.w3.org/2000/svg" xmlns:xlink="http://www.w3.org/1999/xlink" x="0px" y="0px" viewBox="0 0 2793.5 583"
	 style="enable-background:new 0 0 2793.5 583;" xml:space="preserve">
<style type="text/css">
	.st0{fill:#DAD8D2;}
	.st1{fill:#00B7C6;}
	.st2{font-family:'ArialMT';}
	.st3{font-size:28px;}
	.st4{font-size:24px;}
	.st5{fill:none;stroke:#00B7C6;stroke-width:6;stroke-miterlimit:10;}
</style>
<path class="st0" d="M695.5,17.3h-1l0,0H694v-1.5H98.7v3h43.2V54H98.7v1h43.2v35.2H98.7v3h43.2v35.2H98.7v1h43.2v35.2H98.7v3h43.2
	v35.2H98.7v1h43.2V239H98.7v3h43.2v35.2H98.7v1h43.2v35.2H98.7v3h43.2v35.2H98.7v1h43.2v35.2H98.7v3h43.2V426H98.7v1h43.2v35.2H98.7
	v3h43.2v35.2H98.7v1h43.2v36.7h1l0,0h1l0,0h1v-36.7H168v36.7h1l0,0h1l0,0h1v-36.7h15.6v36.7h1l0,0h1l0,0h1v-36.7h11.9v36.7h1l0,0h1
	l0,0h1v-36.7h8.9v36.7h1l0,0h1l0,0h1v-36.7h6.7v36.7h1l0,0h1l0,0h1v-36.7h5.2v36.7h1l0,0h1l0,0h1v-36.7h5.2v36.7h1l0,0h1l0,0h1
	v-36.7h3.7v36.7h1l0,0h1l0,0h1v-36.7h41.7v36.7h3v-36.7H317v36.7h3v-36.7h15.6v36.7h3v-36.7h11.9v36.7h3v-36.7h8.9v36.7h3v-36.7h6.7
	v36.7h3v-36.7h5.2v36.7h3v-36.7h5.2v36.7h3v-36.7h3.7v36.7h3v-36.7h41.7v36.7h3v-36.7H466v36.7h3v-36.7h16.1v36.7h3v-36.7h11.5v36.7
	h3v-36.7h8.9v36.7h3v-36.7h6.7v36.7h3v-36.7h5.2v36.7h3v-36.7h5.2v36.7h3v-36.7h3.7v36.7h3v-36.7H589v36.7h3v-36.7h23.1v36.7h3
	v-36.7H633v36.7h3v-36.7h11.9v36.7h3v-36.7h8.9v36.7h3v-36.7h6.7v36.7h3v-36.7h5.2v36.7h3v-36.7h5.2v36.7h3v-36.7h3.7v36.7h1l0,0h1
	l0,0h1V17.3H695.5z M633,239h-15.6v-35.2H633V239z M636,203.8h11.9V239H636V203.8z M614.4,239h-23.1v-35.2h23.1V239z M588.4,239
	h-41.7v-35.2h41.7V239z M543.7,239H540v-35.2h3.7V239z M537,239h-5.2v-35.2h5.2V239z M528.8,239h-5.2v-35.2h5.2V239z M520.6,239
	h-6.7v-35.2h6.7V239z M511,239h-9v-35.2h8.9L511,239L511,239z M499.1,239h-11.5v-35.2h11.5V239z M484.6,239h-16.1v-35.2h16.1V239z
	 M465.6,239h-23.1v-35.2h23.1V239z M439.5,239h-41.7v-35.2h41.7V239z M394.9,239h-3.7v-35.2h3.7V239z M388.2,239H383v-35.2h5.2V239z
	 M380,239h-5.2v-35.2h5.2V239z M371.8,239h-6.7v-35.2h6.7V239z M362.2,239h-8.9v-35.2h8.9V239z M350.2,239h-11.9v-35.2h11.9V239z
	 M335.4,239h-15.6v-35.2h15.6V239z M316.8,239h-23.1v-35.2h23.1V239z M290.7,239H249v-35.2h41.7V239z M246.1,239h-3.7v-35.2h3.7V239
	z M239.4,239h-5.2v-35.2h5.2V239z M231.2,239H226v-35.2h5.2V239z M223,239h-6.7v-35.2h6.7V239z M213.3,239h-8.9v-35.2h8.9V239z
	 M201.4,239h-11.9v-35.2h11.9V239z M189.5,242h11.9v35.2h-11.9V242z M204.4,242h8.9v35.2h-8.9V242z M216.3,242h6.7v35.2h-6.7V242z
	 M226,242h5.2v35.2H226V242z M234.2,242h5.2v35.2h-5.2V242z M242.4,242h3.7v35.2h-3.7L242.4,242L242.4,242z M249,242h41.7v35.2H249
	V242z M293.7,242h23.1v35.2h-23.1V242z M319.7,242h15.6v35.2h-15.6V242z M338.3,242h11.9v35.2h-11.9V242z M353.2,242h8.9v35.2h-8.9
	V242z M365.1,242h6.7v35.2h-6.7V242z M374.8,242h5.2v35.2h-5.2V242z M383,242h5.2v35.2H383V242z M391.2,242h3.7v35.2h-3.7V242z
	 M397.9,242h41.7v35.2h-41.7V242z M442.5,242h23.1v35.2h-23.1V242z M468.6,242h16.1v35.2h-16.1V242z M487.6,242h11.5v35.2h-11.5V242
	z M502,242h8.9v35.2H502V242z M513.9,242h6.7v35.2h-6.7V242z M523.6,242h5.2v35.2h-5.2V242z M531.8,242h5.2v35.2h-5.2V242z M540,242
	h3.7v35.2H540V242z M546.7,242h41.7v35.2h-41.7V242z M591.3,242h23.1v35.2h-23.1V242z M617.4,242H633v35.2h-15.6V242z M636,242h11.9
	v35.2H636V242z M650.9,242h8.9v35.2h-8.9V242z M650.9,239v-35.2h8.9V239H650.9z M650.9,202.8v-35.2h8.9v35.2H650.9z M647.9,202.8
	H636v-35.2h11.9V202.8z M633,202.8h-15.6v-35.2H633V202.8z M614.4,202.8h-23.1v-35.2h23.1V202.8z M588.4,202.8h-41.7v-35.2h41.7
	V202.8z M543.7,202.8H540v-35.2h3.7V202.8z M537,202.8h-5.2v-35.2h5.2V202.8z M528.8,202.8h-5.2v-35.2h5.2V202.8z M520.6,202.8h-6.7
	v-35.2h6.7V202.8z M511,202.8h-9v-35.2h8.9L511,202.8L511,202.8z M499.1,202.8h-11.5v-35.2h11.5V202.8z M484.6,202.8h-16.1v-35.2
	h16.1V202.8z M465.6,202.8h-23.1v-35.2h23.1V202.8z M439.5,202.8h-41.7v-35.2h41.7V202.8z M394.9,202.8h-3.7v-35.2h3.7V202.8z
	 M388.2,202.8H383v-35.2h5.2V202.8z M380,202.8h-5.2v-35.2h5.2V202.8z M371.8,202.8h-6.7v-35.2h6.7V202.8z M362.2,202.8h-8.9v-35.2
	h8.9V202.8z M350.2,202.8h-11.9v-35.2h11.9V202.8z M335.4,202.8h-15.6v-35.2h15.6V202.8z M316.8,202.8h-23.1v-35.2h23.1V202.8z
	 M290.7,202.8H249v-35.2h41.7V202.8z M246.1,202.8h-3.7v-35.2h3.7V202.8z M239.4,202.8h-5.2v-35.2h5.2V202.8z M231.2,202.8H226
	v-35.2h5.2V202.8z M223,202.8h-6.7v-35.2h6.7V202.8z M213.3,202.8h-8.9v-35.2h8.9V202.8z M201.4,202.8h-11.9v-35.2h11.9V202.8z
	 M186.5,202.8h-15.6v-35.2h15.6V202.8z M186.5,203.8V239h-15.6v-35.2H186.5z M186.5,242v35.2h-15.6V242H186.5z M186.5,278.2v35.2
	h-15.6v-35.2H186.5z M189.5,278.2h11.9v35.2h-11.9V278.2z M204.4,278.2h8.9v35.2h-8.9V278.2z M216.3,278.2h6.7v35.2h-6.7V278.2z
	 M226,278.2h5.2v35.2H226V278.2z M234.2,278.2h5.2v35.2h-5.2V278.2z M242.4,278.2h3.7v35.2h-3.7L242.4,278.2L242.4,278.2z
	 M249,278.2h41.7v35.2H249V278.2z M293.7,278.2h23.1v35.2h-23.1V278.2z M319.7,278.2h15.6v35.2h-15.6V278.2z M338.3,278.2h11.9v35.2
	h-11.9V278.2z M353.2,278.2h8.9v35.2h-8.9V278.2z M365.1,278.2h6.7v35.2h-6.7V278.2z M374.8,278.2h5.2v35.2h-5.2V278.2z M383,278.2
	h5.2v35.2H383V278.2z M391.2,278.2h3.7v35.2h-3.7V278.2z M397.9,278.2h41.7v35.2h-41.7V278.2z M442.5,278.2h23.1v35.2h-23.1V278.2z
	 M468.6,278.2h16.1v35.2h-16.1V278.2z M487.6,278.2h11.5v35.2h-11.5V278.2z M502,278.2h8.9v35.2H502V278.2z M513.9,278.2h6.7v35.2
	h-6.7V278.2z M523.6,278.2h5.2v35.2h-5.2V278.2z M531.8,278.2h5.2v35.2h-5.2V278.2z M540,278.2h3.7v35.2H540V278.2z M546.7,278.2
	h41.7v35.2h-41.7V278.2z M591.3,278.2h23.1v35.2h-23.1V278.2z M617.4,278.2H633v35.2h-15.6V278.2z M636,278.2h11.9v35.2H636V278.2z
	 M650.9,278.2h8.9v35.2h-8.9V278.2z M662.8,278.2h6.7v35.2h-6.7V278.2z M662.8,277.2V242h6.7v35.2H662.8z M662.8,239v-35.2h6.7V239
	H662.8z M662.8,202.8v-35.2h6.7v35.2H662.8z M662.8,164.6v-35.2h6.7v35.2H662.8z M659.8,164.6h-8.9v-35.2h8.9V164.6z M647.9,164.6
	H636v-35.2h11.9V164.6z M633,164.6h-15.6v-35.2H633V164.6z M614.4,164.6h-23.1v-35.2h23.1V164.6z M588.4,164.6h-41.7v-35.2h41.7
	V164.6z M543.7,164.6H540v-35.2h3.7V164.6z M537,164.6h-5.2v-35.2h5.2V164.6z M528.8,164.6h-5.2v-35.2h5.2V164.6z M520.6,164.6h-6.7
	v-35.2h6.7V164.6z M511,164.6h-9v-35.2h8.9L511,164.6L511,164.6z M499.1,164.6h-11.5v-35.2h11.5V164.6z M484.6,164.6h-16.1v-35.2
	h16.1V164.6z M465.6,164.6h-23.1v-35.2h23.1V164.6z M439.5,164.6h-41.7v-35.2h41.7V164.6z M394.9,164.6h-3.7v-35.2h3.7V164.6z
	 M388.2,164.6H383v-35.2h5.2V164.6z M380,164.6h-5.2v-35.2h5.2V164.6z M371.8,164.6h-6.7v-35.2h6.7V164.6z M362.2,164.6h-8.9v-35.2
	h8.9V164.6z M350.2,164.6h-11.9v-35.2h11.9V164.6z M335.4,164.6h-15.6v-35.2h15.6V164.6z M316.8,164.6h-23.1v-35.2h23.1V164.6z
	 M290.7,164.6H249v-35.2h41.7V164.6z M246.1,164.6h-3.7v-35.2h3.7V164.6z M239.4,164.6h-5.2v-35.2h5.2V164.6z M231.2,164.6H226
	v-35.2h5.2V164.6z M223,164.6h-6.7v-35.2h6.7V164.6z M213.3,164.6h-8.9v-35.2h8.9V164.6z M201.4,164.6h-11.9v-35.2h11.9V164.6z
	 M186.5,164.6h-15.6v-35.2h15.6V164.6z M170.9,316.4h15.6v35.2h-15.6V316.4z M189.5,316.4h11.9v35.2h-11.9V316.4z M204.4,316.4h8.9
	v35.2h-8.9V316.4z M216.3,316.4h6.7v35.2h-6.7V316.4z M226,316.4h5.2v35.2H226V316.4z M234.2,316.4h5.2v35.2h-5.2V316.4z
	 M242.4,316.4h3.7v35.2h-3.7L242.4,316.4L242.4,316.4z M249,316.4h41.7v35.2H249V316.4z M293.7,316.4h23.1v35.2h-23.1V316.4z
	 M319.7,316.4h15.6v35.2h-15.6V316.4z M338.3,316.4h11.9v35.2h-11.9V316.4z M353.2,316.4h8.9v35.2h-8.9V316.4z M365.1,316.4h6.7
	v35.2h-6.7V316.4z M374.8,316.4h5.2v35.2h-5.2V316.4z M383,316.4h5.2v35.2H383V316.4z M391.2,316.4h3.7v35.2h-3.7V316.4z
	 M397.9,316.4h41.7v35.2h-41.7V316.4z M442.5,316.4h23.1v35.2h-23.1V316.4z M468.6,316.4h16.1v35.2h-16.1V316.4z M487.6,316.4h11.5
	v35.2h-11.5V316.4z M502,316.4h8.9v35.2H502V316.4z M513.9,316.4h6.7v35.2h-6.7V316.4z M523.6,316.4h5.2v35.2h-5.2V316.4z
	 M531.8,316.4h5.2v35.2h-5.2V316.4z M540,316.4h3.7v35.2H540V316.4z M546.7,316.4h41.7v35.2h-41.7V316.4z M591.3,316.4h23.1v35.2
	h-23.1V316.4z M617.4,316.4H633v35.2h-15.6V316.4z M636,316.4h11.9v35.2H636V316.4z M650.9,316.4h8.9v35.2h-8.9V316.4z M662.8,316.4
	h6.7v35.2h-6.7V316.4z M672.4,316.4h5.2v35.2h-5.2V316.4z M672.4,313.4v-35.2h5.2v35.2H672.4z M672.4,277.2V242h5.2v35.2H672.4z
	 M672.4,239v-35.2h5.2V239H672.4z M672.4,202.8v-35.2h5.2v35.2H672.4z M672.4,164.6v-35.2h5.2v35.2H672.4z M672.4,128.4V93.2h5.2
	v35.2H672.4z M669.5,128.4h-6.7V93.2h6.7V128.4z M659.8,128.4h-8.9V93.2h8.9V128.4z M647.9,128.4H636V93.2h11.9V128.4z M633,128.4
	h-15.6V93.2H633V128.4z M614.4,128.4h-23.1V93.2h23.1V128.4z M588.4,128.4h-41.7V93.2h41.7V128.4z M543.7,128.4H540V93.2h3.7V128.4z
	 M537,128.4h-5.2V93.2h5.2V128.4z M528.8,128.4h-5.2V93.2h5.2V128.4z M520.6,128.4h-6.7V93.2h6.7V128.4z M511,128.4h-9V93.2h8.9
	L511,128.4L511,128.4z M499.1,128.4h-11.5V93.2h11.5V128.4z M484.6,128.4h-16.1V93.2h16.1V128.4z M465.6,128.4h-23.1V93.2h23.1
	V128.4z M439.5,128.4h-41.7V93.2h41.7V128.4z M394.9,128.4h-3.7V93.2h3.7V128.4z M388.2,128.4H383V93.2h5.2V128.4z M380,128.4h-5.2
	V93.2h5.2V128.4z M371.8,128.4h-6.7V93.2h6.7V128.4z M362.2,128.4h-8.9V93.2h8.9V128.4z M350.2,128.4h-11.9V93.2h11.9V128.4z
	 M335.4,128.4h-15.6V93.2h15.6V128.4z M316.8,128.4h-23.1V93.2h23.1V128.4z M290.7,128.4H249V93.2h41.7V128.4z M246.1,128.4h-3.7
	V93.2h3.7V128.4z M239.4,128.4h-5.2V93.2h5.2V128.4z M231.2,128.4H226V93.2h5.2V128.4z M223,128.4h-6.7V93.2h6.7V128.4z
	 M213.3,128.4h-8.9V93.2h8.9V128.4z M201.4,128.4h-11.9V93.2h11.9V128.4z M186.5,128.4h-15.6V93.2h15.6V128.4z M170.9,352.6h15.6
	v35.2h-15.6V352.6z M189.5,352.6h11.9v35.2h-11.9V352.6z M204.4,352.6h8.9v35.2h-8.9V352.6z M216.3,352.6h6.7v35.2h-6.7V352.6z
	 M226,352.6h5.2v35.2H226V352.6z M234.2,352.6h5.2v35.2h-5.2V352.6z M242.4,352.6h3.7v35.2h-3.7L242.4,352.6L242.4,352.6z
	 M249,352.6h41.7v35.2H249V352.6z M293.7,352.6h23.1v35.2h-23.1V352.6z M319.7,352.6h15.6v35.2h-15.6V352.6z M338.3,352.6h11.9v35.2
	h-11.9V352.6z M353.2,352.6h8.9v35.2h-8.9V352.6z M365.1,352.6h6.7v35.2h-6.7V352.6z M374.8,352.6h5.2v35.2h-5.2V352.6z M383,352.6
	h5.2v35.2H383V352.6z M391.2,352.6h3.7v35.2h-3.7V352.6z M397.9,352.6h41.7v35.2h-41.7V352.6z M442.5,352.6h23.1v35.2h-23.1V352.6z
	 M468.6,352.6h16.1v35.2h-16.1V352.6z M487.6,352.6h11.5v35.2h-11.5V352.6z M502,352.6h8.9v35.2H502V352.6z M513.9,352.6h6.7v35.2
	h-6.7V352.6z M523.6,352.6h5.2v35.2h-5.2V352.6z M531.8,352.6h5.2v35.2h-5.2V352.6z M540,352.6h3.7v35.2H540V352.6z M546.7,352.6
	h41.7v35.2h-41.7V352.6z M591.3,352.6h23.1v35.2h-23.1V352.6z M617.4,352.6H633v35.2h-15.6V352.6z M636,352.6h11.9v35.2H636V352.6z
	 M650.9,352.6h8.9v35.2h-8.9V352.6z M662.8,352.6h6.7v35.2h-6.7V352.6z M672.4,352.6h5.2v35.2h-5.2V352.6z M680.6,352.6h5.2v35.2
	h-5.2V352.6z M680.6,351.6v-35.2h5.2v35.2H680.6z M680.6,313.4v-35.2h5.2v35.2H680.6z M680.6,277.2V242h5.2v35.2H680.6z M680.6,239
	v-35.2h5.2V239H680.6z M680.6,202.8v-35.2h5.2v35.2H680.6z M680.6,164.6v-35.2h5.2v35.2H680.6z M680.6,128.4V93.2h5.2v35.2H680.6z
	 M680.6,90.2V55h5.2v35.2H680.6z M677.6,90.2h-5.2V55h5.2V90.2z M669.5,90.2h-6.7V55h6.7V90.2z M659.8,90.2h-8.9V55h8.9V90.2z
	 M647.9,90.2H636V55h11.9V90.2z M633,90.2h-15.6V55H633V90.2z M614.4,90.2h-23.1V55h23.1V90.2z M588.4,90.2h-41.7V55h41.7V90.2z
	 M543.7,90.2H540V55h3.7V90.2z M537,90.2h-5.2V55h5.2V90.2z M528.8,90.2h-5.2V55h5.2V90.2z M520.6,90.2h-6.7V55h6.7V90.2z M511,90.2
	h-9V55h8.9L511,90.2L511,90.2z M499.1,90.2h-11.5V55h11.5V90.2z M484.6,90.2h-16.1V55h16.1V90.2z M465.6,90.2h-23.1V55h23.1V90.2z
	 M439.5,90.2h-41.7V55h41.7V90.2z M394.9,90.2h-3.7V55h3.7V90.2z M388.2,90.2H383V55h5.2V90.2z M380,90.2h-5.2V55h5.2V90.2z
	 M371.8,90.2h-6.7V55h6.7V90.2z M362.2,90.2h-8.9V55h8.9V90.2z M350.2,90.2h-11.9V55h11.9V90.2z M335.4,90.2h-15.6V55h15.6V90.2z
	 M316.8,90.2h-23.1V55h23.1V90.2z M290.7,90.2H249V55h41.7V90.2z M246.1,90.2h-3.7V55h3.7V90.2z M239.4,90.2h-5.2V55h5.2V90.2z
	 M231.2,90.2H226V55h5.2V90.2z M223,90.2h-6.7V55h6.7V90.2z M213.3,90.2h-8.9V55h8.9V90.2z M201.4,90.2h-11.9V55h11.9V90.2z
	 M186.5,90.2h-15.6V55h15.6V90.2z M167.9,90.2h-23.1V55h23.1V90.2z M167.9,93.2v35.2h-23.1V93.2H167.9z M167.9,129.4v35.2h-23.1
	v-35.2H167.9z M167.9,167.6v35.2h-23.1v-35.2H167.9z M167.9,203.8V239h-23.1v-35.2H167.9z M167.9,242v35.2h-23.1V242H167.9z
	 M167.9,278.2v35.2h-23.1v-35.2H167.9z M167.9,316.4v35.2h-23.1v-35.2H167.9z M167.9,352.6v35.2h-23.1v-35.2H167.9z M167.9,390.8
	V426h-23.1v-35.2H167.9z M170.9,390.8h15.6V426h-15.6V390.8z M189.5,390.8h11.9V426h-11.9V390.8z M204.4,390.8h8.9V426h-8.9V390.8z
	 M216.3,390.8h6.7V426h-6.7V390.8z M226,390.8h5.2V426H226V390.8z M234.2,390.8h5.2V426h-5.2V390.8z M242.4,390.8h3.7V426h-3.7
	L242.4,390.8L242.4,390.8z M249,390.8h41.7V426H249V390.8z M293.7,390.8h23.1V426h-23.1V390.8z M319.7,390.8h15.6V426h-15.6V390.8z
	 M338.3,390.8h11.9V426h-11.9V390.8z M353.2,390.8h8.9V426h-8.9V390.8z M365.1,390.8h6.7V426h-6.7V390.8z M374.8,390.8h5.2V426h-5.2
	V390.8z M383,390.8h5.2V426H383V390.8z M391.2,390.8h3.7V426h-3.7V390.8z M397.9,390.8h41.7V426h-41.7V390.8z M442.5,390.8h23.1V426
	h-23.1V390.8z M468.6,390.8h16.1V426h-16.1V390.8z M487.6,390.8h11.5V426h-11.5V390.8z M502,390.8h8.9V426H502V390.8z M513.9,390.8
	h6.7V426h-6.7V390.8z M523.6,390.8h5.2V426h-5.2V390.8z M531.8,390.8h5.2V426h-5.2V390.8z M540,390.8h3.7V426H540V390.8z
	 M546.7,390.8h41.7V426h-41.7V390.8z M591.3,390.8h23.1V426h-23.1V390.8z M617.4,390.8H633V426h-15.6V390.8z M636,390.8h11.9V426
	H636V390.8z M650.9,390.8h8.9V426h-8.9V390.8z M662.8,390.8h6.7V426h-6.7V390.8z M672.4,390.8h5.2V426h-5.2V390.8z M680.6,390.8h5.2
	V426h-5.2V390.8z M688.8,390.8h3.7V426h-3.7V390.8z M688.8,387.8v-35.2h3.7v35.2H688.8z M688.8,351.6v-35.2h3.7v35.2H688.8z
	 M688.8,313.4v-35.2h3.7v35.2H688.8z M688.8,277.2V242h3.7v35.2H688.8z M688.8,239v-35.2h3.7V239H688.8z M688.8,202.8v-35.2h3.7
	v35.2H688.8z M688.8,164.6v-35.2h3.7v35.2H688.8z M688.8,128.4V93.2h3.7v35.2H688.8z M688.8,90.2V55h3.7v35.2H688.8z M688.8,54V18.8
	h3.7V54H688.8z M685.8,54h-5.2V18.8h5.2V54z M677.6,54h-5.2V18.8h5.2V54z M669.5,54h-6.7V18.8h6.7V54z M659.8,54h-8.9V18.8h8.9V54z
	 M647.9,54H636V18.8h11.9V54z M633,54h-15.6V18.8H633V54z M614.4,54h-23.1V18.8h23.1V54z M588.4,54h-41.7V18.8h41.7V54z M543.7,54
	H540V18.8h3.7V54z M537,54h-5.2V18.8h5.2V54z M528.8,54h-5.2V18.8h5.2V54z M520.6,54h-6.7V18.8h6.7V54z M511,54h-9V18.8h8.9L511,54
	L511,54z M499.1,54h-11.5V18.8h11.5V54z M484.6,54h-16.1V18.8h16.1V54z M465.6,54h-23.1V18.8h23.1V54z M439.5,54h-41.7V18.8h41.7V54
	z M394.9,54h-3.7V18.8h3.7V54z M388.2,54H383V18.8h5.2V54z M380,54h-5.2V18.8h5.2V54z M371.8,54h-6.7V18.8h6.7V54z M362.2,54h-8.9
	V18.8h8.9V54z M350.2,54h-11.9V18.8h11.9V54z M335.4,54h-15.6V18.8h15.6V54z M316.8,54h-23.1V18.8h23.1V54z M290.7,54H249V18.8h41.7
	V54z M246.1,54h-3.7V18.8h3.7V54z M239.4,54h-5.2V18.8h5.2V54z M231.2,54H226V18.8h5.2V54z M223,54h-6.7V18.8h6.7V54z M213.3,54
	h-8.9V18.8h8.9V54z M201.4,54h-11.9V18.8h11.9V54z M186.5,54h-15.6V18.8h15.6V54z M167.9,54h-23.1V18.8h23.1V54z M144.9,427H168
	v35.2h-23.1V427z M170.9,427h15.6v35.2h-15.6V427z M189.5,427h11.9v35.2h-11.9V427z M204.4,427h8.9v35.2h-8.9V427z M216.3,427h6.7
	v35.2h-6.7V427z M226,427h5.2v35.2H226V427z M234.2,427h5.2v35.2h-5.2V427z M242.4,427h3.7v35.2h-3.7L242.4,427L242.4,427z M249,427
	h41.7v35.2H249V427z M293.7,427h23.1v35.2h-23.1V427z M319.7,427h15.6v35.2h-15.6V427z M338.3,427h11.9v35.2h-11.9V427z M353.2,427
	h8.9v35.2h-8.9V427z M365.1,427h6.7v35.2h-6.7V427z M374.8,427h5.2v35.2h-5.2V427z M383,427h5.2v35.2H383V427z M391.2,427h3.7v35.2
	h-3.7V427z M397.9,427h41.7v35.2h-41.7V427z M442.5,427h23.1v35.2h-23.1V427z M468.6,427h16.1v35.2h-16.1V427z M487.6,427h11.5v35.2
	h-11.5V427z M502,427h8.9v35.2H502V427z M513.9,427h6.7v35.2h-6.7V427z M523.6,427h5.2v35.2h-5.2V427z M531.8,427h5.2v35.2h-5.2V427
	z M540,427h3.7v35.2H540V427z M546.7,427h41.7v35.2h-41.7V427z M591.3,427h23.1v35.2h-23.1V427z M617.4,427H633v35.2h-15.6V427z
	 M636,427h11.9v35.2H636V427z M650.9,427h8.9v35.2h-8.9V427z M662.8,427h6.7v35.2h-6.7V427z M672.4,427h5.2v35.2h-5.2V427z
	 M680.6,427h5.2v35.2h-5.2V427z M688.8,427h3.7v35.2h-3.7V427z M144.9,500.4v-35.2H168v35.2H144.9z M170.9,500.4v-35.2h15.6v35.2
	H170.9z M189.5,500.4v-35.2h11.9v35.2H189.5z M204.4,500.4v-35.2h8.9v35.2H204.4z M216.3,500.4v-35.2h6.7v35.2H216.3z M226,500.4
	v-35.2h5.2v35.2H226z M234.2,500.4v-35.2h5.2v35.2H234.2z M242.4,500.4v-35.2h3.7v35.2H242.4z M249,500.4v-35.2h41.7v35.2H249z
	 M293.7,500.4v-35.2h23.1v35.2H293.7z M319.7,500.4v-35.2h15.6v35.2H319.7z M338.3,500.4v-35.2h11.9v35.2H338.3z M353.2,500.4v-35.2
	h8.9v35.2H353.2z M365.1,500.4v-35.2h6.7v35.2H365.1z M374.8,500.4v-35.2h5.2v35.2H374.8z M383,500.4v-35.2h5.2v35.2H383z
	 M391.2,500.4v-35.2h3.7v35.2H391.2z M397.9,500.4v-35.2h41.7v35.2H397.9z M442.5,500.4v-35.2h23.1v35.2H442.5z M468.6,500.4v-35.2
	h16.1v35.2H468.6z M487.6,500.4v-35.2h11.5v35.2H487.6z M502,500.4v-35.2h8.9v35.2H502z M513.9,500.4v-35.2h6.7v35.2H513.9z
	 M523.6,500.4v-35.2h5.2v35.2H523.6z M531.8,500.4v-35.2h5.2v35.2H531.8z M540,500.4v-35.2h3.7v35.2H540z M546.7,500.4v-35.2h41.7
	v35.2H546.7z M591.3,500.4v-35.2h23.1v35.2H591.3z M617.4,500.4v-35.2H633v35.2H617.4z M636,500.4v-35.2h11.9v35.2H636z
	 M650.9,500.4v-35.2h8.9v35.2H650.9z M662.8,500.4v-35.2h6.7v35.2H662.8z M672.4,500.4v-35.2h5.2v35.2H672.4z M680.6,500.4v-35.2
	h5.2v35.2H680.6z M688.8,500.4v-35.2h3.7v35.2H688.8z"/>
<g id="A_scale">
	<g id="g1641" transform="matrix(7.4409448e-2,0,0,7.4409448e-2,-323.47581,-351.05176)">
		<path id="path1643" class="st1" d="M6258.3,11931.1l119-338l23,8l24,9l-118,337l-24-8L6258.3,11931.1z"/>
		<path id="path1645" class="st1" d="M6400.3,11601.1l-23-8l0,0L6400.3,11601.1z"/>
		<path id="path1647" class="st1" d="M6377.3,11593.1l152-411l24,9l23,8l-152,411l-24-9L6377.3,11593.1z"/>
		<path id="path1649" class="st1" d="M6553.3,11191l-24-9v-1L6553.3,11191z"/>
		<path id="path1651" class="st1" d="M6529.3,11181l162-418l24,9l23,9l-162,419l-23-9L6529.3,11181z"/>
		<path id="path1653" class="st1" d="M6715.3,10772l-24-9l0,0L6715.3,10772z"/>
		<path id="path1655" class="st1" d="M6691.3,10763l148-360l23,9l23,9l-147,361l-23-10L6691.3,10763z"/>
		<path id="path1657" class="st1" d="M6862.3,10412l-23-9v-2L6862.3,10412z"/>
		<path id="path1659" class="st1" d="M6839.3,10401l150-321l22,11l23,10l-149,322l-23-11L6839.3,10401z"/>
		<path id="path1661" class="st1" d="M7011.3,10091l-22-11v-1L7011.3,10091z"/>
		<path id="path1663" class="st1" d="M6989.3,10079l175-345l23,11l22,12l-175,345l-23-11L6989.3,10079z"/>
		<path id="path1665" class="st1" d="M7187.3,9745l-23-11l0,0L7187.3,9745z"/>
		<path id="path1667" class="st1" d="M7164.3,9734l280-527l22,12l22,12l-279,526l-22-12L7164.3,9734z"/>
		<path id="path1669" class="st1" d="M7466.3,9219l22,11v1L7466.3,9219z"/>
		<path id="path1671" class="st1" d="M7444.3,9208l58-116l22,11l23,11l-59,116l-22-11L7444.3,9208z"/>
		<path id="path1673" class="st1" d="M7524.3,9103l23,10v1L7524.3,9103z"/>
		<path id="path1675" class="st1" d="M7501.3,9093l32-70l23,11l22,10l-31,69l-23-10L7501.3,9093z"/>
		<path id="path1677" class="st1" d="M7556.3,9034l-23-11l0,0L7556.3,9034z"/>
		<path id="path1679" class="st1" d="M7533.3,9023l16-33l23,11l22,11l-16,33l-22-11L7533.3,9023z"/>
		<path id="path1681" class="st1" d="M7572.3,9001l-23-11l1-1L7572.3,9001z"/>
		<path id="path1683" class="st1" d="M7550.3,8989l21-40l22,12l22,12l-21,40l-22-12L7550.3,8989z"/>
		<path id="path1685" class="st1" d="M7593.3,8961l-22-12l1-1L7593.3,8961z"/>
		<path id="path1687" class="st1" d="M7572.3,8948l77-126l21,13l21,13l-76,126l-22-13L7572.3,8948z"/>
		<path id="path1689" class="st1" d="M7670.3,8835l-21-13v-1L7670.3,8835z"/>
		<path id="path1691" class="st1" d="M7649.3,8821l143-216l21,14l21,14l-143,216l-21-14L7649.3,8821z"/>
		<path id="path1693" class="st1" d="M7813.3,8619l-21-14l1-1L7813.3,8619z"/>
		<path id="path1695" class="st1" d="M7793.3,8604l141-193l20,15l20,15l-141,193l-20-15L7793.3,8604z"/>
		<path id="path1697" class="st1" d="M7954.3,8426l-20-15v-1L7954.3,8426z"/>
		<path id="path1699" class="st1" d="M7934.3,8410l148-186l20,15l19,16l-148,186l-19-15L7934.3,8410z"/>
		<path id="path1701" class="st1" d="M8102.3,8239l-20-15l1-1L8102.3,8239z"/>
		<path id="path1703" class="st1" d="M8083.3,8223l164-196l19,16l19,16l-164,196l-19-16L8083.3,8223z"/>
		<path id="path1705" class="st1" d="M8266.3,8043l-19-16l0,0L8266.3,8043z"/>
		<path id="path1707" class="st1" d="M8247.3,8027l232-274l19,17l19,16l-232,273l-19-16L8247.3,8027z"/>
		<path id="path1709" class="st1" d="M8498.3,7770l-19-17l1-1L8498.3,7770z"/>
		<path id="path1711" class="st1" d="M8480.3,7752l66-69l18,17l18,17l-66,70l-18-17L8480.3,7752z"/>
		<path id="path1713" class="st1" d="M8564.3,7700l-18-17l1-1L8564.3,7700z"/>
		<path id="path1715" class="st1" d="M8547.3,7682l79-78l18,18l17,17l-79,79l-18-18L8547.3,7682z"/>
		<path id="path1717" class="st1" d="M8644.3,7622l-18-18l1-1L8644.3,7622z"/>
		<path id="path1719" class="st1" d="M8627.3,7603l219-199l17,18l17,18l-220,200l-16-18L8627.3,7603z"/>
		<path id="path1721" class="st1" d="M8863.3,7422l-17-18l1-1L8863.3,7422z"/>
		<path id="path1723" class="st1" d="M8847.3,7403l92-74l16,19l15,20l-91,73l-16-19L8847.3,7403z"/>
		<path id="path1725" class="st1" d="M8955.3,7348l-16-19l1-1L8955.3,7348z"/>
		<path id="path1727" class="st1" d="M8940.3,7328l107-75l14,20l14,21l-106,75l-14-21L8940.3,7328z"/>
		<path id="path1729" class="st1" d="M9061.3,7273l-14-20l1-1L9061.3,7273z"/>
		<path id="path1731" class="st1" d="M9048.3,7252l114-73l14,21l13,21l-115,73l-13-21L9048.3,7252z"/>
		<path id="path1733" class="st1" d="M9176.3,7200l-14-21l1-1L9176.3,7200z"/>
		<path id="path1735" class="st1" d="M9163.3,7178l117-68l13,21l13,22l-118,69l-12-22L9163.3,7178z"/>
		<path id="path1737" class="st1" d="M9293.3,7131l-13-21l1-1L9293.3,7131z"/>
		<path id="path1739" class="st1" d="M9281.3,7109l114-61l12,22l12,22l-114,61l-12-22L9281.3,7109z"/>
		<path id="path1741" class="st1" d="M9407.3,7070l-12-22l1-1L9407.3,7070z"/>
		<path id="path1743" class="st1" d="M9396.3,7047l105-51l11,22l11,23l-105,51l-11-22L9396.3,7047z"/>
		<path id="path1745" class="st1" d="M9512.3,7018l-11-22l1-1L9512.3,7018z"/>
		<path id="path1747" class="st1" d="M9502.3,6995l90-39l10,23l10,23l-90,39l-10-23L9502.3,6995z"/>
		<path id="path1749" class="st1" d="M9602.3,6979l-10-23h1L9602.3,6979z"/>
		<path id="path1751" class="st1" d="M9593.3,6956l37-14l9,24l8,23l-37,14l-8-24L9593.3,6956z"/>
		<path id="path1753" class="st1" d="M9639.3,6966l-9-24h1L9639.3,6966z"/>
		<path id="path1755" class="st1" d="M9631.3,6942l32-10l7,24l7,24l-31,9l-7-23L9631.3,6942z"/>
		<path id="path1757" class="st1" d="M9670.3,6956l-7-24h1L9670.3,6956z"/>
		<path id="path1759" class="st1" d="M9664.3,6932l173-46l6,25l6,24l-173,45l-6-24L9664.3,6932z"/>
		<path id="path1761" class="st1" d="M9843.3,6911l-6-25l0,0L9843.3,6911z"/>
		<path id="path1763" class="st1" d="M9837.3,6886l141-34l6,24l6,25l-141,34l-6-24L9837.3,6886z"/>
		<path id="path1765" class="st1" d="M9984.3,6876l-6-24h1L9984.3,6876z"/>
		<path id="path1767" class="st1" d="M9979.3,6852l67-14l5,25l4,24l-66,14l-5-25L9979.3,6852z"/>
		<path id="path1769" class="st1" d="M10051.3,6863l-5-25l0,0L10051.3,6863z"/>
		<path id="path1771" class="st1" d="M10046.3,6838l68-11l4,24l4,25l-67,11l-4-24L10046.3,6838z"/>
		<path id="path1773" class="st1" d="M10118.3,6851l-4-24l0,0L10118.3,6851z"/>
		<path id="path1775" class="st1" d="M10114.3,6827l72-10l3,25l3,25l-71,9l-3-25L10114.3,6827z"/>
		<path id="path1777" class="st1" d="M10189.3,6842l-3-25l0,0L10189.3,6842z"/>
		<path id="path1779" class="st1" d="M10186.3,6817l78-8l3,25l3,25l-79,8l-2-25L10186.3,6817z"/>
		<path id="path1781" class="st1" d="M10267.3,6834l-3-25h1L10267.3,6834z"/>
		<path id="path1783" class="st1" d="M10265.3,6809l105-7l2,25l1,25l-104,7l-2-25L10265.3,6809z"/>
		<path id="path1785" class="st1" d="M10372.3,6827l-2-25h1L10372.3,6827z"/>
		<path id="path1787" class="st1" d="M10371.3,6802l101-3v25l1,25l-101,3v-25L10371.3,6802z"/>
		<path id="path1789" class="st1" d="M10472.3,6824v-25h1L10472.3,6824z"/>
		<path id="path1791" class="st1" d="M10473.3,6799l97,2v25v25l-98-2v-25L10473.3,6799z"/>
		<path id="path1793" class="st1" d="M10570.3,6826v-25h1L10570.3,6826z"/>
		<path id="path1795" class="st1" d="M10571.3,6801l96,5l-1,25l-1,25l-96-5l1-25L10571.3,6801z"/>
		<path id="path1797" class="st1" d="M10666.3,6831l1-25h1L10666.3,6831z"/>
		<path id="path1799" class="st1" d="M10668.3,6806l96,8l-2,25l-3,25l-95-8l2-25L10668.3,6806z"/>
		<path id="path1801" class="st1" d="M10762.3,6839l2-25l1,1L10762.3,6839z"/>
		<path id="path1803" class="st1" d="M10765.3,6815l96,11l-3,25l-3,25l-96-12l3-25L10765.3,6815z"/>
		<path id="path1805" class="st1" d="M10858.3,6851l3-25h1L10858.3,6851z"/>
		<path id="path1807" class="st1" d="M10862.3,6826l201,32l-4,25l-4,25l-201-32l4-25L10862.3,6826z"/>
		<path id="path1809" class="st1" d="M11059.3,6883l4-25l1,1L11059.3,6883z"/>
		<path id="path1811" class="st1" d="M11064.3,6859l98,20l-5,25l-5,24l-98-21l5-24L11064.3,6859z"/>
		<path id="path1813" class="st1" d="M11157.3,6904l5-25l2,1L11157.3,6904z"/>
		<path id="path1815" class="st1" d="M11164.3,6880l87,25l-6,24l-7,24l-88-25l7-24L11164.3,6880z"/>
		<path id="path1817" class="st1" d="M11245.3,6929l6-24l2,1L11245.3,6929z"/>
		<path id="path1819" class="st1" d="M11253.3,6906l79,29l-9,24l-8,23l-79-30l9-23L11253.3,6906z"/>
		<path id="path1821" class="st1" d="M11323.4,6959l9-24l2,1L11323.4,6959z"/>
		<path id="path1823" class="st1" d="M11334.4,6936l73,35l-11,22l-10,23l-73-35l10-22L11334.4,6936z"/>
		<path id="path1825" class="st1" d="M11396.4,6993l11-22h2L11396.4,6993z"/>
		<path id="path1827" class="st1" d="M11409.4,6971l69,40l-13,21l-12,22l-69-39l12-22L11409.4,6971z"/>
		<path id="path1829" class="st1" d="M11465.4,7032l13-21h1L11465.4,7032z"/>
		<path id="path1831" class="st1" d="M11479.4,7011l67,44l-13,21l-14,21l-67-44l13-21L11479.4,7011z"/>
		<path id="path1833" class="st1" d="M11533.4,7076l13-21l1,1L11533.4,7076z"/>
		<path id="path1835" class="st1" d="M11547.4,7056l140,101l-15,20l-15,20l-139-101l15-20L11547.4,7056z"/>
		<path id="path1837" class="st1" d="M11672.4,7177l15-20l1,1L11672.4,7177z"/>
		<path id="path1839" class="st1" d="M11688.4,7158l80,64l-16,20l-16,19l-80-65l16-19L11688.4,7158z"/>
		<path id="path1841" class="st1" d="M11752.4,7242l16-20l1,2L11752.4,7242z"/>
		<path id="path1843" class="st1" d="M11769.4,7224l78,72l-17,18l-17,18l-78-72l17-18L11769.4,7224z"/>
		<path id="path1845" class="st1" d="M11830.4,7314l17-18h1L11830.4,7314z"/>
		<path id="path1847" class="st1" d="M11848.4,7296l76,79l-18,17l-18,18l-76-79l18-17L11848.4,7296z"/>
		<path id="path1849" class="st1" d="M11906.4,7392l18-17l1,1L11906.4,7392z"/>
		<path id="path1851" class="st1" d="M11925.4,7376l74,84l-19,16l-19,17l-74-84l19-17L11925.4,7376z"/>
		<path id="path1853" class="st1" d="M11980.4,7476l19-16v1L11980.4,7476z"/>
		<path id="path1855" class="st1" d="M11999.4,7461l72,88l-19,16l-19,16l-73-89l20-16L11999.4,7461z"/>
		<path id="path1857" class="st1" d="M12052.4,7565l19-16l1,1L12052.4,7565z"/>
		<path id="path1859" class="st1" d="M12072.4,7550l71,93l-20,16l-20,15l-71-94l20-15L12072.4,7550z"/>
		<path id="path1861" class="st1" d="M12123.4,7659l20-16v1L12123.4,7659z"/>
		<path id="path1863" class="st1" d="M12143.4,7644l137,197l-20,14l-20,14l-138-196l21-14L12143.4,7644z"/>
	</g>
	<g id="g2007" transform="matrix(7.4409448e-2,0,0,7.4409448e-2,-323.47581,-351.05176)">
		<path id="path2009" class="st1" d="M12404.4,7949l24,46l-45,23l-23-45L12404.4,7949z"/>
		<path id="path2011" class="st1" d="M12451.4,8040l24,45l-44,23l-24-45L12451.4,8040z"/>
		<path id="path2013" class="st1" d="M12499.4,8130l23,45l-44,24l-24-46L12499.4,8130z"/>
		<path id="path2015" class="st1" d="M12546.4,8221l24,45l-45,23l-23-45L12546.4,8221z"/>
		<path id="path2017" class="st1" d="M12593.4,8311l24,45l-44,23l-24-45L12593.4,8311z"/>
		<path id="path2019" class="st1" d="M12641.4,8401l21,40l-23,12l-22,12l-21-41l22-11L12641.4,8401z"/>
		<path id="path2021" class="st1" d="M12639.4,8453l23-12v2L12639.4,8453z"/>
		<path id="path2023" class="st1" d="M12662.4,8443l3,5l-23,10l-23,11l-2-6l22-10L12662.4,8443z"/>
		<path id="path2025" class="st1" d="M12686.4,8494l21,47l-46,20l-21-46L12686.4,8494z"/>
		<path id="path2027" class="st1" d="M12727.4,8589l19,47l-47,19l-19-47L12727.4,8589z"/>
		<path id="path2029" class="st1" d="M12765.4,8684l17,48l-47,17l-17-48L12765.4,8684z"/>
		<path id="path2031" class="st1" d="M12800.4,8780l17,48l-47,17l-17-48L12800.4,8780z"/>
		<path id="path2033" class="st1" d="M12834.4,8876l17,48l-47,17l-17-48L12834.4,8876z"/>
		<path id="path2035" class="st1" d="M12869.4,8972l17,48l-47,17l-18-48L12869.4,8972z"/>
		<path id="path2037" class="st1" d="M12902.4,9070l15,49l-48,14l-15-49L12902.4,9070z"/>
		<path id="path2039" class="st1" d="M12931.4,9168l15,49l-48,14l-15-49L12931.4,9168z"/>
		<path id="path2041" class="st1" d="M12961.4,9266l14,48l-48,15l-14-49L12961.4,9266z"/>
		<path id="path2043" class="st1" d="M12990.4,9363l14,49l-48,14l-14-48L12990.4,9363z"/>
		<path id="path2045" class="st1" d="M13019.4,9461l1,4l-24,7l-24,8l-1-5l24-7L13019.4,9461z"/>
		<path id="path2047" class="st1" d="M12996.4,9472l24-7v1L12996.4,9472z"/>
		<path id="path2049" class="st1" d="M13020.4,9466l12,45l-24,6l-24,7l-12-45l24-7L13020.4,9466z"/>
		<path id="path2051" class="st1" d="M13046.4,9560l13,49l-48,13l-13-49L13046.4,9560z"/>
		<path id="path2053" class="st1" d="M13073.4,9658l13,50l-48,13l-14-49L13073.4,9658z"/>
		<path id="path2055" class="st1" d="M13099.4,9757l14,49l-49,13l-13-49L13099.4,9757z"/>
		<path id="path2057" class="st1" d="M13126.4,9855l13,50l-48,13l-13-50L13126.4,9855z"/>
		<path id="path2059" class="st1" d="M13153.4,9954l13,49l-48,13l-13-49L13153.4,9954z"/>
		<path id="path2061" class="st1" d="M13180.4,10052l13,49l-48,14l-14-50L13180.4,10052z"/>
		<path id="path2063" class="st1" d="M13206.4,10151l9,31l-24,7l-24,6l-9-31l24-7L13206.4,10151z"/>
		<path id="path2065" class="st1" d="M13191.4,10189l24-7v1L13191.4,10189z"/>
		<path id="path2067" class="st1" d="M13215.4,10183l4,17l-24,6l-24,7l-4-18l24-6L13215.4,10183z"/>
		<path id="path2069" class="st1" d="M13232.4,10250l13,49l-49,12l-12-49L13232.4,10250z"/>
		<path id="path2071" class="st1" d="M13257.4,10349l13,49l-49,12l-12-49L13257.4,10349z"/>
		<path id="path2073" class="st1" d="M13282.4,10448l13,49l-49,12l-12-49L13282.4,10448z"/>
		<path id="path2075" class="st1" d="M13307.4,10546l13,50l-49,12l-12-49L13307.4,10546z"/>
		<path id="path2077" class="st1" d="M13332.5,10645l13,50l-49,12l-12-49L13332.5,10645z"/>
		<path id="path2079" class="st1" d="M13357.5,10744l13,50l-49,12l-12-50L13357.5,10744z"/>
		<path id="path2081" class="st1" d="M13382.5,10843l13,49l-49,13l-12-50L13382.5,10843z"/>
		<path id="path2083" class="st1" d="M13407.5,10942l13,49l-49,13l-12-50L13407.5,10942z"/>
		<path id="path2085" class="st1" d="M13432.5,11041l2,6l-24,6l-24,6l-2-6l24-6L13432.5,11041z"/>
		<path id="path2087" class="st1" d="M13410.5,11053l24-6v1L13410.5,11053z"/>
		<path id="path2089" class="st1" d="M13434.5,11048l10,43l-24,6l-25,5l-10-43l25-6L13434.5,11048z"/>
		<path id="path2091" class="st1" d="M13455.5,11141l12,49l-49,12l-11-50L13455.5,11141z"/>
		<path id="path2093" class="st1" d="M13478.5,11240l12,50l-49,11l-11-50L13478.5,11240z"/>
		<path id="path2095" class="st1" d="M13501.5,11340l11,49l-48,11l-12-49L13501.5,11340z"/>
		<path id="path2097" class="st1" d="M13524.5,11439l11,50l-49,11l-11-50L13524.5,11439z"/>
		<path id="path2099" class="st1" d="M13547.5,11538l11,50l-49,11l-11-49L13547.5,11538z"/>
		<path id="path2101" class="st1" d="M13569.5,11638.1l12,50l-49,11l-11-50L13569.5,11638.1z"/>
		<path id="path2103" class="st1" d="M13592.5,11737.1l12,50l-49,11l-12-50L13592.5,11737.1z"/>
		<path id="path2105" class="st1" d="M13615.5,11837.1l11,49l-48,12l-12-50L13615.5,11837.1z"/>
	</g>
</g>
<polygon id="Axis" class="st0" points="100.6,536.3 100.6,17.3 96.9,17.3 96.9,538.1 98.7,538.1 98.7,540 694,540 694,536.3 "/>
<path class="st0" d="M1380.8,17.3h-1l0,0h-0.5v-1.5H784v3h43.2V54H784v1h43.2v35.2H784v3h43.2v35.2H784v1h43.2v35.2H784v3h43.2v35.2
	H784v1h43.2V239H784v3h43.2v35.2H784v1h43.2v35.2H784v3h43.2v35.2H784v1h43.2v35.2H784v3h43.2V426H784v1h43.2v35.2H784v3h43.2v35.2
	H784v1h43.2v36.7h1l0,0h1l0,0h1v-36.7h23.1v36.7h1l0,0h1l0,0h1v-36.7h15.6v36.7h1l0,0h1l0,0h1v-36.7h11.9v36.7h1l0,0h1l0,0h1v-36.7
	h8.9v36.7h1l0,0h1l0,0h1v-36.7h6.7v36.7h1l0,0h1l0,0h1v-36.7h5.2v36.7h1l0,0h1l0,0h1v-36.7h5.2v36.7h1l0,0h1l0,0h1v-36.7h3.7v36.7h1
	l0,0h1l0,0h1v-36.7H976v36.7h3v-36.7h23.1v36.7h3v-36.7h15.6v36.7h3v-36.7h11.9v36.7h3v-36.7h8.9v36.7h3v-36.7h6.7v36.7h3v-36.7h5.2
	v36.7h3v-36.7h5.2v36.7h3v-36.7h3.7v36.7h3v-36.7h41.7v36.7h3v-36.7h23.1v36.7h3v-36.7h16.1v36.7h3v-36.7h11.5v36.7h3v-36.7h8.9
	v36.7h3v-36.7h6.7v36.7h3v-36.7h5.2v36.7h3v-36.7h5.2v36.7h3v-36.7h3.7v36.7h3v-36.7h41.7v36.7h3v-36.7h23.1v36.7h3v-36.7h15.6v36.7
	h3v-36.7h11.9v36.7h3v-36.7h8.9v36.7h3v-36.7h6.7v36.7h3v-36.7h5.2v36.7h3v-36.7h5.2v36.7h3v-36.7h3.7v36.7h1l0,0h1l0,0h1V17.3
	H1380.8z M1377.8,54h-3.7V18.8h3.7V54z M1318.3,239h-15.6v-35.2h15.6V239z M1321.3,203.8h11.9V239h-11.9V203.8z M1299.7,239h-23.1
	v-35.2h23.1V239z M1273.7,239H1232v-35.2h41.7V239z M1229,239h-3.7v-35.2h3.7V239z M1222.3,239h-5.2v-35.2h5.2V239z M1214.1,239
	h-5.2v-35.2h5.2V239z M1205.9,239h-6.7v-35.2h6.7V239z M1196.3,239h-8.9v-35.2h8.9V239z M1184.4,239h-11.5v-35.2h11.5V239z
	 M1169.9,239h-16.1v-35.2h16.1V239z M1150.9,239h-23.1v-35.2h23.1V239z M1124.8,239h-41.7v-35.2h41.7V239z M1080.2,239h-3.7v-35.2
	h3.7V239z M1073.5,239h-5.2v-35.2h5.2V239z M1065.3,239h-5.2v-35.2h5.2V239z M1057.1,239h-6.7v-35.2h6.7V239z M1047.5,239h-8.9
	v-35.2h8.9V239z M1035.6,239h-11.9v-35.2h11.9V239z M1020.7,239H1005v-35.2h15.6L1020.7,239L1020.7,239z M1002.1,239H979v-35.2h23.1
	V239z M976,239h-41.7v-35.2H976V239z M931.4,239h-3.7v-35.2h3.7V239z M924.7,239h-5.2v-35.2h5.2V239z M916.5,239h-5.2v-35.2h5.2V239
	z M908.3,239h-6.7v-35.2h6.7V239z M898.6,239h-8.9v-35.2h8.9V239z M886.7,239h-11.9v-35.2h11.9V239z M874.8,242h11.9v35.2h-11.9V242
	z M889.7,242h8.9v35.2h-8.9V242z M901.6,242h6.7v35.2h-6.7V242z M911.3,242h5.2v35.2h-5.2V242z M919.5,242h5.2v35.2h-5.2V242z
	 M927.7,242h3.7v35.2h-3.7V242z M934.4,242H976v35.2h-41.7V242H934.4z M979,242h23.1v35.2H979V242z M1005,242h15.6v35.2H1005V242z
	 M1023.6,242h11.9v35.2h-11.9V242z M1038.5,242h8.9v35.2h-8.9V242z M1050.4,242h6.7v35.2h-6.7V242z M1060.1,242h5.2v35.2h-5.2V242z
	 M1068.3,242h5.2v35.2h-5.2V242z M1076.5,242h3.7v35.2h-3.7V242z M1083.2,242h41.7v35.2h-41.7V242z M1127.8,242h23.1v35.2h-23.1V242
	z M1153.9,242h16.1v35.2h-16.1V242z M1172.9,242h11.5v35.2h-11.5V242z M1187.3,242h8.9v35.2h-8.9V242z M1199.3,242h6.7v35.2h-6.7
	V242z M1208.9,242h5.2v35.2h-5.2V242z M1217.1,242h5.2v35.2h-5.2V242z M1225.3,242h3.7v35.2h-3.7V242z M1232,242h41.7v35.2H1232V242
	z M1276.6,242h23.1v35.2h-23.1V242z M1302.7,242h15.6v35.2h-15.6V242z M1321.3,242h11.9v35.2h-11.9V242z M1336.2,242h8.9v35.2h-8.9
	V242z M1336.2,239v-35.2h8.9V239H1336.2z M1336.2,202.8v-35.2h8.9v35.2H1336.2z M1333.2,202.8h-11.9v-35.2h11.9V202.8z
	 M1318.3,202.8h-15.6v-35.2h15.6V202.8z M1299.7,202.8h-23.1v-35.2h23.1V202.8z M1273.7,202.8H1232v-35.2h41.7V202.8z M1229,202.8
	h-3.7v-35.2h3.7V202.8z M1222.3,202.8h-5.2v-35.2h5.2V202.8z M1214.1,202.8h-5.2v-35.2h5.2V202.8z M1205.9,202.8h-6.7v-35.2h6.7
	V202.8z M1196.3,202.8h-8.9v-35.2h8.9V202.8z M1184.4,202.8h-11.5v-35.2h11.5V202.8z M1169.9,202.8h-16.1v-35.2h16.1V202.8z
	 M1150.9,202.8h-23.1v-35.2h23.1V202.8z M1124.8,202.8h-41.7v-35.2h41.7V202.8z M1080.2,202.8h-3.7v-35.2h3.7V202.8z M1073.5,202.8
	h-5.2v-35.2h5.2V202.8z M1065.3,202.8h-5.2v-35.2h5.2V202.8z M1057.1,202.8h-6.7v-35.2h6.7V202.8z M1047.5,202.8h-8.9v-35.2h8.9
	V202.8z M1035.6,202.8h-11.9v-35.2h11.9V202.8z M1020.7,202.8H1005v-35.2h15.6L1020.7,202.8L1020.7,202.8z M1002.1,202.8H979v-35.2
	h23.1V202.8z M976,202.8h-41.7v-35.2H976V202.8z M931.4,202.8h-3.7v-35.2h3.7V202.8z M924.7,202.8h-5.2v-35.2h5.2V202.8z
	 M916.5,202.8h-5.2v-35.2h5.2V202.8z M908.3,202.8h-6.7v-35.2h6.7V202.8z M898.6,202.8h-8.9v-35.2h8.9V202.8z M886.7,202.8h-11.9
	v-35.2h11.9V202.8z M871.9,202.8h-15.6v-35.2h15.6V202.8z M871.9,203.8V239h-15.6v-35.2H871.9z M871.9,242v35.2h-15.6V242H871.9z
	 M871.9,278.2v35.2h-15.6v-35.2H871.9z M874.8,278.2h11.9v35.2h-11.9V278.2z M889.7,278.2h8.9v35.2h-8.9V278.2z M901.6,278.2h6.7
	v35.2h-6.7V278.2z M911.3,278.2h5.2v35.2h-5.2V278.2z M919.5,278.2h5.2v35.2h-5.2V278.2z M927.7,278.2h3.7v35.2h-3.7V278.2z
	 M934.4,278.2H976v35.2h-41.7v-35.2H934.4z M979,278.2h23.1v35.2H979V278.2z M1005,278.2h15.6v35.2H1005V278.2z M1023.6,278.2h11.9
	v35.2h-11.9V278.2z M1038.5,278.2h8.9v35.2h-8.9V278.2z M1050.4,278.2h6.7v35.2h-6.7V278.2z M1060.1,278.2h5.2v35.2h-5.2V278.2z
	 M1068.3,278.2h5.2v35.2h-5.2V278.2z M1076.5,278.2h3.7v35.2h-3.7V278.2z M1083.2,278.2h41.7v35.2h-41.7V278.2z M1127.8,278.2h23.1
	v35.2h-23.1V278.2z M1153.9,278.2h16.1v35.2h-16.1V278.2z M1172.9,278.2h11.5v35.2h-11.5V278.2z M1187.3,278.2h8.9v35.2h-8.9V278.2z
	 M1199.3,278.2h6.7v35.2h-6.7V278.2z M1208.9,278.2h5.2v35.2h-5.2V278.2z M1217.1,278.2h5.2v35.2h-5.2V278.2z M1225.3,278.2h3.7
	v35.2h-3.7V278.2z M1232,278.2h41.7v35.2H1232V278.2z M1276.6,278.2h23.1v35.2h-23.1V278.2z M1302.7,278.2h15.6v35.2h-15.6V278.2z
	 M1321.3,278.2h11.9v35.2h-11.9V278.2z M1336.2,278.2h8.9v35.2h-8.9V278.2z M1348.1,278.2h6.7v35.2h-6.7V278.2z M1348.1,277.2V242
	h6.7v35.2H1348.1z M1348.1,239v-35.2h6.7V239H1348.1z M1348.1,202.8v-35.2h6.7v35.2H1348.1z M1348.1,164.6v-35.2h6.7v35.2H1348.1z
	 M1345.1,164.6h-8.9v-35.2h8.9V164.6z M1333.2,164.6h-11.9v-35.2h11.9V164.6z M1318.3,164.6h-15.6v-35.2h15.6V164.6z M1299.7,164.6
	h-23.1v-35.2h23.1V164.6z M1273.7,164.6H1232v-35.2h41.7V164.6z M1229,164.6h-3.7v-35.2h3.7V164.6z M1222.3,164.6h-5.2v-35.2h5.2
	V164.6z M1214.1,164.6h-5.2v-35.2h5.2V164.6z M1205.9,164.6h-6.7v-35.2h6.7V164.6z M1196.3,164.6h-8.9v-35.2h8.9V164.6z
	 M1184.4,164.6h-11.5v-35.2h11.5V164.6z M1169.9,164.6h-16.1v-35.2h16.1V164.6z M1150.9,164.6h-23.1v-35.2h23.1V164.6z
	 M1124.8,164.6h-41.7v-35.2h41.7V164.6z M1080.2,164.6h-3.7v-35.2h3.7V164.6z M1073.5,164.6h-5.2v-35.2h5.2V164.6z M1065.3,164.6
	h-5.2v-35.2h5.2V164.6z M1057.1,164.6h-6.7v-35.2h6.7V164.6z M1047.5,164.6h-8.9v-35.2h8.9V164.6z M1035.6,164.6h-11.9v-35.2h11.9
	V164.6z M1020.7,164.6H1005v-35.2h15.6L1020.7,164.6L1020.7,164.6z M1002.1,164.6H979v-35.2h23.1V164.6z M976,164.6h-41.7v-35.2H976
	V164.6z M931.4,164.6h-3.7v-35.2h3.7V164.6z M924.7,164.6h-5.2v-35.2h5.2V164.6z M916.5,164.6h-5.2v-35.2h5.2V164.6z M908.3,164.6
	h-6.7v-35.2h6.7V164.6z M898.6,164.6h-8.9v-35.2h8.9V164.6z M886.7,164.6h-11.9v-35.2h11.9V164.6z M871.9,164.6h-15.6v-35.2h15.6
	V164.6z M856.2,316.4h15.6v35.2h-15.6V316.4z M874.8,316.4h11.9v35.2h-11.9V316.4z M889.7,316.4h8.9v35.2h-8.9V316.4z M901.6,316.4
	h6.7v35.2h-6.7V316.4z M911.3,316.4h5.2v35.2h-5.2V316.4z M919.5,316.4h5.2v35.2h-5.2V316.4z M927.7,316.4h3.7v35.2h-3.7V316.4z
	 M934.4,316.4H976v35.2h-41.7v-35.2H934.4z M979,316.4h23.1v35.2H979V316.4z M1005,316.4h15.6v35.2H1005V316.4z M1023.6,316.4h11.9
	v35.2h-11.9V316.4z M1038.5,316.4h8.9v35.2h-8.9V316.4z M1050.4,316.4h6.7v35.2h-6.7V316.4z M1060.1,316.4h5.2v35.2h-5.2V316.4z
	 M1068.3,316.4h5.2v35.2h-5.2V316.4z M1076.5,316.4h3.7v35.2h-3.7V316.4z M1083.2,316.4h41.7v35.2h-41.7V316.4z M1127.8,316.4h23.1
	v35.2h-23.1V316.4z M1153.9,316.4h16.1v35.2h-16.1V316.4z M1172.9,316.4h11.5v35.2h-11.5V316.4z M1187.3,316.4h8.9v35.2h-8.9V316.4z
	 M1199.3,316.4h6.7v35.2h-6.7V316.4z M1208.9,316.4h5.2v35.2h-5.2V316.4z M1217.1,316.4h5.2v35.2h-5.2V316.4z M1225.3,316.4h3.7
	v35.2h-3.7V316.4z M1232,316.4h41.7v35.2H1232V316.4z M1276.6,316.4h23.1v35.2h-23.1V316.4z M1302.7,316.4h15.6v35.2h-15.6V316.4z
	 M1321.3,316.4h11.9v35.2h-11.9V316.4z M1336.2,316.4h8.9v35.2h-8.9V316.4z M1348.1,316.4h6.7v35.2h-6.7V316.4z M1357.7,316.4h5.2
	v35.2h-5.2V316.4z M1357.7,313.4v-35.2h5.2v35.2H1357.7z M1357.7,277.2V242h5.2v35.2H1357.7z M1357.7,239v-35.2h5.2V239H1357.7z
	 M1357.7,202.8v-35.2h5.2v35.2H1357.7z M1357.7,164.6v-35.2h5.2v35.2H1357.7z M1357.7,128.4V93.2h5.2v35.2H1357.7z M1354.8,128.4
	h-6.7V93.2h6.7V128.4z M1345.1,128.4h-8.9V93.2h8.9V128.4z M1333.2,128.4h-11.9V93.2h11.9V128.4z M1318.3,128.4h-15.6V93.2h15.6
	V128.4z M1299.7,128.4h-23.1V93.2h23.1V128.4z M1273.7,128.4H1232V93.2h41.7V128.4z M1229,128.4h-3.7V93.2h3.7V128.4z M1222.3,128.4
	h-5.2V93.2h5.2V128.4z M1214.1,128.4h-5.2V93.2h5.2V128.4z M1205.9,128.4h-6.7V93.2h6.7V128.4z M1196.3,128.4h-8.9V93.2h8.9V128.4z
	 M1184.4,128.4h-11.5V93.2h11.5V128.4z M1169.9,128.4h-16.1V93.2h16.1V128.4z M1150.9,128.4h-23.1V93.2h23.1V128.4z M1124.8,128.4
	h-41.7V93.2h41.7V128.4z M1080.2,128.4h-3.7V93.2h3.7V128.4z M1073.5,128.4h-5.2V93.2h5.2V128.4z M1065.3,128.4h-5.2V93.2h5.2V128.4
	z M1057.1,128.4h-6.7V93.2h6.7V128.4z M1047.5,128.4h-8.9V93.2h8.9V128.4z M1035.6,128.4h-11.9V93.2h11.9V128.4z M1020.7,128.4H1005
	V93.2h15.6L1020.7,128.4L1020.7,128.4z M1002.1,128.4H979V93.2h23.1V128.4z M976,128.4h-41.7V93.2H976V128.4z M931.4,128.4h-3.7
	V93.2h3.7V128.4z M924.7,128.4h-5.2V93.2h5.2V128.4z M916.5,128.4h-5.2V93.2h5.2V128.4z M908.3,128.4h-6.7V93.2h6.7V128.4z
	 M898.6,128.4h-8.9V93.2h8.9V128.4z M886.7,128.4h-11.9V93.2h11.9V128.4z M871.9,128.4h-15.6V93.2h15.6V128.4z M856.2,352.6h15.6
	v35.2h-15.6V352.6z M874.8,352.6h11.9v35.2h-11.9V352.6z M889.7,352.6h8.9v35.2h-8.9V352.6z M901.6,352.6h6.7v35.2h-6.7V352.6z
	 M911.3,352.6h5.2v35.2h-5.2V352.6z M919.5,352.6h5.2v35.2h-5.2V352.6z M927.7,352.6h3.7v35.2h-3.7V352.6z M934.4,352.6H976v35.2
	h-41.7v-35.2H934.4z M979,352.6h23.1v35.2H979V352.6z M1005,352.6h15.6v35.2H1005V352.6z M1023.6,352.6h11.9v35.2h-11.9V352.6z
	 M1038.5,352.6h8.9v35.2h-8.9V352.6z M1050.4,352.6h6.7v35.2h-6.7V352.6z M1060.1,352.6h5.2v35.2h-5.2V352.6z M1068.3,352.6h5.2
	v35.2h-5.2V352.6z M1076.5,352.6h3.7v35.2h-3.7V352.6z M1083.2,352.6h41.7v35.2h-41.7V352.6z M1127.8,352.6h23.1v35.2h-23.1V352.6z
	 M1153.9,352.6h16.1v35.2h-16.1V352.6z M1172.9,352.6h11.5v35.2h-11.5V352.6z M1187.3,352.6h8.9v35.2h-8.9V352.6z M1199.3,352.6h6.7
	v35.2h-6.7V352.6z M1208.9,352.6h5.2v35.2h-5.2V352.6z M1217.1,352.6h5.2v35.2h-5.2V352.6z M1225.3,352.6h3.7v35.2h-3.7V352.6z
	 M1232,352.6h41.7v35.2H1232V352.6z M1276.6,352.6h23.1v35.2h-23.1V352.6z M1302.7,352.6h15.6v35.2h-15.6V352.6z M1321.3,352.6h11.9
	v35.2h-11.9V352.6z M1336.2,352.6h8.9v35.2h-8.9V352.6z M1348.1,352.6h6.7v35.2h-6.7V352.6z M1357.7,352.6h5.2v35.2h-5.2V352.6z
	 M1365.9,352.6h5.2v35.2h-5.2V352.6z M1365.9,351.6v-35.2h5.2v35.2H1365.9z M1365.9,313.4v-35.2h5.2v35.2H1365.9z M1365.9,277.2V242
	h5.2v35.2H1365.9z M1365.9,239v-35.2h5.2V239H1365.9z M1365.9,202.8v-35.2h5.2v35.2H1365.9z M1365.9,164.6v-35.2h5.2v35.2H1365.9z
	 M1365.9,128.4V93.2h5.2v35.2H1365.9z M1365.9,90.2V55h5.2v35.2H1365.9z M1363,90.2h-5.2V55h5.2V90.2z M1354.8,90.2h-6.7V55h6.7
	V90.2z M1345.1,90.2h-8.9V55h8.9V90.2z M1333.2,90.2h-11.9V55h11.9V90.2z M1318.3,90.2h-15.6V55h15.6V90.2z M1299.7,90.2h-23.1V55
	h23.1V90.2z M1273.7,90.2H1232V55h41.7V90.2z M1229,90.2h-3.7V55h3.7V90.2z M1222.3,90.2h-5.2V55h5.2V90.2z M1214.1,90.2h-5.2V55
	h5.2V90.2z M1205.9,90.2h-6.7V55h6.7V90.2z M1196.3,90.2h-8.9V55h8.9V90.2z M1184.4,90.2h-11.5V55h11.5V90.2z M1169.9,90.2h-16.1V55
	h16.1V90.2z M1150.9,90.2h-23.1V55h23.1V90.2z M1124.8,90.2h-41.7V55h41.7V90.2z M1080.2,90.2h-3.7V55h3.7V90.2z M1073.5,90.2h-5.2
	V55h5.2V90.2z M1065.3,90.2h-5.2V55h5.2V90.2z M1057.1,90.2h-6.7V55h6.7V90.2z M1047.5,90.2h-8.9V55h8.9V90.2z M1035.6,90.2h-11.9
	V55h11.9V90.2z M1020.7,90.2H1005V55h15.6L1020.7,90.2L1020.7,90.2z M1002.1,90.2H979V55h23.1V90.2z M976,90.2h-41.7V55H976V90.2z
	 M931.4,90.2h-3.7V55h3.7V90.2z M924.7,90.2h-5.2V55h5.2V90.2z M916.5,90.2h-5.2V55h5.2V90.2z M908.3,90.2h-6.7V55h6.7V90.2z
	 M898.6,90.2h-8.9V55h8.9V90.2z M886.7,90.2h-11.9V55h11.9V90.2z M871.9,90.2h-15.6V55h15.6V90.2z M853.2,90.2h-23.1V55h23.1V90.2z
	 M853.2,93.2v35.2h-23.1V93.2H853.2z M853.2,129.4v35.2h-23.1v-35.2H853.2z M853.2,167.6v35.2h-23.1v-35.2H853.2z M853.2,203.8V239
	h-23.1v-35.2H853.2z M853.2,242v35.2h-23.1V242H853.2z M853.2,278.2v35.2h-23.1v-35.2H853.2z M853.2,316.4v35.2h-23.1v-35.2H853.2z
	 M853.2,352.6v35.2h-23.1v-35.2H853.2z M853.2,390.8V426h-23.1v-35.2H853.2z M856.2,390.8h15.6V426h-15.6V390.8z M874.8,390.8h11.9
	V426h-11.9V390.8z M889.7,390.8h8.9V426h-8.9V390.8z M901.6,390.8h6.7V426h-6.7V390.8z M911.3,390.8h5.2V426h-5.2V390.8z
	 M919.5,390.8h5.2V426h-5.2V390.8z M927.7,390.8h3.7V426h-3.7V390.8z M934.4,390.8H976V426h-41.7v-35.2H934.4z M979,390.8h23.1V426
	H979V390.8z M1005,390.8h15.6V426H1005V390.8z M1023.6,390.8h11.9V426h-11.9V390.8z M1038.5,390.8h8.9V426h-8.9V390.8z
	 M1050.4,390.8h6.7V426h-6.7V390.8z M1060.1,390.8h5.2V426h-5.2V390.8z M1068.3,390.8h5.2V426h-5.2V390.8z M1076.5,390.8h3.7V426
	h-3.7V390.8z M1083.2,390.8h41.7V426h-41.7V390.8z M1127.8,390.8h23.1V426h-23.1V390.8z M1153.9,390.8h16.1V426h-16.1V390.8z
	 M1172.9,390.8h11.5V426h-11.5V390.8z M1187.3,390.8h8.9V426h-8.9V390.8z M1199.3,390.8h6.7V426h-6.7V390.8z M1208.9,390.8h5.2V426
	h-5.2V390.8z M1217.1,390.8h5.2V426h-5.2V390.8z M1225.3,390.8h3.7V426h-3.7V390.8z M1232,390.8h41.7V426H1232V390.8z M1276.6,390.8
	h23.1V426h-23.1V390.8z M1302.7,390.8h15.6V426h-15.6V390.8z M1321.3,390.8h11.9V426h-11.9V390.8z M1336.2,390.8h8.9V426h-8.9V390.8
	z M1348.1,390.8h6.7V426h-6.7V390.8z M1357.7,390.8h5.2V426h-5.2V390.8z M1365.9,390.8h5.2V426h-5.2V390.8z M1374.1,390.8h3.7V426
	h-3.7V390.8z M1374.1,387.8v-35.2h3.7v35.2H1374.1z M1374.1,351.6v-35.2h3.7v35.2H1374.1z M1374.1,313.4v-35.2h3.7v35.2H1374.1z
	 M1374.1,277.2V242h3.7v35.2H1374.1z M1374.1,239v-35.2h3.7V239H1374.1z M1374.1,202.8v-35.2h3.7v35.2H1374.1z M1374.1,164.6v-35.2
	h3.7v35.2H1374.1z M1374.1,128.4V93.2h3.7v35.2H1374.1z M1374.1,90.2V55h3.7v35.2H1374.1z M1371.1,54h-5.2V18.8h5.2V54z M1363,54
	h-5.2V18.8h5.2V54z M1354.8,54h-6.7V18.8h6.7V54z M1345.1,54h-8.9V18.8h8.9V54z M1333.2,54h-11.9V18.8h11.9V54z M1318.3,54h-15.6
	V18.8h15.6V54z M1299.7,54h-23.1V18.8h23.1V54z M1273.7,54H1232V18.8h41.7V54z M1229,54h-3.7V18.8h3.7V54z M1222.3,54h-5.2V18.8h5.2
	V54z M1214.1,54h-5.2V18.8h5.2V54z M1205.9,54h-6.7V18.8h6.7V54z M1196.3,54h-8.9V18.8h8.9V54z M1184.4,54h-11.5V18.8h11.5V54z
	 M1169.9,54h-16.1V18.8h16.1V54z M1150.9,54h-23.1V18.8h23.1V54z M1124.8,54h-41.7V18.8h41.7V54z M1080.2,54h-3.7V18.8h3.7V54z
	 M1073.5,54h-5.2V18.8h5.2V54z M1065.3,54h-5.2V18.8h5.2V54z M1057.1,54h-6.7V18.8h6.7V54z M1047.5,54h-8.9V18.8h8.9V54z M1035.6,54
	h-11.9V18.8h11.9V54z M1020.7,54H1005V18.8h15.6L1020.7,54L1020.7,54z M1002.1,54H979V18.8h23.1V54z M976,54h-41.7V18.8H976V54z
	 M931.4,54h-3.7V18.8h3.7V54z M924.7,54h-5.2V18.8h5.2V54z M916.5,54h-5.2V18.8h5.2V54z M908.3,54h-6.7V18.8h6.7V54z M898.6,54h-8.9
	V18.8h8.9V54z M886.7,54h-11.9V18.8h11.9V54z M871.9,54h-15.6V18.8h15.6V54z M853.2,54h-23.1V18.8h23.1V54z M830.2,427h23.1v35.2
	h-23.1V427z M856.2,427h15.6v35.2h-15.6V427z M874.8,427h11.9v35.2h-11.9V427z M889.7,427h8.9v35.2h-8.9V427z M901.6,427h6.7v35.2
	h-6.7V427z M911.3,427h5.2v35.2h-5.2V427z M919.5,427h5.2v35.2h-5.2V427z M927.7,427h3.7v35.2h-3.7V427z M934.4,427H976v35.2h-41.7
	V427H934.4z M979,427h23.1v35.2H979V427z M1005,427h15.6v35.2H1005V427z M1023.6,427h11.9v35.2h-11.9V427z M1038.5,427h8.9v35.2
	h-8.9V427z M1050.4,427h6.7v35.2h-6.7V427z M1060.1,427h5.2v35.2h-5.2V427z M1068.3,427h5.2v35.2h-5.2V427z M1076.5,427h3.7v35.2
	h-3.7V427z M1083.2,427h41.7v35.2h-41.7V427z M1127.8,427h23.1v35.2h-23.1V427z M1153.9,427h16.1v35.2h-16.1V427z M1172.9,427h11.5
	v35.2h-11.5V427z M1187.3,427h8.9v35.2h-8.9V427z M1199.3,427h6.7v35.2h-6.7V427z M1208.9,427h5.2v35.2h-5.2V427z M1217.1,427h5.2
	v35.2h-5.2V427z M1225.3,427h3.7v35.2h-3.7V427z M1232,427h41.7v35.2H1232V427z M1276.6,427h23.1v35.2h-23.1V427z M1302.7,427h15.6
	v35.2h-15.6V427z M1321.3,427h11.9v35.2h-11.9V427z M1336.2,427h8.9v35.2h-8.9V427z M1348.1,427h6.7v35.2h-6.7V427z M1357.7,427h5.2
	v35.2h-5.2V427z M1365.9,427h5.2v35.2h-5.2V427z M1374.1,427h3.7v35.2h-3.7V427z M830.2,500.4v-35.2h23.1v35.2H830.2z M856.2,500.4
	v-35.2h15.6v35.2H856.2z M874.8,500.4v-35.2h11.9v35.2H874.8z M889.7,500.4v-35.2h8.9v35.2H889.7z M901.6,500.4v-35.2h6.7v35.2
	H901.6z M911.3,500.4v-35.2h5.2v35.2H911.3z M919.5,500.4v-35.2h5.2v35.2H919.5z M927.7,500.4v-35.2h3.7v35.2H927.7z M934.4,500.4
	v-35.2H976v35.2H934.4z M979,500.4v-35.2h23.1v35.2H979z M1005,500.4v-35.2h15.6v35.2H1005z M1023.6,500.4v-35.2h11.9v35.2H1023.6z
	 M1038.5,500.4v-35.2h8.9v35.2H1038.5z M1050.4,500.4v-35.2h6.7v35.2H1050.4z M1060.1,500.4v-35.2h5.2v35.2H1060.1z M1068.3,500.4
	v-35.2h5.2v35.2H1068.3z M1076.5,500.4v-35.2h3.7v35.2H1076.5z M1083.2,500.4v-35.2h41.7v35.2H1083.2z M1127.8,500.4v-35.2h23.1
	v35.2H1127.8z M1153.9,500.4v-35.2h16.1v35.2H1153.9z M1172.9,500.4v-35.2h11.5v35.2H1172.9z M1187.3,500.4v-35.2h8.9v35.2H1187.3z
	 M1199.3,500.4v-35.2h6.7v35.2H1199.3z M1208.9,500.4v-35.2h5.2v35.2H1208.9z M1217.1,500.4v-35.2h5.2v35.2H1217.1z M1225.3,500.4
	v-35.2h3.7v35.2H1225.3z M1232,500.4v-35.2h41.7v35.2H1232z M1276.6,500.4v-35.2h23.1v35.2H1276.6z M1302.7,500.4v-35.2h15.6v35.2
	H1302.7z M1321.3,500.4v-35.2h11.9v35.2H1321.3z M1336.2,500.4v-35.2h8.9v35.2H1336.2z M1348.1,500.4v-35.2h6.7v35.2H1348.1z
	 M1357.7,500.4v-35.2h5.2v35.2H1357.7z M1365.9,500.4v-35.2h5.2v35.2H1365.9z M1374.1,500.4v-35.2h3.7v35.2H1374.1z"/>
<polygon id="Axis_1_" class="st0" points="785.9,536.3 785.9,17.3 782.2,17.3 782.2,538.1 784,538.1 784,540 1379.3,540 
	1379.3,536.3 "/>
<g id="g2183_1_" transform="matrix(7.4409448e-2,0,0,7.4409448e-2,-323.47581,-351.05176)">
	<path id="path2185_1_" class="st1" d="M15834.9,11906.1l53-183l24,7l24,7l-53,183l-24-7L15834.9,11906.1z"/>
	<path id="path2187_1_" class="st1" d="M15911.9,11730.1l-24-7l1-1L15911.9,11730.1z"/>
	<path id="path2189_1_" class="st1" d="M15888.9,11722.1l44-137l24,8l24,8l-45,137l-24-8L15888.9,11722.1z"/>
	<path id="path2191_1_" class="st1" d="M15956.9,11593.1l-24-8l1-1L15956.9,11593.1z"/>
	<path id="path2193_1_" class="st1" d="M15933.9,11584.1l47-121l23,9l24,9l-48,121l-23-9L15933.9,11584.1z"/>
	<path id="path2195_1_" class="st1" d="M16003.9,11472l-23-9v-1L16003.9,11472z"/>
	<path id="path2197_1_" class="st1" d="M15980.9,11462l61-137l23,10l23,10l-61,137l-23-10L15980.9,11462z"/>
	<path id="path2199_1_" class="st1" d="M16064.9,11335l23,9v1L16064.9,11335z"/>
	<path id="path2201_1_" class="st1" d="M16041.9,11326l47-115l23,10l23,9l-47,114l-23-9L16041.9,11326z"/>
	<path id="path2203_1_" class="st1" d="M16111.9,11221l23,8v1L16111.9,11221z"/>
	<path id="path2205_1_" class="st1" d="M16087.9,11212l73-192l24,8l23,9l-73,192l-23-8L16087.9,11212z"/>
	<path id="path2207_1_" class="st1" d="M16184.9,11028l23,9l0,0L16184.9,11028z"/>
	<path id="path2209_1_" class="st1" d="M16160.9,11020l189-514l23,8l24,9l-189,514l-23-9L16160.9,11020z"/>
	<path id="path2211_1_" class="st1" d="M16372.9,10514l24,9l0,0L16372.9,10514z"/>
	<path id="path2213_1_" class="st1" d="M16349.9,10506l189-518l24,9l23,9l-189,517l-24-9L16349.9,10506z"/>
	<path id="path2215_1_" class="st1" d="M16562.9,9997l-24-9l0,0L16562.9,9997z"/>
	<path id="path2217_1_" class="st1" d="M16538.9,9988l74-195l23,8l24,9l-74,196l-23-9L16538.9,9988z"/>
	<path id="path2219_1_" class="st1" d="M16635.9,9801l-23-8v-1L16635.9,9801z"/>
	<path id="path2221_1_" class="st1" d="M16612.9,9792l49-119l23,9l23,9l-48,120l-24-10L16612.9,9792z"/>
	<path id="path2223_1_" class="st1" d="M16684.9,9682l-23-9v-1L16684.9,9682z"/>
	<path id="path2225_1_" class="st1" d="M16661.9,9672l25-59l23,9l23,10l-25,60l-23-10L16661.9,9672z"/>
	<path id="path2227_1_" class="st1" d="M16709.9,9622l24,9l-1,1L16709.9,9622z"/>
	<path id="path2229_1_" class="st1" d="M16686.9,9613l25-63l23,9l24,9l-25,63l-24-9L16686.9,9613z"/>
	<path id="path2231_1_" class="st1" d="M16734.9,9559l24,8v1L16734.9,9559z"/>
	<path id="path2233_1_" class="st1" d="M16711.9,9550l48-135l23,8l24,9l-48,135l-24-8L16711.9,9550z"/>
	<path id="path2235_1_" class="st1" d="M16782.9,9423l24,9l0,0L16782.9,9423z"/>
	<path id="path2237_1_" class="st1" d="M16759.9,9415l47-137l24,8l23,9l-47,137l-24-9L16759.9,9415z"/>
	<path id="path2239_1_" class="st1" d="M16830.9,9286l-24-8l0,0L16830.9,9286z"/>
	<path id="path2241_1_" class="st1" d="M16806.9,9278l48-129l23,9l23,9l-47,128l-23-9L16806.9,9278z"/>
	<path id="path2243_1_" class="st1" d="M16877.9,9158l-23-9v-1L16877.9,9158z"/>
	<path id="path2245_1_" class="st1" d="M16854.9,9148l44-98l23,11l22,10l-43,97l-23-10L16854.9,9148z"/>
	<path id="path2247_1_" class="st1" d="M16921.9,9061l-23-11l0,0L16921.9,9061z"/>
	<path id="path2249_1_" class="st1" d="M16898.9,9050l65-130l22,11l23,11l-65,130l-22-11L16898.9,9050z"/>
	<path id="path2251_1_" class="st1" d="M16985.9,8931l-22-11v-1L16985.9,8931z"/>
	<path id="path2253_1_" class="st1" d="M16963.9,8919l167-316l23,11l22,12l-168,316l-22-11L16963.9,8919z"/>
	<path id="path2255_1_" class="st1" d="M17153.9,8614l-23-11l1-1L17153.9,8614z"/>
	<path id="path2257_1_" class="st1" d="M17131.9,8602l317-572l22,12l22,12l-318,572l-21-12L17131.9,8602z"/>
	<path id="path2259_1_" class="st1" d="M17470.9,8042l-22-12v-1L17470.9,8042z"/>
	<path id="path2261_1_" class="st1" d="M17448.9,8029l107-181l21,13l22,12l-106,182l-22-13L17448.9,8029z"/>
	<path id="path2263_1_" class="st1" d="M17576.9,7861l-21-13v-1L17576.9,7861z"/>
	<path id="path2265_1_" class="st1" d="M17555.9,7847l145-225l21,14l21,13l-145,225l-21-13L17555.9,7847z"/>
	<path id="path2267_1_" class="st1" d="M17721.9,7636l-21-14l1-1L17721.9,7636z"/>
	<path id="path2269_1_" class="st1" d="M17701.9,7621l83-115l20,14l21,15l-83,115l-21-14L17701.9,7621z"/>
	<path id="path2271_1_" class="st1" d="M17804.9,7520l-20-14l1-1L17804.9,7520z"/>
	<path id="path2273_1_" class="st1" d="M17785.9,7505l88-110l19,15l20,16l-88,110l-20-16L17785.9,7505z"/>
	<path id="path2275_1_" class="st1" d="M17892.9,7410l-19-15l1-2L17892.9,7410z"/>
	<path id="path2277_1_" class="st1" d="M17874.9,7393l91-99l18,17l19,17l-91,99l-19-17L17874.9,7393z"/>
	<path id="path2279_1_" class="st1" d="M17983.9,7311l-18-17l1-1L17983.9,7311z"/>
	<path id="path2281_1_" class="st1" d="M17966.9,7293l46-43l18,18l17,18l-47,44l-17-19L17966.9,7293z"/>
	<path id="path2283_1_" class="st1" d="M18030.9,7268l-18-18l2-1L18030.9,7268z"/>
	<path id="path2285_1_" class="st1" d="M18014.9,7249l46-39l16,19l16,19l-46,39l-16-19L18014.9,7249z"/>
	<path id="path2287_1_" class="st1" d="M18076.9,7229l-16-19l1-1L18076.9,7229z"/>
	<path id="path2289_1_" class="st1" d="M18061.9,7209l79-59l15,20l15,20l-79,59l-15-20L18061.9,7209z"/>
	<path id="path2291_1_" class="st1" d="M18155.9,7170l-15-20l1-1L18155.9,7170z"/>
	<path id="path2293_1_" class="st1" d="M18141.9,7149l80-53l14,20l14,21l-80,54l-14-21L18141.9,7149z"/>
	<path id="path2295_1_" class="st1" d="M18235.9,7116l-14-20l1-1L18235.9,7116z"/>
	<path id="path2297_1_" class="st1" d="M18222.9,7095l78-48l13,22l13,21l-79,48l-12-22L18222.9,7095z"/>
	<path id="path2299_1_" class="st1" d="M18313.9,7069l-13-22h2L18313.9,7069z"/>
	<path id="path2301_1_" class="st1" d="M18302.9,7047l77-41l12,22l12,22l-78,41l-12-22L18302.9,7047z"/>
	<path id="path2303_1_" class="st1" d="M18391.9,7028l-12-22l2-1L18391.9,7028z"/>
	<path id="path2305_1_" class="st1" d="M18381.9,7005l76-34l10,23l11,22l-77,35l-10-23L18381.9,7005z"/>
	<path id="path2307_1_" class="st1" d="M18467.9,6994l-10-23l2-1L18467.9,6994z"/>
	<path id="path2309_1_" class="st1" d="M18459.9,6970l75-26l8,23l8,24l-74,26l-9-23L18459.9,6970z"/>
	<path id="path2311_1_" class="st1" d="M18542.9,6967l-8-23l2-1L18542.9,6967z"/>
	<path id="path2313_1_" class="st1" d="M18536.9,6943l72-18l6,24l6,24l-72,18l-6-24L18536.9,6943z"/>
	<path id="path2315_1_" class="st1" d="M18614.9,6949l-6-24l2-1L18614.9,6949z"/>
	<path id="path2317_1_" class="st1" d="M18610.9,6924l35-6l4,25l4,24l-35,6l-4-24L18610.9,6924z"/>
	<path id="path2319_1_" class="st1" d="M18649.9,6943l-4-25h1L18649.9,6943z"/>
	<path id="path2321_1_" class="st1" d="M18646.9,6918l34-4l3,25l3,25l-34,4l-3-25L18646.9,6918z"/>
	<path id="path2323_1_" class="st1" d="M18683.9,6939l5,24l-2,1L18683.9,6939z"/>
	<path id="path2325_1_" class="st1" d="M18678.9,6915L18678.9,6915l5,24l5,24l0,0l-5-24L18678.9,6915z"/>
	<path id="path2327_1_" class="st1" d="M18683.9,6939l-5-24l0,0L18683.9,6939z"/>
	<path id="path2329_1_" class="st1" d="M18678.9,6915L18678.9,6915l5,24l5,24l0,0l-5-24L18678.9,6915z"/>
	<path id="path2331_1_" class="st1" d="M18683.9,6939l-5-24l0,0L18683.9,6939z"/>
	<path id="path2333_1_" class="st1" d="M18678.9,6915L18678.9,6915l5,24l5,24l0,0l-5-24L18678.9,6915z"/>
	<path id="path2335_1_" class="st1" d="M18683.9,6939l-5-24l0,0L18683.9,6939z"/>
	<path id="path2337_1_" class="st1" d="M18678.9,6915L18678.9,6915l5,24l5,24l0,0l-5-24L18678.9,6915z"/>
	<path id="path2339_1_" class="st1" d="M18683.9,6939l-5-24l0,0L18683.9,6939z"/>
	<path id="path2341_1_" class="st1" d="M18678.9,6915v-1l5,25l6,24h-1l-5-24L18678.9,6915z"/>
	<path id="path2343_1_" class="st1" d="M18683.9,6939l-5-25l0,0L18683.9,6939z"/>
	<path id="path2345_1_" class="st1" d="M18678.9,6914h1l6,25l5,24h-2l-5-24L18678.9,6914z"/>
	<path id="path2347_1_" class="st1" d="M18685.9,6939l-6-25h1L18685.9,6939z"/>
	<path id="path2349_1_" class="st1" d="M18680.9,6914l4-1l5,25l5,24l-5,1l-4-24L18680.9,6914z"/>
	<path id="path2351_1_" class="st1" d="M18689.9,6938l-5-25h1L18689.9,6938z"/>
	<path id="path2353_1_" class="st1" d="M18685.9,6913l16-3l4,25l5,25l-17,2l-4-24L18685.9,6913z"/>
	<path id="path2355_1_" class="st1" d="M18705.9,6935l-4-25h1L18705.9,6935z"/>
	<path id="path2357_1_" class="st1" d="M18702.9,6910l24-3l3,24l4,25l-24,4l-4-25L18702.9,6910z"/>
	<path id="path2359_1_" class="st1" d="M18729.9,6931l-3-24l1-1L18729.9,6931z"/>
	<path id="path2361_1_" class="st1" d="M18727.9,6906l30-3l2,25l3,25l-30,3l-3-25L18727.9,6906z"/>
	<path id="path2363_1_" class="st1" d="M18759.9,6928l-2-25h1L18759.9,6928z"/>
	<path id="path2365_1_" class="st1" d="M18758.9,6903l33-2l2,25l1,25l-33,2l-2-25L18758.9,6903z"/>
	<path id="path2367_1_" class="st1" d="M18793.9,6926l-2-25h2V6926z"/>
	<path id="path2369_1_" class="st1" d="M18793.9,6901l34,1v25l-1,25l-34-1l1-25V6901z"/>
	<path id="path2371_1_" class="st1" d="M18827.9,6927v-25h2L18827.9,6927z"/>
	<path id="path2373_1_" class="st1" d="M18829.9,6902l17,1l-2,25l-3,25l-16-1l2-25L18829.9,6902z"/>
	<path id="path2375_1_" class="st1" d="M18844.9,6928l2-25l1,1L18844.9,6928z"/>
	<path id="path2377_1_" class="st1" d="M18847.9,6904l17,2l-4,25l-4,24l-16-2l4-25L18847.9,6904z"/>
	<path id="path2379_1_" class="st1" d="M18860.9,6931l4-25h1L18860.9,6931z"/>
	<path id="path2381_1_" class="st1" d="M18865.9,6906l16,4l-6,24l-6,25l-15-4l6-24L18865.9,6906z"/>
	<path id="path2383_1_" class="st1" d="M18875.9,6934l6-24l2,1L18875.9,6934z"/>
	<path id="path2385_1_" class="st1" d="M18883.9,6911l14,4l-8,24l-8,24l-14-5l8-24L18883.9,6911z"/>
	<path id="path2387_1_" class="st1" d="M18889.9,6939l8-24l3,1L18889.9,6939z"/>
	<path id="path2389_1_" class="st1" d="M18900.9,6916l28,14l-10,23l-11,22l-29-13l11-23L18900.9,6916z"/>
	<path id="path2391_1_" class="st1" d="M18918.9,6953l10-23l3,2L18918.9,6953z"/>
	<path id="path2393_1_" class="st1" d="M18931.9,6932l24,15l-14,21l-13,21l-24-15l14-21L18931.9,6932z"/>
	<path id="path2395_1_" class="st1" d="M18941.9,6968l14-21l2,2L18941.9,6968z"/>
	<path id="path2397_1_" class="st1" d="M18957.9,6949l20,16l-16,19l-16,19l-20-16l16-19L18957.9,6949z"/>
	<path id="path2399_1_" class="st1" d="M18961.9,6984l16-19l2,2L18961.9,6984z"/>
	<path id="path2401_1_" class="st1" d="M18979.9,6967l16,17l-18,17l-18,17l-16-17l18-17L18979.9,6967z"/>
	<path id="path2403_1_" class="st1" d="M18977.9,7001l18-17l2,2L18977.9,7001z"/>
	<path id="path2405_1_" class="st1" d="M18997.9,6986l13,18l-20,15l-20,15l-13-18l20-15L18997.9,6986z"/>
	<path id="path2407_1_" class="st1" d="M18990.9,7019l20-15l2,2L18990.9,7019z"/>
	<path id="path2409_1_" class="st1" d="M19012.9,7006l11,18l-22,13l-21,13l-11-18l21-13L19012.9,7006z"/>
	<path id="path2411_1_" class="st1" d="M19001.9,7037l22-13l1,2L19001.9,7037z"/>
	<path id="path2413_1_" class="st1" d="M19024.9,7026l18,36l-22,11l-23,11l-18-36l22-11L19024.9,7026z"/>
	<path id="path2415_1_" class="st1" d="M19020.9,7073l-22,11h-1L19020.9,7073z"/>
	<path id="path2417_1_" class="st1" d="M19042.9,7062l17,33l-22,12l-22,11l-17-34l22-11L19042.9,7062z"/>
	<path id="path2419_1_" class="st1" d="M19037.9,7107l-21,13l-1-2L19037.9,7107z"/>
	<path id="path2421_1_" class="st1" d="M19058.9,7093l10,16l-21,13l-21,14l-10-16l21-13L19058.9,7093z"/>
	<path id="path2423_1_" class="st1" d="M19047.9,7122l-19,16l-2-2L19047.9,7122z"/>
	<path id="path2425_1_" class="st1" d="M19067.9,7106l11,14l-19,16l-19,16l-12-14l19-16L19067.9,7106z"/>
	<path id="path2427_1_" class="st1" d="M19059.9,7136l-17,19l-2-3L19059.9,7136z"/>
	<path id="path2429_1_" class="st1" d="M19076.9,7118l7,7l-17,18l-17,18l-7-6l17-19L19076.9,7118z"/>
	<path id="path2431_1_" class="st1" d="M19066.9,7143l-16,19l-1-1L19066.9,7143z"/>
	<path id="path2433_1_" class="st1" d="M19082.9,7123l7,7l-16,19l-15,19l-8-6l16-19L19082.9,7123z"/>
	<path id="path2435_1_" class="st1" d="M19073.9,7149l-14,21l-1-2L19073.9,7149z"/>
	<path id="path2437_1_" class="st1" d="M19087.9,7128l9,6l-14,21l-14,20l-9-5l14-21L19087.9,7128z"/>
	<path id="path2439_1_" class="st1" d="M19082.9,7155l-13,21l-1-1L19082.9,7155z"/>
	<path id="path2441_1_" class="st1" d="M19094.9,7133l9,5l-12,22l-13,21l-9-5l13-21L19094.9,7133z"/>
	<path id="path2443_1_" class="st1" d="M19091.9,7160l-11,22l-2-1L19091.9,7160z"/>
	<path id="path2445_1_" class="st1" d="M19101.9,7137l10,4l-10,23l-11,23l-10-5l11-22L19101.9,7137z"/>
	<path id="path2447_1_" class="st1" d="M19101.9,7164l-9,24l-2-1L19101.9,7164z"/>
	<path id="path2449_1_" class="st1" d="M19109.9,7141l11,3l-8,24l-9,24l-11-4l9-24L19109.9,7141z"/>
	<path id="path2451_1_" class="st1" d="M19112.9,7168l-6,24h-3L19112.9,7168z"/>
	<path id="path2453_1_" class="st1" d="M19117.9,7144l26,6l-6,24l-6,24l-25-6l6-24L19117.9,7144z"/>
	<path id="path2455_1_" class="st1" d="M19137.9,7174l-3,25l-3-1L19137.9,7174z"/>
	<path id="path2457_1_" class="st1" d="M19140.9,7149l14,2l-3,25l-3,24l-14-1l3-25L19140.9,7149z"/>
	<path id="path2459_1_" class="st1" d="M19151.9,7176l-1,25l-2-1L19151.9,7176z"/>
	<path id="path2461_1_" class="st1" d="M19152.9,7151h13v25l-1,25h-14l1-25L19152.9,7151z"/>
	<path id="path2463_1_" class="st1" d="M19165.9,7176l1,25h-2L19165.9,7176z"/>
	<path id="path2465_1_" class="st1" d="M19163.9,7151l14-1l1,25l2,25l-14,1l-1-25L19163.9,7151z"/>
	<path id="path2467_1_" class="st1" d="M19178.9,7175l4,25h-2L19178.9,7175z"/>
	<path id="path2469_1_" class="st1" d="M19174.9,7151l14-2l4,24l3,25l-13,2l-4-25L19174.9,7151z"/>
	<path id="path2471_1_" class="st1" d="M19192.9,7173l6,24l-3,1L19192.9,7173z"/>
	<path id="path2473_1_" class="st1" d="M19185.9,7149l26-7l7,24l7,24l-27,7l-6-24L19185.9,7149z"/>
	<path id="path2475_1_" class="st1" d="M19218.9,7166l10,23l-3,1L19218.9,7166z"/>
	<path id="path2477_1_" class="st1" d="M19208.9,7143l26-11l10,23l10,23l-26,11l-10-23L19208.9,7143z"/>
	<path id="path2479_1_" class="st1" d="M19244.9,7155l13,21l-3,2L19244.9,7155z"/>
	<path id="path2481_1_" class="st1" d="M19231.9,7133l25-15l13,22l13,21l-25,15l-13-21L19231.9,7133z"/>
	<path id="path2483_1_" class="st1" d="M19269.9,7140l15,20l-2,1L19269.9,7140z"/>
	<path id="path2485_1_" class="st1" d="M19254.9,7120l25-18l15,20l14,20l-24,18l-15-20L19254.9,7120z"/>
	<path id="path2487_1_" class="st1" d="M19294.9,7122l16,19l-2,1L19294.9,7122z"/>
	<path id="path2489_1_" class="st1" d="M19277.9,7103l24-21l17,19l16,19l-24,21l-16-19L19277.9,7103z"/>
	<path id="path2491_1_" class="st1" d="M19318.9,7101l17,18l-1,1L19318.9,7101z"/>
	<path id="path2493_1_" class="st1" d="M19300.9,7083l23-22l18,17l17,18l-23,23l-17-18L19300.9,7083z"/>
	<path id="path2495_1_" class="st1" d="M19341.9,7078l19,17l-2,1L19341.9,7078z"/>
	<path id="path2497_1_" class="st1" d="M19322.9,7062l44-51l19,17l19,16l-44,51l-19-17L19322.9,7062z"/>
	<path id="path2499_1_" class="st1" d="M19385.9,7028l20,15l-1,1L19385.9,7028z"/>
	<path id="path2501_1_" class="st1" d="M19365.9,7013l41-54l20,15l20,15l-41,54l-20-15L19365.9,7013z"/>
	<path id="path2503_1_" class="st1" d="M19426.9,6974l20,14v1L19426.9,6974z"/>
	<path id="path2505_1_" class="st1" d="M19405.9,6960l70-103l21,14l21,14l-71,103l-20-14L19405.9,6960z"/>
	<path id="path2507_1_" class="st1" d="M19496.9,6871l-21-14l0,0L19496.9,6871z"/>
	<path id="path2509_1_" class="st1" d="M19475.9,6857l49-71l21,14l20,14l-48,71l-21-14L19475.9,6857z"/>
	<path id="path2511_1_" class="st1" d="M19545.9,6800l-21-14l1-1L19545.9,6800z"/>
	<path id="path2513_1_" class="st1" d="M19525.9,6785l43-58l20,15l20,15l-43,58l-20-15L19525.9,6785z"/>
	<path id="path2515_1_" class="st1" d="M19588.9,6742l-20-15l1-1L19588.9,6742z"/>
	<path id="path2517_1_" class="st1" d="M19569.9,6726l39-48l19,16l20,16l-40,48l-19-16L19569.9,6726z"/>
	<path id="path2519_1_" class="st1" d="M19627.9,6694l-19-16l1-1L19627.9,6694z"/>
	<path id="path2521_1_" class="st1" d="M19609.9,6677l39-40l18,17l18,17l-39,40l-18-17L19609.9,6677z"/>
	<path id="path2523_1_" class="st1" d="M19666.9,6654l-18-17l1-2L19666.9,6654z"/>
	<path id="path2525_1_" class="st1" d="M19649.9,6635l39-35l17,19l17,18l-40,36l-16-19L19649.9,6635z"/>
	<path id="path2527_1_" class="st1" d="M19705.9,6619l-17-19l2-1L19705.9,6619z"/>
	<path id="path2529_1_" class="st1" d="M19690.9,6599l43-34l15,20l16,20l-43,33l-16-19L19690.9,6599z"/>
	<path id="path2531_1_" class="st1" d="M19748.9,6585l-15-20l1-1L19748.9,6585z"/>
	<path id="path2533_1_" class="st1" d="M19734.9,6564l106-73l14,21l14,21l-106,73l-14-21L19734.9,6564z"/>
	<path id="path2535_1_" class="st1" d="M19854.9,6512l-14-21l4-2l4-1l4-1h2V6512z"/>
	<path id="path2537_1_" class="st1" d="M19854.9,6487h67v25v25h-67v-25V6487z"/>
	<path id="path2539_1_" class="st1" d="M19921.9,6512v-25h1L19921.9,6512z"/>
	<path id="path2541_1_" class="st1" d="M19922.9,6487l32,1l-1,25l-1,25l-32-1l1-25L19922.9,6487z"/>
	<path id="path2543_1_" class="st1" d="M19953.9,6513l1-25h1L19953.9,6513z"/>
	<path id="path2545_1_" class="st1" d="M19955.9,6488l35,3l-2,25l-2,25l-35-3l2-25L19955.9,6488z"/>
	<path id="path2547_1_" class="st1" d="M19988.9,6516l2-25h1L19988.9,6516z"/>
	<path id="path2549_1_" class="st1" d="M19991.9,6491l36,4l-3,25l-3,25l-36-4l3-25L19991.9,6491z"/>
	<path id="path2551_1_" class="st1" d="M20024.9,6520l3-25h1L20024.9,6520z"/>
	<path id="path2553_1_" class="st1" d="M20028.9,6495l37,6l-4,25l-4,25l-37-6l4-25L20028.9,6495z"/>
	<path id="path2555_1_" class="st1" d="M20061.9,6526l4-25l2,1L20061.9,6526z"/>
	<path id="path2557_1_" class="st1" d="M20067.9,6502l25,6l-6,25l-6,24l-25-7l6-24L20067.9,6502z"/>
	<path id="path2559_1_" class="st1" d="M20086.9,6533l6-25l3,1L20086.9,6533z"/>
	<path id="path2561_1_" class="st1" d="M20095.9,6509l24,9l-9,24l-9,23l-24-9l9-23L20095.9,6509z"/>
	<path id="path2563_1_" class="st1" d="M20110.9,6542l9-24l2,1L20110.9,6542z"/>
	<path id="path2565_1_" class="st1" d="M20121.9,6519l22,12l-11,22l-11,22l-22-11l11-22L20121.9,6519z"/>
	<path id="path2567_1_" class="st1" d="M20132.9,6553l11-22l2,1L20132.9,6553z"/>
	<path id="path2569_1_" class="st1" d="M20145.9,6532l21,12l-13,22l-13,21l-21-13l13-21L20145.9,6532z"/>
	<path id="path2571_1_" class="st1" d="M20153.9,6566l13-22l2,2L20153.9,6566z"/>
	<path id="path2573_1_" class="st1" d="M20168.9,6546l19,14l-14,20l-15,20l-19-14l14-20L20168.9,6546z"/>
	<path id="path2575_1_" class="st1" d="M20173.9,6580l14-20l2,1L20173.9,6580z"/>
	<path id="path2577_1_" class="st1" d="M20189.9,6561l18,15l-16,19l-16,19l-18-15l16-19L20189.9,6561z"/>
	<path id="path2579_1_" class="st1" d="M20191.9,6595l16-19l1,1L20191.9,6595z"/>
	<path id="path2581_1_" class="st1" d="M20208.9,6577l16,15l-17,18l-17,19l-16-16l17-18L20208.9,6577z"/>
	<path id="path2583_1_" class="st1" d="M20207.9,6610l17-18l1,1L20207.9,6610z"/>
	<path id="path2585_1_" class="st1" d="M20225.9,6593l15,16l-18,17l-18,17l-15-15l18-18L20225.9,6593z"/>
	<path id="path2587_1_" class="st1" d="M20222.9,6626l18-17l1,1L20222.9,6626z"/>
	<path id="path2589_1_" class="st1" d="M20241.9,6610l26,30l-19,16l-20,16l-25-30l19-16L20241.9,6610z"/>
	<path id="path2591_1_" class="st1" d="M20248.9,6656l19-16l1,1L20248.9,6656z"/>
	<path id="path2593_1_" class="st1" d="M20268.9,6641l18,25l-20,15l-20,15l-19-26l21-14L20268.9,6641z"/>
	<path id="path2595_1_" class="st1" d="M20266.9,6681l20-15l1,1L20266.9,6681z"/>
	<path id="path2597_1_" class="st1" d="M20287.9,6667l11,18l-21,13l-21,14l-11-17l21-14L20287.9,6667z"/>
	<path id="path2599_1_" class="st1" d="M20277.9,6698l21-13l1,1L20277.9,6698z"/>
	<path id="path2601_1_" class="st1" d="M20299.9,6686l3,5l-22,12l-21,13l-3-5l21-13L20299.9,6686z"/>
	<path id="path2603_1_" class="st1" d="M20280.9,6703l22-12l0,0L20280.9,6703z"/>
	<path id="path2605_1_" class="st1" d="M20302.9,6691v1l-21,13l-22,12l-1-1l22-13L20302.9,6691z"/>
	<path id="path2607_1_" class="st1" d="M20281.9,6705l21-13h1L20281.9,6705z"/>
	<path id="path2609_1_" class="st1" d="M20303.9,6692v1l-22,12l-22,12l0,0l22-12L20303.9,6692z"/>
	<path id="path2611_1_" class="st1" d="M20281.9,6705l22-12l0,0L20281.9,6705z"/>
	<path id="path2613_1_" class="st1" d="M20303.9,6693L20303.9,6693l-22,12l-22,12l0,0l22-12L20303.9,6693z"/>
	<path id="path2615_1_" class="st1" d="M20281.9,6705l22-12l0,0L20281.9,6705z"/>
	<path id="path2617_1_" class="st1" d="M20303.9,6693L20303.9,6693l-22,12l-22,12l0,0l22-12L20303.9,6693z"/>
	<path id="path2619_1_" class="st1" d="M20281.9,6705l22-12l0,0L20281.9,6705z"/>
	<path id="path2621_1_" class="st1" d="M20303.9,6693L20303.9,6693l-22,12l-22,12l0,0l22-12L20303.9,6693z"/>
	<path id="path2623_1_" class="st1" d="M20281.9,6705l22-12l0,0L20281.9,6705z"/>
	<path id="path2625_1_" class="st1" d="M20303.9,6693L20303.9,6693l-22,12l-22,12l0,0l22-12L20303.9,6693z"/>
	<path id="path2627_1_" class="st1" d="M20281.9,6705l-21,14l-1-2L20281.9,6705z"/>
	<path id="path2629_1_" class="st1" d="M20302.9,6691l74,112l-21,14l-20,14l-75-112l21-14L20302.9,6691z"/>
	<path id="path2631_1_" class="st1" d="M20355.9,6817l21-14l1,2L20355.9,6817z"/>
	<path id="path2633_1_" class="st1" d="M20377.9,6805l32,55l-22,13l-22,12l-31-56l21-12L20377.9,6805z"/>
	<path id="path2635_1_" class="st1" d="M20387.9,6873l22-13v1L20387.9,6873z"/>
	<path id="path2637_1_" class="st1" d="M20409.9,6861l32,63l-22,12l-22,11l-32-63l22-11L20409.9,6861z"/>
	<path id="path2639_1_" class="st1" d="M20419.9,6936l22-12l1,2L20419.9,6936z"/>
	<path id="path2641_1_" class="st1" d="M20442.9,6926l30,69l-23,9l-23,10l-30-68l23-10L20442.9,6926z"/>
	<path id="path2643_1_" class="st1" d="M20449.9,7004l23-9v1L20449.9,7004z"/>
	<path id="path2645_1_" class="st1" d="M20472.9,6996l26,73l-24,8l-24,8l-25-72l24-9L20472.9,6996z"/>
	<path id="path2647_1_" class="st1" d="M20474.9,7077l24-8v1L20474.9,7077z"/>
	<path id="path2649_1_" class="st1" d="M20498.9,7070l59,207l-24,6l-24,7l-59-206l24-7L20498.9,7070z"/>
	<path id="path2651_1_" class="st1" d="M20533.9,7283l24-6v1L20533.9,7283z"/>
	<path id="path2653_1_" class="st1" d="M20557.9,7278l43,178l-24,5l-24,6l-44-178l25-6L20557.9,7278z"/>
	<path id="path2655_1_" class="st1" d="M20576.9,7461l24-5l0,0L20576.9,7461z"/>
	<path id="path2657_1_" class="st1" d="M20600.9,7456l32,154l-25,5l-24,5l-32-154l25-5L20600.9,7456z"/>
	<path id="path2659_1_" class="st1" d="M20607.9,7615l25-5v1L20607.9,7615z"/>
	<path id="path2661_1_" class="st1" d="M20632.9,7611l22,132l-25,4l-25,4l-22-132l25-4L20632.9,7611z"/>
	<path id="path2663_1_" class="st1" d="M20629.9,7747l25-4l0,0L20629.9,7747z"/>
	<path id="path2665_1_" class="st1" d="M20654.9,7743l27,216l-25,3l-25,3l-27-215l25-3L20654.9,7743z"/>
	<path id="path2667_1_" class="st1" d="M20656.9,7962l25-3l0,0L20656.9,7962z"/>
	<path id="path2669_1_" class="st1" d="M20681.9,7959l11,91l-25,3l-24,3l-12-91l25-3L20681.9,7959z"/>
	<path id="path2671_1_" class="st1" d="M20667.9,8053l-24,4v-1L20667.9,8053z"/>
	<path id="path2673_1_" class="st1" d="M20692.9,8049l14,85l-25,4l-25,4l-13-85l24-4L20692.9,8049z"/>
	<path id="path2675_1_" class="st1" d="M20681.9,8138l-23,10l-1-4l-1-2L20681.9,8138z"/>
	<path id="path2677_1_" class="st1" d="M20704.9,8128l65,150l-23,10l-23,10l-65-150l23-10L20704.9,8128z"/>
	<path id="path2679_1_" class="st1" d="M20746.9,8288l-22,13l-1-3L20746.9,8288z"/>
	<path id="path2681_1_" class="st1" d="M20767.9,8275l15,24l-22,13l-21,13l-15-24l22-13L20767.9,8275z"/>
	<path id="path2683_1_" class="st1" d="M20760.9,8312l-20,14l-1-1L20760.9,8312z"/>
	<path id="path2685_1_" class="st1" d="M20781.9,8297l15,22l-20,15l-21,14l-15-22l20-14L20781.9,8297z"/>
	<path id="path2687_1_" class="st1" d="M20776.9,8334l-19,16l-2-2L20776.9,8334z"/>
	<path id="path2689_1_" class="st1" d="M20794.9,8317l16,18l-18,16l-19,17l-16-18l19-16L20794.9,8317z"/>
	<path id="path2691_1_" class="st1" d="M20792.9,8351l-17,19l-2-2L20792.9,8351z"/>
	<path id="path2693_1_" class="st1" d="M20808.9,8333l8,7l-16,19l-17,18l-8-7l17-19L20808.9,8333z"/>
	<path id="path2695_1_" class="st1" d="M20800.9,8359l-15,20l-2-2L20800.9,8359z"/>
	<path id="path2697_1_" class="st1" d="M20814.9,8338l8,6l-14,21l-14,20l-9-6l15-20L20814.9,8338z"/>
	<path id="path2699_1_" class="st1" d="M20808.9,8365l-12,22l-2-2L20808.9,8365z"/>
	<path id="path2701_1_" class="st1" d="M20820.9,8342l8,5l-12,22l-11,22l-9-4l12-22L20820.9,8342z"/>
	<path id="path2703_1_" class="st1" d="M20816.9,8369l-7,24l-4-2L20816.9,8369z"/>
	<path id="path2705_1_" class="st1" d="M20824.9,8345l8,3l-7,24l-8,23l-8-2l7-24L20824.9,8345z"/>
	<path id="path2707_1_" class="st1" d="M20825.9,8372l-3,24h-4l-1-1L20825.9,8372z"/>
	<path id="path2709_1_" class="st1" d="M20827.9,8347l9,1l-3,24l-3,25l-8-1l3-24L20827.9,8347z"/>
	<path id="path2711_1_" class="st1" d="M20833.9,8372l3,25h-4h-2L20833.9,8372z"/>
	<path id="path2713_1_" class="st1" d="M20830.9,8348l8-1l3,24l3,25l-8,1l-3-25L20830.9,8348z"/>
	<path id="path2715_1_" class="st1" d="M20841.9,8371l9,24l-4,1h-2L20841.9,8371z"/>
	<path id="path2717_1_" class="st1" d="M20832.9,8348l9-3l9,23l8,24l-8,3l-9-24L20832.9,8348z"/>
	<path id="path2719_1_" class="st1" d="M20850.9,8368l13,21l-4,2l-1,1L20850.9,8368z"/>
	<path id="path2721_1_" class="st1" d="M20836.9,8347l8-5l14,21l13,21l-8,5l-13-21L20836.9,8347z"/>
	<path id="path2723_1_" class="st1" d="M20858.9,8363l17,18l-3,3h-1L20858.9,8363z"/>
	<path id="path2725_1_" class="st1" d="M20841.9,8345l8-8l17,18l17,18l-8,8l-17-18L20841.9,8345z"/>
	<path id="path2727_1_" class="st1" d="M20866.9,8355l20,16l-3,2L20866.9,8355z"/>
	<path id="path2729_1_" class="st1" d="M20846.9,8340l8-10l20,15l20,15l-8,11l-20-16L20846.9,8340z"/>
	<path id="path2731_1_" class="st1" d="M20874.9,8345l21,13l-1,2L20874.9,8345z"/>
	<path id="path2733_1_" class="st1" d="M20853.9,8332l21-34l21,13l21,14l-21,33l-21-13L20853.9,8332z"/>
	<path id="path2735_1_" class="st1" d="M20895.9,8311l22,12l-1,2L20895.9,8311z"/>
	<path id="path2737_1_" class="st1" d="M20873.9,8300l18-33l22,11l22,12l-18,33l-22-12L20873.9,8300z"/>
	<path id="path2739_1_" class="st1" d="M20913.9,8278l23,10l-1,2L20913.9,8278z"/>
	<path id="path2741_1_" class="st1" d="M20890.9,8268l14-32l23,10l23,10l-14,32l-23-10L20890.9,8268z"/>
	<path id="path2743_1_" class="st1" d="M20927.9,8246l23,8v2L20927.9,8246z"/>
	<path id="path2745_1_" class="st1" d="M20903.9,8237l12-32l23,9l24,8l-12,32l-23-8L20903.9,8237z"/>
	<path id="path2747_1_" class="st1" d="M20938.9,8214l24,6v2L20938.9,8214z"/>
	<path id="path2749_1_" class="st1" d="M20914.9,8207l17-62l24,7l24,7l-17,61l-24-6L20914.9,8207z"/>
	<path id="path2751_1_" class="st1" d="M20955.9,8152l25,5l-1,2L20955.9,8152z"/>
	<path id="path2753_1_" class="st1" d="M20931.9,8147l12-57l25,5l24,5l-12,57l-25-5L20931.9,8147z"/>
	<path id="path2755_1_" class="st1" d="M20968.9,8095l-25-5v-1L20968.9,8095z"/>
	<path id="path2757_1_" class="st1" d="M20943.9,8089l12-51l24,5l25,6l-12,52l-24-6L20943.9,8089z"/>
	<path id="path2759_1_" class="st1" d="M20979.9,8043l-24-5v-2L20979.9,8043z"/>
	<path id="path2761_1_" class="st1" d="M20955.9,8036l7-23l24,7l24,7l-7,23l-24-7L20955.9,8036z"/>
	<path id="path2763_1_" class="st1" d="M20986.9,8020l-24-7l1-2L20986.9,8020z"/>
	<path id="path2765_1_" class="st1" d="M20963.9,8011l8-22l24,9l23,9l-8,22l-24-9L20963.9,8011z"/>
	<path id="path2767_1_" class="st1" d="M20995.9,7998l-24-9l2-2L20995.9,7998z"/>
	<path id="path2769_1_" class="st1" d="M20973.9,7987l10-20l22,11l22,12l-10,20l-22-12L20973.9,7987z"/>
	<path id="path2771_1_" class="st1" d="M21005.9,7978l-22-11l2-3L21005.9,7978z"/>
	<path id="path2773_1_" class="st1" d="M20985.9,7964l13-18l20,15l20,14l-13,18l-20-15L20985.9,7964z"/>
	<path id="path2775_1_" class="st1" d="M21018.9,7961l-20-15l2-2L21018.9,7961z"/>
	<path id="path2777_1_" class="st1" d="M21000.9,7944l7-8l18,17l19,17l-8,8l-18-17L21000.9,7944z"/>
	<path id="path2779_1_" class="st1" d="M21025.9,7953l-18-17l2-2L21025.9,7953z"/>
	<path id="path2781_1_" class="st1" d="M21009.9,7934l8-7l17,18l16,19l-8,7l-17-18L21009.9,7934z"/>
	<path id="path2783_1_" class="st1" d="M21034.9,7945l-17-18l2-2L21034.9,7945z"/>
	<path id="path2785_1_" class="st1" d="M21019.9,7925l9-7l15,20l15,20l-9,7l-15-20L21019.9,7925z"/>
	<path id="path2787_1_" class="st1" d="M21043.9,7938l-15-20l2-1L21043.9,7938z"/>
	<path id="path2789_1_" class="st1" d="M21030.9,7917l10-6l13,21l13,21l-10,7l-13-22L21030.9,7917z"/>
	<path id="path2791_1_" class="st1" d="M21053.9,7932l-13-21l2-1L21053.9,7932z"/>
	<path id="path2793_1_" class="st1" d="M21042.9,7910l10-5l11,22l11,23l-10,4l-11-22L21042.9,7910z"/>
	<path id="path2795_1_" class="st1" d="M21063.9,7927l-11-22l4-2L21063.9,7927z"/>
	<path id="path2797_1_" class="st1" d="M21056.9,7903l10-3l7,24l8,24l-10,3l-8-24L21056.9,7903z"/>
	<path id="path2799_1_" class="st1" d="M21073.9,7924l-7-24l4-1L21073.9,7924z"/>
	<path id="path2801_1_" class="st1" d="M21070.9,7899l9-1l4,24l4,25l-10,2l-4-25L21070.9,7899z"/>
	<path id="path2803_1_" class="st1" d="M21083.9,7922l-4-24l5-1L21083.9,7922z"/>
	<path id="path2805_1_" class="st1" d="M21084.9,7897l9,1v25l-1,25l-10-1l1-25L21084.9,7897z"/>
	<path id="path2807_1_" class="st1" d="M21093.9,7923v-25h4L21093.9,7923z"/>
	<path id="path2809_1_" class="st1" d="M21097.9,7898l10,2l-5,25l-5,24l-9-2l5-24L21097.9,7898z"/>
	<path id="path2811_1_" class="st1" d="M21102.9,7925l5-25l4,1L21102.9,7925z"/>
	<path id="path2813_1_" class="st1" d="M21111.9,7901l9,4l-9,23l-8,23l-10-3l9-23L21111.9,7901z"/>
	<path id="path2815_1_" class="st1" d="M21111.9,7928l9-23l4,1l1,1L21111.9,7928z"/>
	<path id="path2817_1_" class="st1" d="M21125.9,7907l18,11l-14,21l-13,21l-18-11l13-21L21125.9,7907z"/>
	<path id="path2819_1_" class="st1" d="M21129.9,7939l14-21l3,3l1,1L21129.9,7939z"/>
	<path id="path2821_1_" class="st1" d="M21147.9,7922l17,16l-18,18l-17,18l-17-17l17-18L21147.9,7922z"/>
	<path id="path2823_1_" class="st1" d="M21146.9,7956l18-18l2,3L21146.9,7956z"/>
	<path id="path2825_1_" class="st1" d="M21166.9,7941l17,22l-20,15l-20,15l-17-22l20-15L21166.9,7941z"/>
	<path id="path2827_1_" class="st1" d="M21163.9,7978l20-15l1,3L21163.9,7978z"/>
	<path id="path2829_1_" class="st1" d="M21184.9,7966l16,27l-22,12l-21,13l-16-27l22-13L21184.9,7966z"/>
	<path id="path2831_1_" class="st1" d="M21178.9,8005l22-12l1,1L21178.9,8005z"/>
	<path id="path2833_1_" class="st1" d="M21201.9,7994l15,32l-23,10l-22,11l-15-31l22-11L21201.9,7994z"/>
	<path id="path2835_1_" class="st1" d="M21193.9,8036l23-10l1,1L21193.9,8036z"/>
	<path id="path2837_1_" class="st1" d="M21217.9,8027l27,74l-23,9l-24,9l-27-74l23-9L21217.9,8027z"/>
	<path id="path2839_1_" class="st1" d="M21221.9,8110l23-9l1,2L21221.9,8110z"/>
	<path id="path2841_1_" class="st1" d="M21245.9,8103l25,85l-24,7l-24,7l-25-85l24-7L21245.9,8103z"/>
	<path id="path2843_1_" class="st1" d="M21246.9,8195l24-7v2L21246.9,8195z"/>
	<path id="path2845_1_" class="st1" d="M21270.9,8190l41,192l-24,6l-24,5l-42-193l25-5L21270.9,8190z"/>
	<path id="path2847_1_" class="st1" d="M21287.9,8388l24-6l1,2L21287.9,8388z"/>
	<path id="path2849_1_" class="st1" d="M21312.9,8384l31,198l-25,4l-25,4l-31-198l25-4L21312.9,8384z"/>
	<path id="path2851_1_" class="st1" d="M21318.9,8586l25-4v1L21318.9,8586z"/>
	<path id="path2853_1_" class="st1" d="M21343.9,8583l21,176l-24,3l-25,3l-22-176l25-3L21343.9,8583z"/>
	<path id="path2855_1_" class="st1" d="M21340.9,8762l24-3v1L21340.9,8762z"/>
	<path id="path2857_1_" class="st1" d="M21364.9,8760l13,126l-25,3l-25,2l-12-126l25-3L21364.9,8760z"/>
	<path id="path2859_1_" class="st1" d="M21352.9,8889l25-3v1L21352.9,8889z"/>
	<path id="path2861_1_" class="st1" d="M21377.9,8887l3,35l-25,2l-25,2l-3-35l25-2L21377.9,8887z"/>
	<path id="path2863_1_" class="st1" d="M21355.9,8924l25-2l0,0L21355.9,8924z"/>
	<path id="path2865_1_" class="st1" d="M21380.9,8922l1,10l-25,2l-25,2l-1-10l25-2L21380.9,8922z"/>
	<path id="path2867_1_" class="st1" d="M21356.9,8934l25-2l0,0L21356.9,8934z"/>
	<path id="path2869_1_" class="st1" d="M21381.9,8932v2l-25,2l-25,2v-2l25-2L21381.9,8932z"/>
	<path id="path2871_1_" class="st1" d="M21356.9,8936l25-2l0,0L21356.9,8936z"/>
	<path id="path2873_1_" class="st1" d="M21381.9,8934v1l-25,2l-25,2v-1l25-2L21381.9,8934z"/>
	<path id="path2875_1_" class="st1" d="M21356.9,8937l25-2l0,0L21356.9,8937z"/>
	<path id="path2877_1_" class="st1" d="M21381.9,8935L21381.9,8935l-25,2l-25,2l0,0l25-2L21381.9,8935z"/>
	<path id="path2879_1_" class="st1" d="M21356.9,8937l25-2l0,0L21356.9,8937z"/>
	<path id="path2881_1_" class="st1" d="M21381.9,8935L21381.9,8935l-25,2l-25,2l0,0l25-2L21381.9,8935z"/>
	<path id="path2883_1_" class="st1" d="M21356.9,8937l25-2l0,0L21356.9,8937z"/>
	<path id="path2885_1_" class="st1" d="M21381.9,8935L21381.9,8935l-25,2l-25,2l0,0l25-2L21381.9,8935z"/>
	<path id="path2887_1_" class="st1" d="M21356.9,8937l25-2v1L21356.9,8937z"/>
	<path id="path2889_1_" class="st1" d="M21381.9,8936l96,1626l-25,1l-25,1l-96-1626l25-1L21381.9,8936z"/>
	<path id="path2891_1_" class="st1" d="M21452.9,10563l25-1l0,0L21452.9,10563z"/>
	<path id="path2893_1_" class="st1" d="M21477.9,10562l8,302h-25l-25,1l-8-301l25-1L21477.9,10562z"/>
	<path id="path2895_1_" class="st1" d="M21460.9,10864l-25,1l0,0L21460.9,10864z"/>
	<path id="path2897_1_" class="st1" d="M21485.9,10863l9,251l-25,1l-25,1l-9-251l25-1L21485.9,10863z"/>
	<path id="path2899_1_" class="st1" d="M21469.9,11115l-25,2v-1L21469.9,11115z"/>
	<path id="path2901_1_" class="st1" d="M21494.9,11114l11,206l-25,1l-25,1l-11-205l25-2L21494.9,11114z"/>
	<path id="path2903_1_" class="st1" d="M21480.9,11321l25-1l0,0L21480.9,11321z"/>
	<path id="path2905_1_" class="st1" d="M21505.9,11320l19,369l-25,2l-25,1l-19-370l25-1L21505.9,11320z"/>
	<path id="path2907_1_" class="st1" d="M21499.9,11691.1l25-2v1L21499.9,11691.1z"/>
	<path id="path2909_1_" class="st1" d="M21524.9,11690.1l6,166l-25,1l-25,1l-6-166l25-1L21524.9,11690.1z"/>
	<path id="path2911_1_" class="st1" d="M21505.9,11857.1l25-1l0,0L21505.9,11857.1z"/>
	<path id="path2913_1_" class="st1" d="M21530.9,11856.1l2,51l-25,1l-25,1l-2-51l25-1L21530.9,11856.1z"/>
	<path id="path2915_1_" class="st1" d="M21507.9,11908.1l25-1l0,0L21507.9,11908.1z"/>
	<path id="path2917_1_" class="st1" d="M21532.9,11907.1l1,14l-25,1l-25,1l-1-14l25-1L21532.9,11907.1z"/>
	<path id="path2919_1_" class="st1" d="M21508.9,11922.1l25-1l0,0L21508.9,11922.1z"/>
	<path id="path2921_1_" class="st1" d="M21533.9,11921.1v4l-25,1l-25,1v-4l25-1L21533.9,11921.1z"/>
	<path id="path2923_1_" class="st1" d="M21508.9,11926.1l25-1l0,0L21508.9,11926.1z"/>
	<path id="path2925_1_" class="st1" d="M21533.9,11925.1v1l-25,1l-25,1v-1l25-1L21533.9,11925.1z"/>
	<path id="path2927_1_" class="st1" d="M21508.9,11927.1l25-1l0,0L21508.9,11927.1z"/>
	<path id="path2929_1_" class="st1" d="M21533.9,11926.1L21533.9,11926.1l-25,1l-25,1l0,0l25-1L21533.9,11926.1z"/>
	<path id="path2931_1_" class="st1" d="M21508.9,11927.1l25-1l0,0L21508.9,11927.1z"/>
	<path id="path2933_1_" class="st1" d="M21533.9,11926.1L21533.9,11926.1l-25,1l-25,1l0,0l25-1L21533.9,11926.1z"/>
	<path id="path2935_1_" class="st1" d="M21508.9,11927.1l25-1l0,0L21508.9,11927.1z"/>
	<path id="path2937_1_" class="st1" d="M21533.9,11926.1L21533.9,11926.1l-25,1l-25,1l0,0l25-1L21533.9,11926.1z"/>
	<path id="path2939_1_" class="st1" d="M21508.9,11927.1l25-1l0,0L21508.9,11927.1z"/>
	<path id="path2941_1_" class="st1" d="M21533.9,11926.1L21533.9,11926.1l-25,1l-25,1l0,0l25-1L21533.9,11926.1z"/>
</g>
<g>
	<text transform="matrix(1 0 0 1 86.6333 572.7236)" class="st2 st3">10</text>
	<text transform="matrix(1 0 0 1 229.739 572.7236)" class="st2 st3">100</text>
	<text transform="matrix(1 0 0 1 370.8273 572.7236)" class="st2 st3">1000</text>
	<text transform="matrix(1 0 0 1 514.0032 572.7236)" class="st2 st3">10k</text>
	<text transform="matrix(1 0 0 1 657.275 572.7236)" class="st2 st3">100k</text>
</g>
<g>
	<text transform="matrix(1 0 0 1 769.9177 572.7236)" class="st2 st3">10</text>
	<text transform="matrix(1 0 0 1 913.0234 572.7236)" class="st2 st3">100</text>
	<text transform="matrix(1 0 0 1 1054.1117 572.7236)" class="st2 st3">1000</text>
	<text transform="matrix(1 0 0 1 1197.2876 572.7236)" class="st2 st3">10k</text>
	<text transform="matrix(1 0 0 1 1340.5594 572.7236)" class="st2 st3">100k</text>
</g>
<g>
	<text transform="matrix(1 0 0 1 66.6333 174.694)" class="st2 st3">0</text>
	<text transform="matrix(1 0 0 1 35.582 104.2514)" class="st2 st3">+10</text>
	<text transform="matrix(1 0 0 1 35.582 29.0977)" class="st2 st3">+20</text>
	<text transform="matrix(1 0 0 1 43.6743 249.2523)" class="st2 st3">-10</text>
	<text transform="matrix(1 0 0 1 43.6743 323.2895)" class="st2 st3">-20</text>
	<text transform="matrix(1 0 0 1 43.6743 392.2162)" class="st2 st3">-30</text>
	<text transform="matrix(1 0 0 1 43.6743 468.9324)" class="st2 st3">-40</text>
	<text transform="matrix(1 0 0 1 43.6743 545.3502)" class="st2 st3">-50</text>
</g>
<text transform="matrix(4.489659e-11 -1 1 4.489659e-11 27.1448 335.291)" class="st2 st4">Gain (dBFS)</text>
<path class="st0" d="M1600.2,15.3V542h601.1V15.3H1600.2z M2197.3,19.3v18.4h-593.1V19.3H2197.3z M1604.2,487.7v-27h593.1v27H1604.2
	z M2197.3,489.7v27h-593.1v-27H2197.3z M1604.2,456.7v-27h593.1v27H1604.2z M1604.2,427.7v-28h593.1v28H1604.2z M1604.2,397.7v-27
	h593.1v27H1604.2z M1604.2,366.7v-27h593.1v27H1604.2z M1604.2,337.7v-28h593.1v28H1604.2z M1604.2,307.6v-26h593.1v26H1604.2z
	 M1604.2,275.6v-26h593.1v26H1604.2z M1604.2,247.6v-28h593.1v28H1604.2z M1604.2,217.6v-27h593.1v27H1604.2z M1604.2,186.6v-27
	h593.1v27H1604.2z M1604.2,157.6v-28h593.1v28H1604.2z M1604.2,127.6v-27h593.1v27H1604.2z M1604.2,96.6v-27h593.1v27H1604.2z
	 M1604.2,67.6v-28h593.1v28H1604.2z M1604.2,538v-17.3h593.1V538H1604.2z"/>
<path class="st0" d="M2233.3,15.3V542h601.1V15.3H2233.3z M2830.4,19.3v18.4h-593.1V19.3H2830.4z M2237.3,487.7v-27h593.1v27H2237.3
	z M2830.4,489.7v27h-593.1v-27H2830.4z M2237.3,456.7v-27h593.1v27H2237.3z M2237.3,427.7v-28h593.1v28H2237.3z M2237.3,397.7v-27
	h593.1v27H2237.3z M2237.3,366.7v-27h593.1v27H2237.3z M2237.3,337.7v-28h593.1v28H2237.3z M2237.3,307.6v-26h593.1v26H2237.3z
	 M2237.3,275.6v-26h593.1v26H2237.3z M2237.3,247.6v-28h593.1v28H2237.3z M2237.3,217.6v-27h593.1v27H2237.3z M2237.3,186.6v-27
	h593.1v27H2237.3z M2237.3,157.6v-28h593.1v28H2237.3z M2237.3,127.6v-27h593.1v27H2237.3z M2237.3,96.6v-27h593.1v27H2237.3z
	 M2237.3,67.6v-28h593.1v28H2237.3z M2237.3,538v-17.3h593.1V538H2237.3z"/>
<path class="st5" d="M1604.2,278.7c0,0,60-90,98.8-90s98.8,90,98.8,90s60,90,98.8,90s98.8-90,98.8-90s60-120.4,98.8-120
	c40.3,0.4,98.8,120,98.8,120"/>
<path class="st5" d="M2237.3,278.7c0,0,59.8-180,98.5-180c38.7,0,98.5,180,98.5,180s59.8,180,98.5,180c38.7,0,98.5-180,98.5-180
	s59.8-240.4,98.5-240c40.2,0.4,98.5,240,98.5,240"/>
</svg>
