<?xml version="1.0" encoding="utf-8"?>
<!-- Generator: Adobe Illustrator 19.2.0, SVG Export Plug-In . SVG Version: 6.00 Build 0)  -->
<svg version="1.1" id="Layer_1" xmlns="http://www.w3.org/2000/svg" xmlns:xlink="http://www.w3.org/1999/xlink" x="0px" y="0px"
	 viewBox="0 0 400 400" style="enable-background:new 0 0 400 400;" xml:space="preserve">
<style type="text/css">
	.st0{fill:#EFEEEB;}
	.st1{fill:#00B7C6;}
</style>
<rect x="-10.6" y="-7" class="st0" width="417.5" height="417.5"/>
<g>
	<path class="st1" d="M137.4,142.6l-0.2,0.5v111.6c-4.6-1.9-11-1.7-17.1,0.9c-9.8,4.3-15.4,13.3-12.4,20.2c3,6.9,13.4,9.1,23.2,4.8
		c8.5-3.7,13.7-8.3,13.7-22.2V158.3l51.2-10.6v97.2c-4.6-1.9-11-1.7-17.1,0.9c-9.8,4.3-15.4,13.3-12.4,20.2c3,6.9,13.4,9.1,23.2,4.8
		c8.5-3.7,13.7-8.3,13.7-22.2V146.2l51.2-10.6v99.6c-4.6-1.9-11-1.7-17.1,0.9c-9.8,4.3-15.4,13.3-12.4,20.2c3,6.9,13.4,9.1,23.2,4.8
		c8.5-3.7,13.7-8.3,13.7-22.2V117.3l-0.1-0.1L137.4,142.6z"/>
	<path class="st1" d="M57.3,212.3v0.6l25.1,18.2c-0.1,0.4-0.4,0.8-0.7,1.3c-0.4,0.5-0.8,1-1.3,1.5c-0.5,0.5-0.9,1-1.4,1.4
		c-0.5,0.4-0.9,0.7-1.2,0.9L49,215.3l0.3-5.6L77,189.1c0.4,0.2,0.9,0.6,1.5,1l1.7,1.2c0.6,0.4,1.1,0.8,1.5,1.2
		c0.5,0.4,0.8,0.8,1.2,1.1L57.3,212.3z"/>
	<g>
		<path class="st1" d="M277.7,252.9c-0.4-0.1-0.9-0.2-1.4-0.3c-0.6-0.2-1.2-0.3-1.9-0.6c-0.6-0.2-1.3-0.4-1.8-0.7
			c-0.6-0.2-1-0.5-1.2-0.6l31.5-82.9c0.8,0,1.9,0.1,3.4,0.2c1.5,0.2,2.6,0.4,3.5,0.6L277.7,252.9z"/>
		<path class="st1" d="M322.1,236.8c-0.3-0.2-0.7-0.5-1.2-0.9c-0.5-0.4-0.9-0.9-1.4-1.4c-0.5-0.5-0.9-1.1-1.3-1.6
			c-0.4-0.5-0.6-1-0.7-1.3l25.2-18.6v-0.6l-25.8-18.2c0.6-0.7,1.5-1.5,2.7-2.4c1.2-0.9,2.3-1.6,3.2-2.1l27.8,20.1l0.3,5.6
			L322.1,236.8z"/>
	</g>
</g>
</svg>
