<?xml version="1.0" encoding="utf-8"?>
<!-- Generator: Adobe Illustrator 19.2.0, SVG Export Plug-In . SVG Version: 6.00 Build 0)  -->
<svg version="1.1" id="Layer_1" xmlns="http://www.w3.org/2000/svg" xmlns:xlink="http://www.w3.org/1999/xlink" x="0px" y="0px"
	 viewBox="0 0 400 400" style="enable-background:new 0 0 400 400;" xml:space="preserve">
<style type="text/css">
	.st0{fill:#EFEEEB;}
	.st1{fill:#00B7C6;}
</style>
<rect x="-10.6" y="-7" class="st0" width="417.5" height="417.5"/>
<g>
	<rect x="121.3" y="170.7" class="st1" width="31" height="6.9"/>
	<rect x="121.3" y="188" class="st1" width="102.3" height="6.9"/>
	<rect x="121.3" y="136.2" class="st1" width="102.3" height="6.9"/>
	<rect x="121.3" y="153.4" class="st1" width="102.3" height="6.9"/>
	<rect x="121.3" y="205.2" class="st1" width="102.3" height="6.9"/>
	<rect x="121.3" y="222.4" class="st1" width="83.6" height="6.9"/>
	<rect x="121.3" y="119" class="st1" width="102.3" height="6.9"/>
	<path class="st1" d="M272.4,119v-17.2h-29.4V84.5H100V281h28.2v17.2h27.6v17.2H300V119H272.4z M106.9,91.4h129.2v182.8H106.9V91.4z
		 M135.1,281h108v-51.7h8.1v-6.9h-8.1v-10.3h8.1v-6.9h-8.1v-10.3h8.1V188h-8.1v-10.3h8.1v-6.9h-8.1v-10.3h8.1v-6.9h-8.1v-10.3h8.1
		v-6.9h-8.1v-27.6h22.5v182.8H135.1V281z M293.1,308.6H162.6v-10.3h109.8v-34.5h6.3v-6.9h-6.3v-10.3h6.3v-6.9h-6.3v-10.3h6.3v-6.9
		h-6.3v-10.3h6.3v-6.9h-6.3v-27.6h6.3v-6.9h-6.3v-10.3h6.3v-6.9h-6.3v-27.6h20.7L293.1,308.6L293.1,308.6z"/>
</g>
</svg>
