<svg id="svg5669" xmlns="http://www.w3.org/2000/svg" viewBox="0 0 1474 669.8">
    <style>.st0{fill:#dad8d2}.st1{fill:#00b7c6}.st2{font-family:&amp;apos;MyriadPro-Regular&amp;apos;}.st3{font-size:28px}.st4{font-size:24px}</style>
    <path class="st0" d="M706.5 37.3H705v-1.5H109.7v3h43.2V74h-43.2v1h43.2v35.2h-43.2v3h43.2v35.2h-43.2v1h43.2v35.2h-43.2v3h43.2v35.2h-43.2v1h43.2V259h-43.2v3h43.2v35.2h-43.2v1h43.2v35.2h-43.2v3h43.2v35.2h-43.2v1h43.2v35.2h-43.2v3h43.2V446h-43.2v1h43.2v35.2h-43.2v3h43.2v35.2h-43.2v1h43.2v36.7h3v-36.7H179v36.7h3v-36.7h15.6v36.7h3v-36.7h11.9v36.7h3v-36.7h8.9v36.7h3v-36.7h6.7v36.7h3v-36.7h5.2v36.7h3v-36.7h5.2v36.7h3v-36.7h3.7v36.7h3v-36.7h41.7v36.7h3v-36.7H328v36.7h3v-36.7h15.6v36.7h3v-36.7h11.9v36.7h3v-36.7h8.9v36.7h3v-36.7h6.7v36.7h3v-36.7h5.2v36.7h3v-36.7h5.2v36.7h3v-36.7h3.7v36.7h3v-36.7h41.7v36.7h3v-36.7H477v36.7h3v-36.7h16.1v36.7h3v-36.7h11.5v36.7h3v-36.7h8.9v36.7h3v-36.7h6.7v36.7h3v-36.7h5.2v36.7h3v-36.7h5.2v36.7h3v-36.7h3.7v36.7h3v-36.7H600v36.7h3v-36.7h23.1v36.7h3v-36.7H644v36.7h3v-36.7h11.9v36.7h3v-36.7h8.9v36.7h3v-36.7h6.7v36.7h3v-36.7h5.2v36.7h3v-36.7h5.2v36.7h3v-36.7h3.7v36.7h3V37.3zM644 259h-15.6v-35.2H644V259zm3-35.2h11.9V259H647v-35.2zM625.4 259h-23.1v-35.2h23.1V259zm-26 0h-41.7v-35.2h41.7V259zm-44.7 0H551v-35.2h3.7V259zm-6.7 0h-5.2v-35.2h5.2V259zm-8.2 0h-5.2v-35.2h5.2V259zm-8.2 0h-6.7v-35.2h6.7V259zm-9.6 0h-9v-35.2h8.9V259zm-11.9 0h-11.5v-35.2h11.5V259zm-14.5 0h-16.1v-35.2h16.1V259zm-19 0h-23.1v-35.2h23.1V259zm-26.1 0h-41.7v-35.2h41.7V259zm-44.6 0h-3.7v-35.2h3.7V259zm-6.7 0H394v-35.2h5.2V259zm-8.2 0h-5.2v-35.2h5.2V259zm-8.2 0h-6.7v-35.2h6.7V259zm-9.6 0h-8.9v-35.2h8.9V259zm-12 0h-11.9v-35.2h11.9V259zm-14.8 0h-15.6v-35.2h15.6V259zm-18.6 0h-23.1v-35.2h23.1V259zm-26.1 0H260v-35.2h41.7V259zm-44.6 0h-3.7v-35.2h3.7V259zm-6.7 0h-5.2v-35.2h5.2V259zm-8.2 0H237v-35.2h5.2V259zm-8.2 0h-6.7v-35.2h6.7V259zm-9.7 0h-8.9v-35.2h8.9V259zm-11.9 0h-11.9v-35.2h11.9V259zm-11.9 3h11.9v35.2h-11.9V262zm14.9 0h8.9v35.2h-8.9V262zm11.9 0h6.7v35.2h-6.7V262zm9.7 0h5.2v35.2H237V262zm8.2 0h5.2v35.2h-5.2V262zm8.2 0h3.7v35.2h-3.7V262zm6.6 0h41.7v35.2H260V262zm44.7 0h23.1v35.2h-23.1V262zm26 0h15.6v35.2h-15.6V262zm18.6 0h11.9v35.2h-11.9V262zm14.9 0h8.9v35.2h-8.9V262zm11.9 0h6.7v35.2h-6.7V262zm9.7 0h5.2v35.2h-5.2V262zm8.2 0h5.2v35.2H394V262zm8.2 0h3.7v35.2h-3.7V262zm6.7 0h41.7v35.2h-41.7V262zm44.6 0h23.1v35.2h-23.1V262zm26.1 0h16.1v35.2h-16.1V262zm19 0h11.5v35.2h-11.5V262zm14.4 0h8.9v35.2H513V262zm11.9 0h6.7v35.2h-6.7V262zm9.7 0h5.2v35.2h-5.2V262zm8.2 0h5.2v35.2h-5.2V262zm8.2 0h3.7v35.2H551V262zm6.7 0h41.7v35.2h-41.7V262zm44.6 0h23.1v35.2h-23.1V262zm26.1 0H644v35.2h-15.6V262zm18.6 0h11.9v35.2H647V262zm14.9 0h8.9v35.2h-8.9V262zm0-3v-35.2h8.9V259h-8.9zm0-36.2v-35.2h8.9v35.2h-8.9zm-3 0H647v-35.2h11.9v35.2zm-14.9 0h-15.6v-35.2H644v35.2zm-18.6 0h-23.1v-35.2h23.1v35.2zm-26 0h-41.7v-35.2h41.7v35.2zm-44.7 0H551v-35.2h3.7v35.2zm-6.7 0h-5.2v-35.2h5.2v35.2zm-8.2 0h-5.2v-35.2h5.2v35.2zm-8.2 0h-6.7v-35.2h6.7v35.2zm-9.6 0h-9v-35.2h8.9v35.2zm-11.9 0h-11.5v-35.2h11.5v35.2zm-14.5 0h-16.1v-35.2h16.1v35.2zm-19 0h-23.1v-35.2h23.1v35.2zm-26.1 0h-41.7v-35.2h41.7v35.2zm-44.6 0h-3.7v-35.2h3.7v35.2zm-6.7 0H394v-35.2h5.2v35.2zm-8.2 0h-5.2v-35.2h5.2v35.2zm-8.2 0h-6.7v-35.2h6.7v35.2zm-9.6 0h-8.9v-35.2h8.9v35.2zm-12 0h-11.9v-35.2h11.9v35.2zm-14.8 0h-15.6v-35.2h15.6v35.2zm-18.6 0h-23.1v-35.2h23.1v35.2zm-26.1 0H260v-35.2h41.7v35.2zm-44.6 0h-3.7v-35.2h3.7v35.2zm-6.7 0h-5.2v-35.2h5.2v35.2zm-8.2 0H237v-35.2h5.2v35.2zm-8.2 0h-6.7v-35.2h6.7v35.2zm-9.7 0h-8.9v-35.2h8.9v35.2zm-11.9 0h-11.9v-35.2h11.9v35.2zm-14.9 0h-15.6v-35.2h15.6v35.2zm0 1V259h-15.6v-35.2h15.6zm0 38.2v35.2h-15.6V262h15.6zm0 36.2v35.2h-15.6v-35.2h15.6zm3 0h11.9v35.2h-11.9v-35.2zm14.9 0h8.9v35.2h-8.9v-35.2zm11.9 0h6.7v35.2h-6.7v-35.2zm9.7 0h5.2v35.2H237v-35.2zm8.2 0h5.2v35.2h-5.2v-35.2zm8.2 0h3.7v35.2h-3.7v-35.2zm6.6 0h41.7v35.2H260v-35.2zm44.7 0h23.1v35.2h-23.1v-35.2zm26 0h15.6v35.2h-15.6v-35.2zm18.6 0h11.9v35.2h-11.9v-35.2zm14.9 0h8.9v35.2h-8.9v-35.2zm11.9 0h6.7v35.2h-6.7v-35.2zm9.7 0h5.2v35.2h-5.2v-35.2zm8.2 0h5.2v35.2H394v-35.2zm8.2 0h3.7v35.2h-3.7v-35.2zm6.7 0h41.7v35.2h-41.7v-35.2zm44.6 0h23.1v35.2h-23.1v-35.2zm26.1 0h16.1v35.2h-16.1v-35.2zm19 0h11.5v35.2h-11.5v-35.2zm14.4 0h8.9v35.2H513v-35.2zm11.9 0h6.7v35.2h-6.7v-35.2zm9.7 0h5.2v35.2h-5.2v-35.2zm8.2 0h5.2v35.2h-5.2v-35.2zm8.2 0h3.7v35.2H551v-35.2zm6.7 0h41.7v35.2h-41.7v-35.2zm44.6 0h23.1v35.2h-23.1v-35.2zm26.1 0H644v35.2h-15.6v-35.2zm18.6 0h11.9v35.2H647v-35.2zm14.9 0h8.9v35.2h-8.9v-35.2zm11.9 0h6.7v35.2h-6.7v-35.2zm0-1V262h6.7v35.2h-6.7zm0-38.2v-35.2h6.7V259h-6.7zm0-36.2v-35.2h6.7v35.2h-6.7zm0-38.2v-35.2h6.7v35.2h-6.7zm-3 0h-8.9v-35.2h8.9v35.2zm-11.9 0H647v-35.2h11.9v35.2zm-14.9 0h-15.6v-35.2H644v35.2zm-18.6 0h-23.1v-35.2h23.1v35.2zm-26 0h-41.7v-35.2h41.7v35.2zm-44.7 0H551v-35.2h3.7v35.2zm-6.7 0h-5.2v-35.2h5.2v35.2zm-8.2 0h-5.2v-35.2h5.2v35.2zm-8.2 0h-6.7v-35.2h6.7v35.2zm-9.6 0h-9v-35.2h8.9v35.2zm-11.9 0h-11.5v-35.2h11.5v35.2zm-14.5 0h-16.1v-35.2h16.1v35.2zm-19 0h-23.1v-35.2h23.1v35.2zm-26.1 0h-41.7v-35.2h41.7v35.2zm-44.6 0h-3.7v-35.2h3.7v35.2zm-6.7 0H394v-35.2h5.2v35.2zm-8.2 0h-5.2v-35.2h5.2v35.2zm-8.2 0h-6.7v-35.2h6.7v35.2zm-9.6 0h-8.9v-35.2h8.9v35.2zm-12 0h-11.9v-35.2h11.9v35.2zm-14.8 0h-15.6v-35.2h15.6v35.2zm-18.6 0h-23.1v-35.2h23.1v35.2zm-26.1 0H260v-35.2h41.7v35.2zm-44.6 0h-3.7v-35.2h3.7v35.2zm-6.7 0h-5.2v-35.2h5.2v35.2zm-8.2 0H237v-35.2h5.2v35.2zm-8.2 0h-6.7v-35.2h6.7v35.2zm-9.7 0h-8.9v-35.2h8.9v35.2zm-11.9 0h-11.9v-35.2h11.9v35.2zm-14.9 0h-15.6v-35.2h15.6v35.2zm-15.6 151.8h15.6v35.2h-15.6v-35.2zm18.6 0h11.9v35.2h-11.9v-35.2zm14.9 0h8.9v35.2h-8.9v-35.2zm11.9 0h6.7v35.2h-6.7v-35.2zm9.7 0h5.2v35.2H237v-35.2zm8.2 0h5.2v35.2h-5.2v-35.2zm8.2 0h3.7v35.2h-3.7v-35.2zm6.6 0h41.7v35.2H260v-35.2zm44.7 0h23.1v35.2h-23.1v-35.2zm26 0h15.6v35.2h-15.6v-35.2zm18.6 0h11.9v35.2h-11.9v-35.2zm14.9 0h8.9v35.2h-8.9v-35.2zm11.9 0h6.7v35.2h-6.7v-35.2zm9.7 0h5.2v35.2h-5.2v-35.2zm8.2 0h5.2v35.2H394v-35.2zm8.2 0h3.7v35.2h-3.7v-35.2zm6.7 0h41.7v35.2h-41.7v-35.2zm44.6 0h23.1v35.2h-23.1v-35.2zm26.1 0h16.1v35.2h-16.1v-35.2zm19 0h11.5v35.2h-11.5v-35.2zm14.4 0h8.9v35.2H513v-35.2zm11.9 0h6.7v35.2h-6.7v-35.2zm9.7 0h5.2v35.2h-5.2v-35.2zm8.2 0h5.2v35.2h-5.2v-35.2zm8.2 0h3.7v35.2H551v-35.2zm6.7 0h41.7v35.2h-41.7v-35.2zm44.6 0h23.1v35.2h-23.1v-35.2zm26.1 0H644v35.2h-15.6v-35.2zm18.6 0h11.9v35.2H647v-35.2zm14.9 0h8.9v35.2h-8.9v-35.2zm11.9 0h6.7v35.2h-6.7v-35.2zm9.6 0h5.2v35.2h-5.2v-35.2zm0-3v-35.2h5.2v35.2h-5.2zm0-36.2V262h5.2v35.2h-5.2zm0-38.2v-35.2h5.2V259h-5.2zm0-36.2v-35.2h5.2v35.2h-5.2zm0-38.2v-35.2h5.2v35.2h-5.2zm0-36.2v-35.2h5.2v35.2h-5.2zm-2.9 0h-6.7v-35.2h6.7v35.2zm-9.7 0h-8.9v-35.2h8.9v35.2zm-11.9 0H647v-35.2h11.9v35.2zm-14.9 0h-15.6v-35.2H644v35.2zm-18.6 0h-23.1v-35.2h23.1v35.2zm-26 0h-41.7v-35.2h41.7v35.2zm-44.7 0H551v-35.2h3.7v35.2zm-6.7 0h-5.2v-35.2h5.2v35.2zm-8.2 0h-5.2v-35.2h5.2v35.2zm-8.2 0h-6.7v-35.2h6.7v35.2zm-9.6 0h-9v-35.2h8.9v35.2zm-11.9 0h-11.5v-35.2h11.5v35.2zm-14.5 0h-16.1v-35.2h16.1v35.2zm-19 0h-23.1v-35.2h23.1v35.2zm-26.1 0h-41.7v-35.2h41.7v35.2zm-44.6 0h-3.7v-35.2h3.7v35.2zm-6.7 0H394v-35.2h5.2v35.2zm-8.2 0h-5.2v-35.2h5.2v35.2zm-8.2 0h-6.7v-35.2h6.7v35.2zm-9.6 0h-8.9v-35.2h8.9v35.2zm-12 0h-11.9v-35.2h11.9v35.2zm-14.8 0h-15.6v-35.2h15.6v35.2zm-18.6 0h-23.1v-35.2h23.1v35.2zm-26.1 0H260v-35.2h41.7v35.2zm-44.6 0h-3.7v-35.2h3.7v35.2zm-6.7 0h-5.2v-35.2h5.2v35.2zm-8.2 0H237v-35.2h5.2v35.2zm-8.2 0h-6.7v-35.2h6.7v35.2zm-9.7 0h-8.9v-35.2h8.9v35.2zm-11.9 0h-11.9v-35.2h11.9v35.2zm-14.9 0h-15.6v-35.2h15.6v35.2zm-15.6 224.2h15.6v35.2h-15.6v-35.2zm18.6 0h11.9v35.2h-11.9v-35.2zm14.9 0h8.9v35.2h-8.9v-35.2zm11.9 0h6.7v35.2h-6.7v-35.2zm9.7 0h5.2v35.2H237v-35.2zm8.2 0h5.2v35.2h-5.2v-35.2zm8.2 0h3.7v35.2h-3.7v-35.2zm6.6 0h41.7v35.2H260v-35.2zm44.7 0h23.1v35.2h-23.1v-35.2zm26 0h15.6v35.2h-15.6v-35.2zm18.6 0h11.9v35.2h-11.9v-35.2zm14.9 0h8.9v35.2h-8.9v-35.2zm11.9 0h6.7v35.2h-6.7v-35.2zm9.7 0h5.2v35.2h-5.2v-35.2zm8.2 0h5.2v35.2H394v-35.2zm8.2 0h3.7v35.2h-3.7v-35.2zm6.7 0h41.7v35.2h-41.7v-35.2zm44.6 0h23.1v35.2h-23.1v-35.2zm26.1 0h16.1v35.2h-16.1v-35.2zm19 0h11.5v35.2h-11.5v-35.2zm14.4 0h8.9v35.2H513v-35.2zm11.9 0h6.7v35.2h-6.7v-35.2zm9.7 0h5.2v35.2h-5.2v-35.2zm8.2 0h5.2v35.2h-5.2v-35.2zm8.2 0h3.7v35.2H551v-35.2zm6.7 0h41.7v35.2h-41.7v-35.2zm44.6 0h23.1v35.2h-23.1v-35.2zm26.1 0H644v35.2h-15.6v-35.2zm18.6 0h11.9v35.2H647v-35.2zm14.9 0h8.9v35.2h-8.9v-35.2zm11.9 0h6.7v35.2h-6.7v-35.2zm9.6 0h5.2v35.2h-5.2v-35.2zm8.2 0h5.2v35.2h-5.2v-35.2zm0-1v-35.2h5.2v35.2h-5.2zm0-38.2v-35.2h5.2v35.2h-5.2zm0-36.2V262h5.2v35.2h-5.2zm0-38.2v-35.2h5.2V259h-5.2zm0-36.2v-35.2h5.2v35.2h-5.2zm0-38.2v-35.2h5.2v35.2h-5.2zm0-36.2v-35.2h5.2v35.2h-5.2zm0-38.2V75h5.2v35.2h-5.2zm-3 0h-5.2V75h5.2v35.2zm-8.1 0h-6.7V75h6.7v35.2zm-9.7 0h-8.9V75h8.9v35.2zm-11.9 0H647V75h11.9v35.2zm-14.9 0h-15.6V75H644v35.2zm-18.6 0h-23.1V75h23.1v35.2zm-26 0h-41.7V75h41.7v35.2zm-44.7 0H551V75h3.7v35.2zm-6.7 0h-5.2V75h5.2v35.2zm-8.2 0h-5.2V75h5.2v35.2zm-8.2 0h-6.7V75h6.7v35.2zm-9.6 0h-9V75h8.9v35.2zm-11.9 0h-11.5V75h11.5v35.2zm-14.5 0h-16.1V75h16.1v35.2zm-19 0h-23.1V75h23.1v35.2zm-26.1 0h-41.7V75h41.7v35.2zm-44.6 0h-3.7V75h3.7v35.2zm-6.7 0H394V75h5.2v35.2zm-8.2 0h-5.2V75h5.2v35.2zm-8.2 0h-6.7V75h6.7v35.2zm-9.6 0h-8.9V75h8.9v35.2zm-12 0h-11.9V75h11.9v35.2zm-14.8 0h-15.6V75h15.6v35.2zm-18.6 0h-23.1V75h23.1v35.2zm-26.1 0H260V75h41.7v35.2zm-44.6 0h-3.7V75h3.7v35.2zm-6.7 0h-5.2V75h5.2v35.2zm-8.2 0H237V75h5.2v35.2zm-8.2 0h-6.7V75h6.7v35.2zm-9.7 0h-8.9V75h8.9v35.2zm-11.9 0h-11.9V75h11.9v35.2zm-14.9 0h-15.6V75h15.6v35.2zm-18.6 0h-23.1V75h23.1v35.2zm0 3v35.2h-23.1v-35.2h23.1zm0 36.2v35.2h-23.1v-35.2h23.1zm0 38.2v35.2h-23.1v-35.2h23.1zm0 36.2V259h-23.1v-35.2h23.1zm0 38.2v35.2h-23.1V262h23.1zm0 36.2v35.2h-23.1v-35.2h23.1zm0 38.2v35.2h-23.1v-35.2h23.1zm0 36.2v35.2h-23.1v-35.2h23.1zm0 38.2V446h-23.1v-35.2h23.1zm3 0h15.6V446h-15.6v-35.2zm18.6 0h11.9V446h-11.9v-35.2zm14.9 0h8.9V446h-8.9v-35.2zm11.9 0h6.7V446h-6.7v-35.2zm9.7 0h5.2V446H237v-35.2zm8.2 0h5.2V446h-5.2v-35.2zm8.2 0h3.7V446h-3.7v-35.2zm6.6 0h41.7V446H260v-35.2zm44.7 0h23.1V446h-23.1v-35.2zm26 0h15.6V446h-15.6v-35.2zm18.6 0h11.9V446h-11.9v-35.2zm14.9 0h8.9V446h-8.9v-35.2zm11.9 0h6.7V446h-6.7v-35.2zm9.7 0h5.2V446h-5.2v-35.2zm8.2 0h5.2V446H394v-35.2zm8.2 0h3.7V446h-3.7v-35.2zm6.7 0h41.7V446h-41.7v-35.2zm44.6 0h23.1V446h-23.1v-35.2zm26.1 0h16.1V446h-16.1v-35.2zm19 0h11.5V446h-11.5v-35.2zm14.4 0h8.9V446H513v-35.2zm11.9 0h6.7V446h-6.7v-35.2zm9.7 0h5.2V446h-5.2v-35.2zm8.2 0h5.2V446h-5.2v-35.2zm8.2 0h3.7V446H551v-35.2zm6.7 0h41.7V446h-41.7v-35.2zm44.6 0h23.1V446h-23.1v-35.2zm26.1 0H644V446h-15.6v-35.2zm18.6 0h11.9V446H647v-35.2zm14.9 0h8.9V446h-8.9v-35.2zm11.9 0h6.7V446h-6.7v-35.2zm9.6 0h5.2V446h-5.2v-35.2zm8.2 0h5.2V446h-5.2v-35.2zm8.2 0h3.7V446h-3.7v-35.2zm0-3v-35.2h3.7v35.2h-3.7zm0-36.2v-35.2h3.7v35.2h-3.7zm0-38.2v-35.2h3.7v35.2h-3.7zm0-36.2V262h3.7v35.2h-3.7zm0-38.2v-35.2h3.7V259h-3.7zm0-36.2v-35.2h3.7v35.2h-3.7zm0-38.2v-35.2h3.7v35.2h-3.7zm0-36.2v-35.2h3.7v35.2h-3.7zm0-38.2V75h3.7v35.2h-3.7zm0-36.2V38.8h3.7V74h-3.7zm-3 0h-5.2V38.8h5.2V74zm-8.2 0h-5.2V38.8h5.2V74zm-8.1 0h-6.7V38.8h6.7V74zm-9.7 0h-8.9V38.8h8.9V74zm-11.9 0H647V38.8h11.9V74zM644 74h-15.6V38.8H644V74zm-18.6 0h-23.1V38.8h23.1V74zm-26 0h-41.7V38.8h41.7V74zm-44.7 0H551V38.8h3.7V74zm-6.7 0h-5.2V38.8h5.2V74zm-8.2 0h-5.2V38.8h5.2V74zm-8.2 0h-6.7V38.8h6.7V74zm-9.6 0h-9V38.8h8.9V74zm-11.9 0h-11.5V38.8h11.5V74zm-14.5 0h-16.1V38.8h16.1V74zm-19 0h-23.1V38.8h23.1V74zm-26.1 0h-41.7V38.8h41.7V74zm-44.6 0h-3.7V38.8h3.7V74zm-6.7 0H394V38.8h5.2V74zm-8.2 0h-5.2V38.8h5.2V74zm-8.2 0h-6.7V38.8h6.7V74zm-9.6 0h-8.9V38.8h8.9V74zm-12 0h-11.9V38.8h11.9V74zm-14.8 0h-15.6V38.8h15.6V74zm-18.6 0h-23.1V38.8h23.1V74zm-26.1 0H260V38.8h41.7V74zm-44.6 0h-3.7V38.8h3.7V74zm-6.7 0h-5.2V38.8h5.2V74zm-8.2 0H237V38.8h5.2V74zm-8.2 0h-6.7V38.8h6.7V74zm-9.7 0h-8.9V38.8h8.9V74zm-11.9 0h-11.9V38.8h11.9V74zm-14.9 0h-15.6V38.8h15.6V74zm-18.6 0h-23.1V38.8h23.1V74zm-23 373H179v35.2h-23.1V447zm26 0h15.6v35.2h-15.6V447zm18.6 0h11.9v35.2h-11.9V447zm14.9 0h8.9v35.2h-8.9V447zm11.9 0h6.7v35.2h-6.7V447zm9.7 0h5.2v35.2H237V447zm8.2 0h5.2v35.2h-5.2V447zm8.2 0h3.7v35.2h-3.7V447zm6.6 0h41.7v35.2H260V447zm44.7 0h23.1v35.2h-23.1V447zm26 0h15.6v35.2h-15.6V447zm18.6 0h11.9v35.2h-11.9V447zm14.9 0h8.9v35.2h-8.9V447zm11.9 0h6.7v35.2h-6.7V447zm9.7 0h5.2v35.2h-5.2V447zm8.2 0h5.2v35.2H394V447zm8.2 0h3.7v35.2h-3.7V447zm6.7 0h41.7v35.2h-41.7V447zm44.6 0h23.1v35.2h-23.1V447zm26.1 0h16.1v35.2h-16.1V447zm19 0h11.5v35.2h-11.5V447zm14.4 0h8.9v35.2H513V447zm11.9 0h6.7v35.2h-6.7V447zm9.7 0h5.2v35.2h-5.2V447zm8.2 0h5.2v35.2h-5.2V447zm8.2 0h3.7v35.2H551V447zm6.7 0h41.7v35.2h-41.7V447zm44.6 0h23.1v35.2h-23.1V447zm26.1 0H644v35.2h-15.6V447zm18.6 0h11.9v35.2H647V447zm14.9 0h8.9v35.2h-8.9V447zm11.9 0h6.7v35.2h-6.7V447zm9.6 0h5.2v35.2h-5.2V447zm8.2 0h5.2v35.2h-5.2V447zm8.2 0h3.7v35.2h-3.7V447zm-543.9 73.4v-35.2H179v35.2h-23.1zm26 0v-35.2h15.6v35.2h-15.6zm18.6 0v-35.2h11.9v35.2h-11.9zm14.9 0v-35.2h8.9v35.2h-8.9zm11.9 0v-35.2h6.7v35.2h-6.7zm9.7 0v-35.2h5.2v35.2H237zm8.2 0v-35.2h5.2v35.2h-5.2zm8.2 0v-35.2h3.7v35.2h-3.7zm6.6 0v-35.2h41.7v35.2H260zm44.7 0v-35.2h23.1v35.2h-23.1zm26 0v-35.2h15.6v35.2h-15.6zm18.6 0v-35.2h11.9v35.2h-11.9zm14.9 0v-35.2h8.9v35.2h-8.9zm11.9 0v-35.2h6.7v35.2h-6.7zm9.7 0v-35.2h5.2v35.2h-5.2zm8.2 0v-35.2h5.2v35.2H394zm8.2 0v-35.2h3.7v35.2h-3.7zm6.7 0v-35.2h41.7v35.2h-41.7zm44.6 0v-35.2h23.1v35.2h-23.1zm26.1 0v-35.2h16.1v35.2h-16.1zm19 0v-35.2h11.5v35.2h-11.5zm14.4 0v-35.2h8.9v35.2H513zm11.9 0v-35.2h6.7v35.2h-6.7zm9.7 0v-35.2h5.2v35.2h-5.2zm8.2 0v-35.2h5.2v35.2h-5.2zm8.2 0v-35.2h3.7v35.2H551zm6.7 0v-35.2h41.7v35.2h-41.7zm44.6 0v-35.2h23.1v35.2h-23.1zm26.1 0v-35.2H644v35.2h-15.6zm18.6 0v-35.2h11.9v35.2H647zm14.9 0v-35.2h8.9v35.2h-8.9zm11.9 0v-35.2h6.7v35.2h-6.7zm9.6 0v-35.2h5.2v35.2h-5.2zm8.2 0v-35.2h5.2v35.2h-5.2zm8.2 0v-35.2h3.7v35.2h-3.7z"></path>
    <g id="A_scale" transform="matrix(.0744 0 0 .0744 -323.476 -351.052)">
    <g id="g1641">
    <path id="path1643" class="st1" d="M6406.1 12199.8l119-338 23 8 24 9-118 337-24-8-24-8z"></path>
    <path id="path1645" class="st1" d="M6548.1 11869.8l-23-8 23 8z"></path>
    <path id="path1647" class="st1" d="M6525.1 11861.8l152-411 24 9 23 8-152 411-24-9-23-8z"></path>
    <path id="path1649" class="st1" d="M6701.1 11459.7l-24-9v-1l24 10z"></path>
    <path id="path1651" class="st1" d="M6677.1 11449.7l162-418 24 9 23 9-162 419-23-9-24-10z"></path>
    <path id="path1653" class="st1" d="M6863.1 11040.7l-24-9 24 9z"></path>
    <path id="path1655" class="st1" d="M6839.1 11031.7l148-360 23 9 23 9-147 361-23-10-24-9z"></path>
    <path id="path1657" class="st1" d="M7010.1 10680.7l-23-9v-2l23 11z"></path>
    <path id="path1659" class="st1" d="M6987.1 10669.7l150-321 22 11 23 10-149 322-23-11-23-11z"></path><path id="path1661" class="st1" d="M7159.1 10359.7l-22-11v-1l22 12z"></path><path id="path1663" class="st1" d="M7137.1 10347.7l175-345 23 11 22 12-175 345-23-11-22-12z"></path><path id="path1665" class="st1" d="M7335.1 10013.7l-23-11 23 11z"></path><path id="path1667" class="st1" d="M7312.1 10002.7l280-527 22 12 22 12-279 526-22-12-23-11z"></path><path id="path1669" class="st1" d="M7614.1 9487.7l22 11v1l-22-12z"></path><path id="path1671" class="st1" d="M7592.1 9476.7l58-116 22 11 23 11-59 116-22-11-22-11z"></path><path id="path1673" class="st1" d="M7672.1 9371.7l23 10v1l-23-11z"></path><path id="path1675" class="st1" d="M7649.1 9361.7l32-70 23 11 22 10-31 69-23-10-23-10z"></path><path id="path1677" class="st1" d="M7704.1 9302.7l-23-11 23 11z"></path><path id="path1679" class="st1" d="M7681.1 9291.7l16-33 23 11 22 11-16 33-22-11-23-11z"></path><path id="path1681" class="st1" d="M7720.1 9269.7l-23-11 1-1 22 12z"></path><path id="path1683" class="st1" d="M7698.1 9257.7l21-40 22 12 22 12-21 40-22-12-22-12z"></path><path id="path1685" class="st1" d="M7741.1 9229.7l-22-12 1-1 21 13z"></path><path id="path1687" class="st1" d="M7720.1 9216.7l77-126 21 13 21 13-76 126-22-13-21-13z"></path><path id="path1689" class="st1" d="M7818.1 9103.7l-21-13v-1l21 14z"></path><path id="path1691" class="st1" d="M7797.1 9089.7l143-216 21 14 21 14-143 216-21-14-21-14z"></path><path id="path1693" class="st1" d="M7961.1 8887.7l-21-14 1-1 20 15z"></path><path id="path1695" class="st1" d="M7941.1 8872.7l141-193 20 15 20 15-141 193-20-15-20-15z"></path><path id="path1697" class="st1" d="M8102.1 8694.7l-20-15v-1l20 16z"></path><path id="path1699" class="st1" d="M8082.1 8678.7l148-186 20 15 19 16-148 186-19-15-20-16z"></path><path id="path1701" class="st1" d="M8250.1 8507.7l-20-15 1-1 19 16z"></path><path id="path1703" class="st1" d="M8231.1 8491.7l164-196 19 16 19 16-164 196-19-16-19-16z"></path><path id="path1705" class="st1" d="M8414.1 8311.7l-19-16 19 16z"></path><path id="path1707" class="st1" d="M8395.1 8295.7l232-274 19 17 19 16-232 273-19-16-19-16z"></path><path id="path1709" class="st1" d="M8646.1 8038.7l-19-17 1-1 18 18z"></path><path id="path1711" class="st1" d="M8628.1 8020.7l66-69 18 17 18 17-66 70-18-17-18-18z"></path><path id="path1713" class="st1" d="M8712.1 7968.7l-18-17 1-1 17 18z"></path><path id="path1715" class="st1" d="M8695.1 7950.7l79-78 18 18 17 17-79 79-18-18-17-18z"></path><path id="path1717" class="st1" d="M8792.1 7890.7l-18-18 1-1 17 19z"></path><path id="path1719" class="st1" d="M8775.1 7871.7l219-199 17 18 17 18-220 200-16-18-17-19z"></path><path id="path1721" class="st1" d="M9011.1 7690.7l-17-18 1-1 16 19z"></path><path id="path1723" class="st1" d="M8995.1 7671.7l92-74 16 19 15 20-91 73-16-19-16-19z"></path><path id="path1725" class="st1" d="M9103.1 7616.7l-16-19 1-1 15 20z"></path><path id="path1727" class="st1" d="M9088.1 7596.7l107-75 14 20 14 21-106 75-14-21-15-20z"></path><path id="path1729" class="st1" d="M9209.1 7541.7l-14-20 1-1 13 21z"></path><path id="path1731" class="st1" d="M9196.1 7520.7l114-73 14 21 13 21-115 73-13-21-13-21z"></path><path id="path1733" class="st1" d="M9324.1 7468.7l-14-21 1-1 13 22z"></path><path id="path1735" class="st1" d="M9311.1 7446.7l117-68 13 21 13 22-118 69-12-22-13-22z"></path><path id="path1737" class="st1" d="M9441.1 7399.7l-13-21 1-1 12 22z"></path><path id="path1739" class="st1" d="M9429.1 7377.7l114-61 12 22 12 22-114 61-12-22-12-22z"></path><path id="path1741" class="st1" d="M9555.1 7338.7l-12-22 1-1 11 23z"></path><path id="path1743" class="st1" d="M9544.1 7315.7l105-51 11 22 11 23-105 51-11-22-11-23z"></path><path id="path1745" class="st1" d="M9660.1 7286.7l-11-22 1-1 10 23z"></path><path id="path1747" class="st1" d="M9650.1 7263.7l90-39 10 23 10 23-90 39-10-23-10-23z"></path><path id="path1749" class="st1" d="M9750.1 7247.7l-10-23h1l9 23z"></path><path id="path1751" class="st1" d="M9741.1 7224.7l37-14 9 24 8 23-37 14-8-24-9-23z"></path><path id="path1753" class="st1" d="M9787.1 7234.7l-9-24h1l8 24z"></path><path id="path1755" class="st1" d="M9779.1 7210.7l32-10 7 24 7 24-31 9-7-23-8-24z"></path><path id="path1757" class="st1" d="M9818.1 7224.7l-7-24h1l6 24z"></path><path id="path1759" class="st1" d="M9812.1 7200.7l173-46 6 25 6 24-173 45-6-24-6-24z"></path><path id="path1761" class="st1" d="M9991.1 7179.7l-6-25 6 25z"></path><path id="path1763" class="st1" d="M9985.1 7154.7l141-34 6 24 6 25-141 34-6-24-6-25z"></path><path id="path1765" class="st1" d="M10132.1 7144.7l-6-24h1l5 24z"></path><path id="path1767" class="st1" d="M10127.1 7120.7l67-14 5 25 4 24-66 14-5-25-5-24z"></path><path id="path1769" class="st1" d="M10199.1 7131.7l-5-25 5 25z"></path><path id="path1771" class="st1" d="M10194.1 7106.7l68-11 4 24 4 25-67 11-4-24-5-25z"></path><path id="path1773" class="st1" d="M10266.1 7119.7l-4-24 4 24z"></path><path id="path1775" class="st1" d="M10262.1 7095.7l72-10 3 25 3 25-71 9-3-25-4-24z"></path><path id="path1777" class="st1" d="M10337.1 7110.7l-3-25 3 25z"></path><path id="path1779" class="st1" d="M10334.1 7085.7l78-8 3 25 3 25-79 8-2-25-3-25z"></path><path id="path1781" class="st1" d="M10415.1 7102.7l-3-25h1l2 25z"></path><path id="path1783" class="st1" d="M10413.1 7077.7l105-7 2 25 1 25-104 7-2-25-2-25z"></path><path id="path1785" class="st1" d="M10520.1 7095.7l-2-25h1l1 25z"></path><path id="path1787" class="st1" d="M10519.1 7070.7l101-3v25l1 25-101 3v-25l-1-25z"></path><path id="path1789" class="st1" d="M10620.1 7092.7v-25h1l-1 25z"></path><path id="path1791" class="st1" d="M10621.1 7067.7l97 2v50l-98-2v-25l1-25z"></path><path id="path1793" class="st1" d="M10718.1 7094.7v-25h1l-1 25z"></path><path id="path1795" class="st1" d="M10719.1 7069.7l96 5-1 25-1 25-96-5 1-25 1-25z"></path><path id="path1797" class="st1" d="M10814.1 7099.7l1-25h1l-2 25z"></path><path id="path1799" class="st1" d="M10816.1 7074.7l96 8-2 25-3 25-95-8 2-25 2-25z"></path><path id="path1801" class="st1" d="M10910.1 7107.7l2-25 1 1-3 24z"></path><path id="path1803" class="st1" d="M10913.1 7083.7l96 11-3 25-3 25-96-12 3-25 3-24z"></path><path id="path1805" class="st1" d="M11006.1 7119.7l3-25h1l-4 25z"></path><path id="path1807" class="st1" d="M11010.1 7094.7l201 32-4 25-4 25-201-32 4-25 4-25z"></path><path id="path1809" class="st1" d="M11207.1 7151.7l4-25 1 1-5 24z"></path><path id="path1811" class="st1" d="M11212.1 7127.7l98 20-5 25-5 24-98-21 5-24 5-24z"></path><path id="path1813" class="st1" d="M11305.1 7172.7l5-25 2 1-7 24z"></path><path id="path1815" class="st1" d="M11312.1 7148.7l87 25-6 24-7 24-88-25 7-24 7-24z"></path><path id="path1817" class="st1" d="M11393.1 7197.7l6-24 2 1-8 23z"></path><path id="path1819" class="st1" d="M11401.1 7174.7l79 29-9 24-8 23-79-30 9-23 8-23z"></path><path id="path1821" class="st1" d="M11471.2 7227.7l9-24 2 1-11 23z"></path><path id="path1823" class="st1" d="M11482.2 7204.7l73 35-11 22-10 23-73-35 10-22 11-23z"></path><path id="path1825" class="st1" d="M11544.2 7261.7l11-22h2l-13 22z"></path><path id="path1827" class="st1" d="M11557.2 7239.7l69 40-13 21-12 22-69-39 12-22 13-22z"></path><path id="path1829" class="st1" d="M11613.2 7300.7l13-21h1l-14 21z"></path><path id="path1831" class="st1" d="M11627.2 7279.7l67 44-13 21-14 21-67-44 13-21 14-21z"></path><path id="path1833" class="st1" d="M11681.2 7344.7l13-21 1 1-14 20z"></path><path id="path1835" class="st1" d="M11695.2 7324.7l140 101-15 20-15 20-139-101 15-20 14-20z"></path><path id="path1837" class="st1" d="M11820.2 7445.7l15-20 1 1-16 19z"></path><path id="path1839" class="st1" d="M11836.2 7426.7l80 64-16 20-16 19-80-65 16-19 16-19z"></path><path id="path1841" class="st1" d="M11900.2 7510.7l16-20 1 2-17 18z"></path><path id="path1843" class="st1" d="M11917.2 7492.7l78 72-17 18-17 18-78-72 17-18 17-18z"></path><path id="path1845" class="st1" d="M11978.2 7582.7l17-18h1l-18 18z"></path><path id="path1847" class="st1" d="M11996.2 7564.7l76 79-18 17-18 18-76-79 18-17 18-18z"></path><path id="path1849" class="st1" d="M12054.2 7660.7l18-17 1 1-19 16z"></path><path id="path1851" class="st1" d="M12073.2 7644.7l74 84-19 16-19 17-74-84 19-17 19-16z"></path><path id="path1853" class="st1" d="M12128.2 7744.7l19-16v1l-19 15z"></path><path id="path1855" class="st1" d="M12147.2 7729.7l72 88-19 16-19 16-73-89 20-16 19-15z"></path><path id="path1857" class="st1" d="M12200.2 7833.7l19-16 1 1-20 15z"></path><path id="path1859" class="st1" d="M12220.2 7818.7l71 93-20 16-20 15-71-94 20-15 20-15z"></path><path id="path1861" class="st1" d="M12271.2 7927.7l20-16v1l-20 15z"></path><path id="path1863" class="st1" d="M12291.2 7912.7l137 197-20 14-20 14-138-196 21-14 20-15z"></path>
    </g><g id="g2007"><path id="path2009" class="st1" d="M12552.2 8217.7l24 46-45 23-23-45 44-24z"></path><path id="path2011" class="st1" d="M12599.2 8308.7l24 45-44 23-24-45 44-23z"></path><path id="path2013" class="st1" d="M12647.2 8398.7l23 45-44 24-24-46 45-23z"></path><path id="path2015" class="st1" d="M12694.2 8489.7l24 45-45 23-23-45 44-23z"></path><path id="path2017" class="st1" d="M12741.2 8579.7l24 45-44 23-24-45 44-23z"></path><path id="path2019" class="st1" d="M12789.2 8669.7l21 40-23 12-22 12-21-41 22-11 23-12z"></path><path id="path2021" class="st1" d="M12787.2 8721.7l23-12v2l-23 10z"></path><path id="path2023" class="st1" d="M12810.2 8711.7l3 5-23 10-23 11-2-6 22-10 23-10z"></path><path id="path2025" class="st1" d="M12834.2 8762.7l21 47-46 20-21-46 46-21z"></path><path id="path2027" class="st1" d="M12875.2 8857.7l19 47-47 19-19-47 47-19z"></path><path id="path2029" class="st1" d="M12913.2 8952.7l17 48-47 17-17-48 47-17z"></path><path id="path2031" class="st1" d="M12948.2 9048.7l17 48-47 17-17-48 47-17z"></path><path id="path2033" class="st1" d="M12982.2 9144.7l17 48-47 17-17-48 47-17z"></path><path id="path2035" class="st1" d="M13017.2 9240.7l17 48-47 17-18-48 48-17z"></path><path id="path2037" class="st1" d="M13050.2 9338.7l15 49-48 14-15-49 48-14z"></path><path id="path2039" class="st1" d="M13079.2 9436.7l15 49-48 14-15-49 48-14z"></path><path id="path2041" class="st1" d="M13109.2 9534.7l14 48-48 15-14-49 48-14z"></path><path id="path2043" class="st1" d="M13138.2 9631.7l14 49-48 14-14-48 48-15z"></path><path id="path2045" class="st1" d="M13167.2 9729.7l1 4-24 7-24 8-1-5 24-7 24-7z"></path><path id="path2047" class="st1" d="M13144.2 9740.7l24-7v1l-24 6z"></path><path id="path2049" class="st1" d="M13168.2 9734.7l12 45-24 6-24 7-12-45 24-7 24-6z"></path><path id="path2051" class="st1" d="M13194.2 9828.7l13 49-48 13-13-49 48-13z"></path><path id="path2053" class="st1" d="M13221.2 9926.7l13 50-48 13-14-49 49-14z"></path><path id="path2055" class="st1" d="M13247.2 10025.7l14 49-49 13-13-49 48-13z"></path><path id="path2057" class="st1" d="M13274.2 10123.7l13 50-48 13-13-50 48-13z"></path><path id="path2059" class="st1" d="M13301.2 10222.7l13 49-48 13-13-49 48-13z"></path><path id="path2061" class="st1" d="M13328.2 10320.7l13 49-48 14-14-50 49-13z"></path><path id="path2063" class="st1" d="M13354.2 10419.7l9 31-24 7-24 6-9-31 24-7 24-6z"></path><path id="path2065" class="st1" d="M13339.2 10457.7l24-7v1l-24 6z"></path><path id="path2067" class="st1" d="M13363.2 10451.7l4 17-24 6-24 7-4-18 24-6 24-6z"></path><path id="path2069" class="st1" d="M13380.2 10518.7l13 49-49 12-12-49 48-12z"></path><path id="path2071" class="st1" d="M13405.2 10617.7l13 49-49 12-12-49 48-12z"></path><path id="path2073" class="st1" d="M13430.2 10716.7l13 49-49 12-12-49 48-12z"></path><path id="path2075" class="st1" d="M13455.2 10814.7l13 50-49 12-12-49 48-13z"></path><path id="path2077" class="st1" d="M13480.2 10913.7l13 50-49 12-12-49 48-13z"></path><path id="path2079" class="st1" d="M13505.2 11012.7l13 50-49 12-12-50 48-12z"></path><path id="path2081" class="st1" d="M13530.2 11111.7l13 49-49 13-12-50 48-12z"></path><path id="path2083" class="st1" d="M13555.2 11210.7l13 49-49 13-12-50 48-12z"></path><path id="path2085" class="st1" d="M13580.2 11309.7l2 6-24 6-24 6-2-6 24-6 24-6z"></path><path id="path2087" class="st1" d="M13558.2 11321.7l24-6v1l-24 5z"></path><path id="path2089" class="st1" d="M13582.2 11316.7l10 43-24 6-25 5-10-43 25-6 24-5z"></path><path id="path2091" class="st1" d="M13603.2 11409.7l12 49-49 12-11-50 48-11z"></path><path id="path2093" class="st1" d="M13626.2 11508.7l12 50-49 11-11-50 48-11z"></path><path id="path2095" class="st1" d="M13649.2 11608.7l11 49-48 11-12-49 49-11z"></path><path id="path2097" class="st1" d="M13672.2 11707.7l11 50-49 11-11-50 49-11z"></path><path id="path2099" class="st1" d="M13695.2 11806.7l11 50-49 11-11-49 49-12z"></path><path id="path2101" class="st1" d="M13717.2 11906.8l12 50-49 11-11-50 48-11z"></path><path id="path2103" class="st1" d="M13740.2 12005.8l12 50-49 11-12-50 49-11z"></path><path id="path2105" class="st1" d="M13763.2 12105.8l11 49-48 12-12-50 49-11z"></path></g></g><path id="Axis" class="st0" d="M111.6 556.3v-519h-3.7v520.8h1.8v1.9H705v-3.7z"></path><path class="st0" d="M1391.8 37.3h-1.5v-1.5H795v3h43.2V74H795v1h43.2v35.2H795v3h43.2v35.2H795v1h43.2v35.2H795v3h43.2v35.2H795v1h43.2V259H795v3h43.2v35.2H795v1h43.2v35.2H795v3h43.2v35.2H795v1h43.2v35.2H795v3h43.2V446H795v1h43.2v35.2H795v3h43.2v35.2H795v1h43.2v36.7h3v-36.7h23.1v36.7h3v-36.7h15.6v36.7h3v-36.7h11.9v36.7h3v-36.7h8.9v36.7h3v-36.7h6.7v36.7h3v-36.7h5.2v36.7h3v-36.7h5.2v36.7h3v-36.7h3.7v36.7h3v-36.7H987v36.7h3v-36.7h23.1v36.7h3v-36.7h15.6v36.7h3v-36.7h11.9v36.7h3v-36.7h8.9v36.7h3v-36.7h6.7v36.7h3v-36.7h5.2v36.7h3v-36.7h5.2v36.7h3v-36.7h3.7v36.7h3v-36.7h41.7v36.7h3v-36.7h23.1v36.7h3v-36.7h16.1v36.7h3v-36.7h11.5v36.7h3v-36.7h8.9v36.7h3v-36.7h6.7v36.7h3v-36.7h5.2v36.7h3v-36.7h5.2v36.7h3v-36.7h3.7v36.7h3v-36.7h41.7v36.7h3v-36.7h23.1v36.7h3v-36.7h15.6v36.7h3v-36.7h11.9v36.7h3v-36.7h8.9v36.7h3v-36.7h6.7v36.7h3v-36.7h5.2v36.7h3v-36.7h5.2v36.7h3v-36.7h3.7v36.7h3V37.3zm-3 36.7h-3.7V38.8h3.7V74zm-59.5 185h-15.6v-35.2h15.6V259zm3-35.2h11.9V259h-11.9v-35.2zm-21.6 35.2h-23.1v-35.2h23.1V259zm-26 0H1243v-35.2h41.7V259zm-44.7 0h-3.7v-35.2h3.7V259zm-6.7 0h-5.2v-35.2h5.2V259zm-8.2 0h-5.2v-35.2h5.2V259zm-8.2 0h-6.7v-35.2h6.7V259zm-9.6 0h-8.9v-35.2h8.9V259zm-11.9 0h-11.5v-35.2h11.5V259zm-14.5 0h-16.1v-35.2h16.1V259zm-19 0h-23.1v-35.2h23.1V259zm-26.1 0h-41.7v-35.2h41.7V259zm-44.6 0h-3.7v-35.2h3.7V259zm-6.7 0h-5.2v-35.2h5.2V259zm-8.2 0h-5.2v-35.2h5.2V259zm-8.2 0h-6.7v-35.2h6.7V259zm-9.6 0h-8.9v-35.2h8.9V259zm-11.9 0h-11.9v-35.2h11.9V259zm-14.9 0H1016v-35.2h15.6V259zm-18.6 0H990v-35.2h23.1V259zm-26.1 0h-41.7v-35.2H987V259zm-44.6 0h-3.7v-35.2h3.7V259zm-6.7 0h-5.2v-35.2h5.2V259zm-8.2 0h-5.2v-35.2h5.2V259zm-8.2 0h-6.7v-35.2h6.7V259zm-9.7 0h-8.9v-35.2h8.9V259zm-11.9 0h-11.9v-35.2h11.9V259zm-11.9 3h11.9v35.2h-11.9V262zm14.9 0h8.9v35.2h-8.9V262zm11.9 0h6.7v35.2h-6.7V262zm9.7 0h5.2v35.2h-5.2V262zm8.2 0h5.2v35.2h-5.2V262zm8.2 0h3.7v35.2h-3.7V262zm6.7 0H987v35.2h-41.7V262zm44.6 0h23.1v35.2H990V262zm26 0h15.6v35.2H1016V262zm18.6 0h11.9v35.2h-11.9V262zm14.9 0h8.9v35.2h-8.9V262zm11.9 0h6.7v35.2h-6.7V262zm9.7 0h5.2v35.2h-5.2V262zm8.2 0h5.2v35.2h-5.2V262zm8.2 0h3.7v35.2h-3.7V262zm6.7 0h41.7v35.2h-41.7V262zm44.6 0h23.1v35.2h-23.1V262zm26.1 0h16.1v35.2h-16.1V262zm19 0h11.5v35.2h-11.5V262zm14.4 0h8.9v35.2h-8.9V262zm12 0h6.7v35.2h-6.7V262zm9.6 0h5.2v35.2h-5.2V262zm8.2 0h5.2v35.2h-5.2V262zm8.2 0h3.7v35.2h-3.7V262zm6.7 0h41.7v35.2H1243V262zm44.6 0h23.1v35.2h-23.1V262zm26.1 0h15.6v35.2h-15.6V262zm18.6 0h11.9v35.2h-11.9V262zm14.9 0h8.9v35.2h-8.9V262zm0-3v-35.2h8.9V259h-8.9zm0-36.2v-35.2h8.9v35.2h-8.9zm-3 0h-11.9v-35.2h11.9v35.2zm-14.9 0h-15.6v-35.2h15.6v35.2zm-18.6 0h-23.1v-35.2h23.1v35.2zm-26 0H1243v-35.2h41.7v35.2zm-44.7 0h-3.7v-35.2h3.7v35.2zm-6.7 0h-5.2v-35.2h5.2v35.2zm-8.2 0h-5.2v-35.2h5.2v35.2zm-8.2 0h-6.7v-35.2h6.7v35.2zm-9.6 0h-8.9v-35.2h8.9v35.2zm-11.9 0h-11.5v-35.2h11.5v35.2zm-14.5 0h-16.1v-35.2h16.1v35.2zm-19 0h-23.1v-35.2h23.1v35.2zm-26.1 0h-41.7v-35.2h41.7v35.2zm-44.6 0h-3.7v-35.2h3.7v35.2zm-6.7 0h-5.2v-35.2h5.2v35.2zm-8.2 0h-5.2v-35.2h5.2v35.2zm-8.2 0h-6.7v-35.2h6.7v35.2zm-9.6 0h-8.9v-35.2h8.9v35.2zm-11.9 0h-11.9v-35.2h11.9v35.2zm-14.9 0H1016v-35.2h15.6v35.2zm-18.6 0H990v-35.2h23.1v35.2zm-26.1 0h-41.7v-35.2H987v35.2zm-44.6 0h-3.7v-35.2h3.7v35.2zm-6.7 0h-5.2v-35.2h5.2v35.2zm-8.2 0h-5.2v-35.2h5.2v35.2zm-8.2 0h-6.7v-35.2h6.7v35.2zm-9.7 0h-8.9v-35.2h8.9v35.2zm-11.9 0h-11.9v-35.2h11.9v35.2zm-14.8 0h-15.6v-35.2h15.6v35.2zm0 1V259h-15.6v-35.2h15.6zm0 38.2v35.2h-15.6V262h15.6zm0 36.2v35.2h-15.6v-35.2h15.6zm2.9 0h11.9v35.2h-11.9v-35.2zm14.9 0h8.9v35.2h-8.9v-35.2zm11.9 0h6.7v35.2h-6.7v-35.2zm9.7 0h5.2v35.2h-5.2v-35.2zm8.2 0h5.2v35.2h-5.2v-35.2zm8.2 0h3.7v35.2h-3.7v-35.2zm6.7 0H987v35.2h-41.7v-35.2zm44.6 0h23.1v35.2H990v-35.2zm26 0h15.6v35.2H1016v-35.2zm18.6 0h11.9v35.2h-11.9v-35.2zm14.9 0h8.9v35.2h-8.9v-35.2zm11.9 0h6.7v35.2h-6.7v-35.2zm9.7 0h5.2v35.2h-5.2v-35.2zm8.2 0h5.2v35.2h-5.2v-35.2zm8.2 0h3.7v35.2h-3.7v-35.2zm6.7 0h41.7v35.2h-41.7v-35.2zm44.6 0h23.1v35.2h-23.1v-35.2zm26.1 0h16.1v35.2h-16.1v-35.2zm19 0h11.5v35.2h-11.5v-35.2zm14.4 0h8.9v35.2h-8.9v-35.2zm12 0h6.7v35.2h-6.7v-35.2zm9.6 0h5.2v35.2h-5.2v-35.2zm8.2 0h5.2v35.2h-5.2v-35.2zm8.2 0h3.7v35.2h-3.7v-35.2zm6.7 0h41.7v35.2H1243v-35.2zm44.6 0h23.1v35.2h-23.1v-35.2zm26.1 0h15.6v35.2h-15.6v-35.2zm18.6 0h11.9v35.2h-11.9v-35.2zm14.9 0h8.9v35.2h-8.9v-35.2zm11.9 0h6.7v35.2h-6.7v-35.2zm0-1V262h6.7v35.2h-6.7zm0-38.2v-35.2h6.7V259h-6.7zm0-36.2v-35.2h6.7v35.2h-6.7zm0-38.2v-35.2h6.7v35.2h-6.7zm-3 0h-8.9v-35.2h8.9v35.2zm-11.9 0h-11.9v-35.2h11.9v35.2zm-14.9 0h-15.6v-35.2h15.6v35.2zm-18.6 0h-23.1v-35.2h23.1v35.2zm-26 0H1243v-35.2h41.7v35.2zm-44.7 0h-3.7v-35.2h3.7v35.2zm-6.7 0h-5.2v-35.2h5.2v35.2zm-8.2 0h-5.2v-35.2h5.2v35.2zm-8.2 0h-6.7v-35.2h6.7v35.2zm-9.6 0h-8.9v-35.2h8.9v35.2zm-11.9 0h-11.5v-35.2h11.5v35.2zm-14.5 0h-16.1v-35.2h16.1v35.2zm-19 0h-23.1v-35.2h23.1v35.2zm-26.1 0h-41.7v-35.2h41.7v35.2zm-44.6 0h-3.7v-35.2h3.7v35.2zm-6.7 0h-5.2v-35.2h5.2v35.2zm-8.2 0h-5.2v-35.2h5.2v35.2zm-8.2 0h-6.7v-35.2h6.7v35.2zm-9.6 0h-8.9v-35.2h8.9v35.2zm-11.9 0h-11.9v-35.2h11.9v35.2zm-14.9 0H1016v-35.2h15.6v35.2zm-18.6 0H990v-35.2h23.1v35.2zm-26.1 0h-41.7v-35.2H987v35.2zm-44.6 0h-3.7v-35.2h3.7v35.2zm-6.7 0h-5.2v-35.2h5.2v35.2zm-8.2 0h-5.2v-35.2h5.2v35.2zm-8.2 0h-6.7v-35.2h6.7v35.2zm-9.7 0h-8.9v-35.2h8.9v35.2zm-11.9 0h-11.9v-35.2h11.9v35.2zm-14.8 0h-15.6v-35.2h15.6v35.2zm-15.7 151.8h15.6v35.2h-15.6v-35.2zm18.6 0h11.9v35.2h-11.9v-35.2zm14.9 0h8.9v35.2h-8.9v-35.2zm11.9 0h6.7v35.2h-6.7v-35.2zm9.7 0h5.2v35.2h-5.2v-35.2zm8.2 0h5.2v35.2h-5.2v-35.2zm8.2 0h3.7v35.2h-3.7v-35.2zm6.7 0H987v35.2h-41.7v-35.2zm44.6 0h23.1v35.2H990v-35.2zm26 0h15.6v35.2H1016v-35.2zm18.6 0h11.9v35.2h-11.9v-35.2zm14.9 0h8.9v35.2h-8.9v-35.2zm11.9 0h6.7v35.2h-6.7v-35.2zm9.7 0h5.2v35.2h-5.2v-35.2zm8.2 0h5.2v35.2h-5.2v-35.2zm8.2 0h3.7v35.2h-3.7v-35.2zm6.7 0h41.7v35.2h-41.7v-35.2zm44.6 0h23.1v35.2h-23.1v-35.2zm26.1 0h16.1v35.2h-16.1v-35.2zm19 0h11.5v35.2h-11.5v-35.2zm14.4 0h8.9v35.2h-8.9v-35.2zm12 0h6.7v35.2h-6.7v-35.2zm9.6 0h5.2v35.2h-5.2v-35.2zm8.2 0h5.2v35.2h-5.2v-35.2zm8.2 0h3.7v35.2h-3.7v-35.2zm6.7 0h41.7v35.2H1243v-35.2zm44.6 0h23.1v35.2h-23.1v-35.2zm26.1 0h15.6v35.2h-15.6v-35.2zm18.6 0h11.9v35.2h-11.9v-35.2zm14.9 0h8.9v35.2h-8.9v-35.2zm11.9 0h6.7v35.2h-6.7v-35.2zm9.6 0h5.2v35.2h-5.2v-35.2zm0-3v-35.2h5.2v35.2h-5.2zm0-36.2V262h5.2v35.2h-5.2zm0-38.2v-35.2h5.2V259h-5.2zm0-36.2v-35.2h5.2v35.2h-5.2zm0-38.2v-35.2h5.2v35.2h-5.2zm0-36.2v-35.2h5.2v35.2h-5.2zm-2.9 0h-6.7v-35.2h6.7v35.2zm-9.7 0h-8.9v-35.2h8.9v35.2zm-11.9 0h-11.9v-35.2h11.9v35.2zm-14.9 0h-15.6v-35.2h15.6v35.2zm-18.6 0h-23.1v-35.2h23.1v35.2zm-26 0H1243v-35.2h41.7v35.2zm-44.7 0h-3.7v-35.2h3.7v35.2zm-6.7 0h-5.2v-35.2h5.2v35.2zm-8.2 0h-5.2v-35.2h5.2v35.2zm-8.2 0h-6.7v-35.2h6.7v35.2zm-9.6 0h-8.9v-35.2h8.9v35.2zm-11.9 0h-11.5v-35.2h11.5v35.2zm-14.5 0h-16.1v-35.2h16.1v35.2zm-19 0h-23.1v-35.2h23.1v35.2zm-26.1 0h-41.7v-35.2h41.7v35.2zm-44.6 0h-3.7v-35.2h3.7v35.2zm-6.7 0h-5.2v-35.2h5.2v35.2zm-8.2 0h-5.2v-35.2h5.2v35.2zm-8.2 0h-6.7v-35.2h6.7v35.2zm-9.6 0h-8.9v-35.2h8.9v35.2zm-11.9 0h-11.9v-35.2h11.9v35.2zm-14.9 0H1016v-35.2h15.6v35.2zm-18.6 0H990v-35.2h23.1v35.2zm-26.1 0h-41.7v-35.2H987v35.2zm-44.6 0h-3.7v-35.2h3.7v35.2zm-6.7 0h-5.2v-35.2h5.2v35.2zm-8.2 0h-5.2v-35.2h5.2v35.2zm-8.2 0h-6.7v-35.2h6.7v35.2zm-9.7 0h-8.9v-35.2h8.9v35.2zm-11.9 0h-11.9v-35.2h11.9v35.2zm-14.8 0h-15.6v-35.2h15.6v35.2zm-15.7 224.2h15.6v35.2h-15.6v-35.2zm18.6 0h11.9v35.2h-11.9v-35.2zm14.9 0h8.9v35.2h-8.9v-35.2zm11.9 0h6.7v35.2h-6.7v-35.2zm9.7 0h5.2v35.2h-5.2v-35.2zm8.2 0h5.2v35.2h-5.2v-35.2zm8.2 0h3.7v35.2h-3.7v-35.2zm6.7 0H987v35.2h-41.7v-35.2zm44.6 0h23.1v35.2H990v-35.2zm26 0h15.6v35.2H1016v-35.2zm18.6 0h11.9v35.2h-11.9v-35.2zm14.9 0h8.9v35.2h-8.9v-35.2zm11.9 0h6.7v35.2h-6.7v-35.2zm9.7 0h5.2v35.2h-5.2v-35.2zm8.2 0h5.2v35.2h-5.2v-35.2zm8.2 0h3.7v35.2h-3.7v-35.2zm6.7 0h41.7v35.2h-41.7v-35.2zm44.6 0h23.1v35.2h-23.1v-35.2zm26.1 0h16.1v35.2h-16.1v-35.2zm19 0h11.5v35.2h-11.5v-35.2zm14.4 0h8.9v35.2h-8.9v-35.2zm12 0h6.7v35.2h-6.7v-35.2zm9.6 0h5.2v35.2h-5.2v-35.2zm8.2 0h5.2v35.2h-5.2v-35.2zm8.2 0h3.7v35.2h-3.7v-35.2zm6.7 0h41.7v35.2H1243v-35.2zm44.6 0h23.1v35.2h-23.1v-35.2zm26.1 0h15.6v35.2h-15.6v-35.2zm18.6 0h11.9v35.2h-11.9v-35.2zm14.9 0h8.9v35.2h-8.9v-35.2zm11.9 0h6.7v35.2h-6.7v-35.2zm9.6 0h5.2v35.2h-5.2v-35.2zm8.2 0h5.2v35.2h-5.2v-35.2zm0-1v-35.2h5.2v35.2h-5.2zm0-38.2v-35.2h5.2v35.2h-5.2zm0-36.2V262h5.2v35.2h-5.2zm0-38.2v-35.2h5.2V259h-5.2zm0-36.2v-35.2h5.2v35.2h-5.2zm0-38.2v-35.2h5.2v35.2h-5.2zm0-36.2v-35.2h5.2v35.2h-5.2zm0-38.2V75h5.2v35.2h-5.2zm-2.9 0h-5.2V75h5.2v35.2zm-8.2 0h-6.7V75h6.7v35.2zm-9.7 0h-8.9V75h8.9v35.2zm-11.9 0h-11.9V75h11.9v35.2zm-14.9 0h-15.6V75h15.6v35.2zm-18.6 0h-23.1V75h23.1v35.2zm-26 0H1243V75h41.7v35.2zm-44.7 0h-3.7V75h3.7v35.2zm-6.7 0h-5.2V75h5.2v35.2zm-8.2 0h-5.2V75h5.2v35.2zm-8.2 0h-6.7V75h6.7v35.2zm-9.6 0h-8.9V75h8.9v35.2zm-11.9 0h-11.5V75h11.5v35.2zm-14.5 0h-16.1V75h16.1v35.2zm-19 0h-23.1V75h23.1v35.2zm-26.1 0h-41.7V75h41.7v35.2zm-44.6 0h-3.7V75h3.7v35.2zm-6.7 0h-5.2V75h5.2v35.2zm-8.2 0h-5.2V75h5.2v35.2zm-8.2 0h-6.7V75h6.7v35.2zm-9.6 0h-8.9V75h8.9v35.2zm-11.9 0h-11.9V75h11.9v35.2zm-14.9 0H1016V75h15.6v35.2zm-18.6 0H990V75h23.1v35.2zm-26.1 0h-41.7V75H987v35.2zm-44.6 0h-3.7V75h3.7v35.2zm-6.7 0h-5.2V75h5.2v35.2zm-8.2 0h-5.2V75h5.2v35.2zm-8.2 0h-6.7V75h6.7v35.2zm-9.7 0h-8.9V75h8.9v35.2zm-11.9 0h-11.9V75h11.9v35.2zm-14.8 0h-15.6V75h15.6v35.2zm-18.7 0h-23.1V75h23.1v35.2zm0 3v35.2h-23.1v-35.2h23.1zm0 36.2v35.2h-23.1v-35.2h23.1zm0 38.2v35.2h-23.1v-35.2h23.1zm0 36.2V259h-23.1v-35.2h23.1zm0 38.2v35.2h-23.1V262h23.1zm0 36.2v35.2h-23.1v-35.2h23.1zm0 38.2v35.2h-23.1v-35.2h23.1zm0 36.2v35.2h-23.1v-35.2h23.1zm0 38.2V446h-23.1v-35.2h23.1zm3 0h15.6V446h-15.6v-35.2zm18.6 0h11.9V446h-11.9v-35.2zm14.9 0h8.9V446h-8.9v-35.2zm11.9 0h6.7V446h-6.7v-35.2zm9.7 0h5.2V446h-5.2v-35.2zm8.2 0h5.2V446h-5.2v-35.2zm8.2 0h3.7V446h-3.7v-35.2zm6.7 0H987V446h-41.7v-35.2zm44.6 0h23.1V446H990v-35.2zm26 0h15.6V446H1016v-35.2zm18.6 0h11.9V446h-11.9v-35.2zm14.9 0h8.9V446h-8.9v-35.2zm11.9 0h6.7V446h-6.7v-35.2zm9.7 0h5.2V446h-5.2v-35.2zm8.2 0h5.2V446h-5.2v-35.2zm8.2 0h3.7V446h-3.7v-35.2zm6.7 0h41.7V446h-41.7v-35.2zm44.6 0h23.1V446h-23.1v-35.2zm26.1 0h16.1V446h-16.1v-35.2zm19 0h11.5V446h-11.5v-35.2zm14.4 0h8.9V446h-8.9v-35.2zm12 0h6.7V446h-6.7v-35.2zm9.6 0h5.2V446h-5.2v-35.2zm8.2 0h5.2V446h-5.2v-35.2zm8.2 0h3.7V446h-3.7v-35.2zm6.7 0h41.7V446H1243v-35.2zm44.6 0h23.1V446h-23.1v-35.2zm26.1 0h15.6V446h-15.6v-35.2zm18.6 0h11.9V446h-11.9v-35.2zm14.9 0h8.9V446h-8.9v-35.2zm11.9 0h6.7V446h-6.7v-35.2zm9.6 0h5.2V446h-5.2v-35.2zm8.2 0h5.2V446h-5.2v-35.2zm8.2 0h3.7V446h-3.7v-35.2zm0-3v-35.2h3.7v35.2h-3.7zm0-36.2v-35.2h3.7v35.2h-3.7zm0-38.2v-35.2h3.7v35.2h-3.7zm0-36.2V262h3.7v35.2h-3.7zm0-38.2v-35.2h3.7V259h-3.7zm0-36.2v-35.2h3.7v35.2h-3.7zm0-38.2v-35.2h3.7v35.2h-3.7zm0-36.2v-35.2h3.7v35.2h-3.7zm0-38.2V75h3.7v35.2h-3.7zm-3-36.2h-5.2V38.8h5.2V74zm-8.1 0h-5.2V38.8h5.2V74zm-8.2 0h-6.7V38.8h6.7V74zm-9.7 0h-8.9V38.8h8.9V74zm-11.9 0h-11.9V38.8h11.9V74zm-14.9 0h-15.6V38.8h15.6V74zm-18.6 0h-23.1V38.8h23.1V74zm-26 0H1243V38.8h41.7V74zm-44.7 0h-3.7V38.8h3.7V74zm-6.7 0h-5.2V38.8h5.2V74zm-8.2 0h-5.2V38.8h5.2V74zm-8.2 0h-6.7V38.8h6.7V74zm-9.6 0h-8.9V38.8h8.9V74zm-11.9 0h-11.5V38.8h11.5V74zm-14.5 0h-16.1V38.8h16.1V74zm-19 0h-23.1V38.8h23.1V74zm-26.1 0h-41.7V38.8h41.7V74zm-44.6 0h-3.7V38.8h3.7V74zm-6.7 0h-5.2V38.8h5.2V74zm-8.2 0h-5.2V38.8h5.2V74zm-8.2 0h-6.7V38.8h6.7V74zm-9.6 0h-8.9V38.8h8.9V74zm-11.9 0h-11.9V38.8h11.9V74zm-14.9 0H1016V38.8h15.6V74zm-18.6 0H990V38.8h23.1V74zM987 74h-41.7V38.8H987V74zm-44.6 0h-3.7V38.8h3.7V74zm-6.7 0h-5.2V38.8h5.2V74zm-8.2 0h-5.2V38.8h5.2V74zm-8.2 0h-6.7V38.8h6.7V74zm-9.7 0h-8.9V38.8h8.9V74zm-11.9 0h-11.9V38.8h11.9V74zm-14.8 0h-15.6V38.8h15.6V74zm-18.7 0h-23.1V38.8h23.1V74zm-23 373h23.1v35.2h-23.1V447zm26 0h15.6v35.2h-15.6V447zm18.6 0h11.9v35.2h-11.9V447zm14.9 0h8.9v35.2h-8.9V447zm11.9 0h6.7v35.2h-6.7V447zm9.7 0h5.2v35.2h-5.2V447zm8.2 0h5.2v35.2h-5.2V447zm8.2 0h3.7v35.2h-3.7V447zm6.7 0H987v35.2h-41.7V447zm44.6 0h23.1v35.2H990V447zm26 0h15.6v35.2H1016V447zm18.6 0h11.9v35.2h-11.9V447zm14.9 0h8.9v35.2h-8.9V447zm11.9 0h6.7v35.2h-6.7V447zm9.7 0h5.2v35.2h-5.2V447zm8.2 0h5.2v35.2h-5.2V447zm8.2 0h3.7v35.2h-3.7V447zm6.7 0h41.7v35.2h-41.7V447zm44.6 0h23.1v35.2h-23.1V447zm26.1 0h16.1v35.2h-16.1V447zm19 0h11.5v35.2h-11.5V447zm14.4 0h8.9v35.2h-8.9V447zm12 0h6.7v35.2h-6.7V447zm9.6 0h5.2v35.2h-5.2V447zm8.2 0h5.2v35.2h-5.2V447zm8.2 0h3.7v35.2h-3.7V447zm6.7 0h41.7v35.2H1243V447zm44.6 0h23.1v35.2h-23.1V447zm26.1 0h15.6v35.2h-15.6V447zm18.6 0h11.9v35.2h-11.9V447zm14.9 0h8.9v35.2h-8.9V447zm11.9 0h6.7v35.2h-6.7V447zm9.6 0h5.2v35.2h-5.2V447zm8.2 0h5.2v35.2h-5.2V447zm8.2 0h3.7v35.2h-3.7V447zm-543.9 73.4v-35.2h23.1v35.2h-23.1zm26 0v-35.2h15.6v35.2h-15.6zm18.6 0v-35.2h11.9v35.2h-11.9zm14.9 0v-35.2h8.9v35.2h-8.9zm11.9 0v-35.2h6.7v35.2h-6.7zm9.7 0v-35.2h5.2v35.2h-5.2zm8.2 0v-35.2h5.2v35.2h-5.2zm8.2 0v-35.2h3.7v35.2h-3.7zm6.7 0v-35.2H987v35.2h-41.6zm44.6 0v-35.2h23.1v35.2H990zm26 0v-35.2h15.6v35.2H1016zm18.6 0v-35.2h11.9v35.2h-11.9zm14.9 0v-35.2h8.9v35.2h-8.9zm11.9 0v-35.2h6.7v35.2h-6.7zm9.7 0v-35.2h5.2v35.2h-5.2zm8.2 0v-35.2h5.2v35.2h-5.2zm8.2 0v-35.2h3.7v35.2h-3.7zm6.7 0v-35.2h41.7v35.2h-41.7zm44.6 0v-35.2h23.1v35.2h-23.1zm26.1 0v-35.2h16.1v35.2h-16.1zm19 0v-35.2h11.5v35.2h-11.5zm14.4 0v-35.2h8.9v35.2h-8.9zm12 0v-35.2h6.7v35.2h-6.7zm9.6 0v-35.2h5.2v35.2h-5.2zm8.2 0v-35.2h5.2v35.2h-5.2zm8.2 0v-35.2h3.7v35.2h-3.7zm6.7 0v-35.2h41.7v35.2H1243zm44.6 0v-35.2h23.1v35.2h-23.1zm26.1 0v-35.2h15.6v35.2h-15.6zm18.6 0v-35.2h11.9v35.2h-11.9zm14.9 0v-35.2h8.9v35.2h-8.9zm11.9 0v-35.2h6.7v35.2h-6.7zm9.6 0v-35.2h5.2v35.2h-5.2zm8.2 0v-35.2h5.2v35.2h-5.2zm8.2 0v-35.2h3.7v35.2h-3.7z"></path><path id="Axis_1_" class="st0" d="M796.9 556.3v-519h-3.7v520.8h1.8v1.9h595.3v-3.7z"></path><g id="g2183_1_" transform="matrix(.0744 0 0 .0744 -323.476 -351.052)"><path id="path2185_1_" class="st1" d="M15982.6 12174.8l53-183 24 7 24 7-53 183-24-7-24-7z"></path><path id="path2187_1_" class="st1" d="M16059.6 11998.8l-24-7 1-1 23 8z"></path><path id="path2189_1_" class="st1" d="M16036.6 11990.8l44-137 24 8 24 8-45 137-24-8-23-8z"></path><path id="path2191_1_" class="st1" d="M16104.6 11861.8l-24-8 1-1 23 9z"></path><path id="path2193_1_" class="st1" d="M16081.6 11852.8l47-121 23 9 24 9-48 121-23-9-23-9z"></path><path id="path2195_1_" class="st1" d="M16151.6 11740.7l-23-9v-1l23 10z"></path><path id="path2197_1_" class="st1" d="M16128.6 11730.7l61-137 23 10 23 10-61 137-23-10-23-10z"></path><path id="path2199_1_" class="st1" d="M16212.6 11603.7l23 9v1l-23-10z"></path><path id="path2201_1_" class="st1" d="M16189.6 11594.7l47-115 23 10 23 9-47 114-23-9-23-9z"></path><path id="path2203_1_" class="st1" d="M16259.6 11489.7l23 8v1l-23-9z"></path><path id="path2205_1_" class="st1" d="M16235.6 11480.7l73-192 24 8 23 9-73 192-23-8-24-9z"></path><path id="path2207_1_" class="st1" d="M16332.6 11296.7l23 9-23-9z"></path><path id="path2209_1_" class="st1" d="M16308.6 11288.7l189-514 23 8 24 9-189 514-23-9-24-8z"></path><path id="path2211_1_" class="st1" d="M16520.6 10782.7l24 9-24-9z"></path><path id="path2213_1_" class="st1" d="M16497.6 10774.7l189-518 24 9 23 9-189 517-24-9-23-8z"></path><path id="path2215_1_" class="st1" d="M16710.6 10265.7l-24-9 24 9z"></path><path id="path2217_1_" class="st1" d="M16686.6 10256.7l74-195 23 8 24 9-74 196-23-9-24-9z"></path><path id="path2219_1_" class="st1" d="M16783.6 10069.7l-23-8v-1l23 9z"></path><path id="path2221_1_" class="st1" d="M16760.6 10060.7l49-119 23 9 23 9-48 120-24-10-23-9z"></path><path id="path2223_1_" class="st1" d="M16832.6 9950.7l-23-9v-1l23 10z"></path><path id="path2225_1_" class="st1" d="M16809.6 9940.7l25-59 23 9 23 10-25 60-23-10-23-10z"></path><path id="path2227_1_" class="st1" d="M16857.6 9890.7l24 9-1 1-23-10z"></path><path id="path2229_1_" class="st1" d="M16834.6 9881.7l25-63 23 9 24 9-25 63-24-9-23-9z"></path><path id="path2231_1_" class="st1" d="M16882.6 9827.7l24 8v1l-24-9z"></path><path id="path2233_1_" class="st1" d="M16859.6 9818.7l48-135 23 8 24 9-48 135-24-8-23-9z"></path><path id="path2235_1_" class="st1" d="M16930.6 9691.7l24 9-24-9z"></path><path id="path2237_1_" class="st1" d="M16907.6 9683.7l47-137 24 8 23 9-47 137-24-9-23-8z"></path><path id="path2239_1_" class="st1" d="M16978.6 9554.7l-24-8 24 8z"></path><path id="path2241_1_" class="st1" d="M16954.6 9546.7l48-129 23 9 23 9-47 128-23-9-24-8z"></path><path id="path2243_1_" class="st1" d="M17025.6 9426.7l-23-9v-1l23 10z"></path><path id="path2245_1_" class="st1" d="M17002.6 9416.7l44-98 23 11 22 10-43 97-23-10-23-10z"></path><path id="path2247_1_" class="st1" d="M17069.6 9329.7l-23-11 23 11z"></path><path id="path2249_1_" class="st1" d="M17046.6 9318.7l65-130 22 11 23 11-65 130-22-11-23-11z"></path><path id="path2251_1_" class="st1" d="M17133.6 9199.7l-22-11v-1l22 12z"></path><path id="path2253_1_" class="st1" d="M17111.6 9187.7l167-316 23 11 22 12-168 316-22-11-22-12z"></path><path id="path2255_1_" class="st1" d="M17301.6 8882.7l-23-11 1-1 22 12z"></path><path id="path2257_1_" class="st1" d="M17279.6 8870.7l317-572 22 12 22 12-318 572-21-12-22-12z"></path><path id="path2259_1_" class="st1" d="M17618.6 8310.7l-22-12v-1l22 13z"></path><path id="path2261_1_" class="st1" d="M17596.6 8297.7l107-181 21 13 22 12-106 182-22-13-22-13z"></path><path id="path2263_1_" class="st1" d="M17724.6 8129.7l-21-13v-1l21 14z"></path><path id="path2265_1_" class="st1" d="M17703.6 8115.7l145-225 21 14 21 13-145 225-21-13-21-14z"></path><path id="path2267_1_" class="st1" d="M17869.6 7904.7l-21-14 1-1 20 15z"></path><path id="path2269_1_" class="st1" d="M17849.6 7889.7l83-115 20 14 21 15-83 115-21-14-20-15z"></path><path id="path2271_1_" class="st1" d="M17952.6 7788.7l-20-14 1-1 19 15z"></path><path id="path2273_1_" class="st1" d="M17933.6 7773.7l88-110 19 15 20 16-88 110-20-16-19-15z"></path><path id="path2275_1_" class="st1" d="M18040.6 7678.7l-19-15 1-2 18 17z"></path><path id="path2277_1_" class="st1" d="M18022.6 7661.7l91-99 18 17 19 17-91 99-19-17-18-17z"></path><path id="path2279_1_" class="st1" d="M18131.6 7579.7l-18-17 1-1 17 18z"></path><path id="path2281_1_" class="st1" d="M18114.6 7561.7l46-43 18 18 17 18-47 44-17-19-17-18z"></path><path id="path2283_1_" class="st1" d="M18178.6 7536.7l-18-18 2-1 16 19z"></path><path id="path2285_1_" class="st1" d="M18162.6 7517.7l46-39 16 19 16 19-46 39-16-19-16-19z"></path><path id="path2287_1_" class="st1" d="M18224.6 7497.7l-16-19 1-1 15 20z"></path><path id="path2289_1_" class="st1" d="M18209.6 7477.7l79-59 15 20 15 20-79 59-15-20-15-20z"></path><path id="path2291_1_" class="st1" d="M18303.6 7438.7l-15-20 1-1 14 21z"></path><path id="path2293_1_" class="st1" d="M18289.6 7417.7l80-53 14 20 14 21-80 54-14-21-14-21z"></path><path id="path2295_1_" class="st1" d="M18383.6 7384.7l-14-20 1-1 13 21z"></path><path id="path2297_1_" class="st1" d="M18370.6 7363.7l78-48 13 22 13 21-79 48-12-22-13-21z"></path><path id="path2299_1_" class="st1" d="M18461.6 7337.7l-13-22h2l11 22z"></path><path id="path2301_1_" class="st1" d="M18450.6 7315.7l77-41 12 22 12 22-78 41-12-22-11-22z"></path><path id="path2303_1_" class="st1" d="M18539.6 7296.7l-12-22 2-1 10 23z"></path><path id="path2305_1_" class="st1" d="M18529.6 7273.7l76-34 10 23 11 22-77 35-10-23-10-23z"></path><path id="path2307_1_" class="st1" d="M18615.6 7262.7l-10-23 2-1 8 24z"></path><path id="path2309_1_" class="st1" d="M18607.6 7238.7l75-26 8 23 8 24-74 26-9-23-8-24z"></path><path id="path2311_1_" class="st1" d="M18690.6 7235.7l-8-23 2-1 6 24z"></path><path id="path2313_1_" class="st1" d="M18684.6 7211.7l72-18 6 24 6 24-72 18-6-24-6-24z"></path><path id="path2315_1_" class="st1" d="M18762.6 7217.7l-6-24 2-1 4 25z"></path><path id="path2317_1_" class="st1" d="M18758.6 7192.7l35-6 4 25 4 24-35 6-4-24-4-25z"></path><path id="path2319_1_" class="st1" d="M18797.6 7211.7l-4-25h1l3 25z"></path><path id="path2321_1_" class="st1" d="M18794.6 7186.7l34-4 3 25 3 25-34 4-3-25-3-25z"></path><path id="path2323_1_" class="st1" d="M18831.6 7207.7l5 24-2 1-3-25z"></path><path id="path2325_1_" class="st1" d="M18826.6 7183.7l5 24 5 24-5-24-5-24z"></path><path id="path2327_1_" class="st1" d="M18831.6 7207.7l-5-24 5 24z"></path><path id="path2329_1_" class="st1" d="M18826.6 7183.7l5 24 5 24-5-24-5-24z"></path><path id="path2331_1_" class="st1" d="M18831.6 7207.7l-5-24 5 24z"></path><path id="path2333_1_" class="st1" d="M18826.6 7183.7l5 24 5 24-5-24-5-24z"></path><path id="path2335_1_" class="st1" d="M18831.6 7207.7l-5-24 5 24z"></path><path id="path2337_1_" class="st1" d="M18826.6 7183.7l5 24 5 24-5-24-5-24z"></path><path id="path2339_1_" class="st1" d="M18831.6 7207.7l-5-24 5 24z"></path><path id="path2341_1_" class="st1" d="M18826.6 7183.7v-1l5 25 6 24h-1l-5-24-5-24z"></path><path id="path2343_1_" class="st1" d="M18831.6 7207.7l-5-25 5 25z"></path><path id="path2345_1_" class="st1" d="M18826.6 7182.7h1l6 25 5 24h-2l-5-24-5-25z"></path><path id="path2347_1_" class="st1" d="M18833.6 7207.7l-6-25h1l5 25z"></path><path id="path2349_1_" class="st1" d="M18828.6 7182.7l4-1 5 25 5 24-5 1-4-24-5-25z"></path><path id="path2351_1_" class="st1" d="M18837.6 7206.7l-5-25h1l4 25z"></path><path id="path2353_1_" class="st1" d="M18833.6 7181.7l16-3 4 25 5 25-17 2-4-24-4-25z"></path><path id="path2355_1_" class="st1" d="M18853.6 7203.7l-4-25h1l3 25z"></path><path id="path2357_1_" class="st1" d="M18850.6 7178.7l24-3 3 24 4 25-24 4-4-25-3-25z"></path><path id="path2359_1_" class="st1" d="M18877.6 7199.7l-3-24 1-1 2 25z"></path><path id="path2361_1_" class="st1" d="M18875.6 7174.7l30-3 2 25 3 25-30 3-3-25-2-25z"></path><path id="path2363_1_" class="st1" d="M18907.6 7196.7l-2-25h1l1 25z"></path><path id="path2365_1_" class="st1" d="M18906.6 7171.7l33-2 2 25 1 25-33 2-2-25-1-25z"></path><path id="path2367_1_" class="st1" d="M18941.6 7194.7l-2-25h2v25z"></path><path id="path2369_1_" class="st1" d="M18941.6 7169.7l34 1v25l-1 25-34-1 1-25v-25z"></path><path id="path2371_1_" class="st1" d="M18975.6 7195.7v-25h2l-2 25z"></path><path id="path2373_1_" class="st1" d="M18977.6 7170.7l17 1-2 25-3 25-16-1 2-25 2-25z"></path><path id="path2375_1_" class="st1" d="M18992.6 7196.7l2-25 1 1-3 24z"></path><path id="path2377_1_" class="st1" d="M18995.6 7172.7l17 2-4 25-4 24-16-2 4-25 3-24z"></path><path id="path2379_1_" class="st1" d="M19008.6 7199.7l4-25h1l-5 25z"></path><path id="path2381_1_" class="st1" d="M19013.6 7174.7l16 4-6 24-6 25-15-4 6-24 5-25z"></path><path id="path2383_1_" class="st1" d="M19023.6 7202.7l6-24 2 1-8 23z"></path><path id="path2385_1_" class="st1" d="M19031.6 7179.7l14 4-8 24-8 24-14-5 8-24 8-23z"></path><path id="path2387_1_" class="st1" d="M19037.6 7207.7l8-24 3 1-11 23z"></path><path id="path2389_1_" class="st1" d="M19048.6 7184.7l28 14-10 23-11 22-29-13 11-23 11-23z"></path><path id="path2391_1_" class="st1" d="M19066.6 7221.7l10-23 3 2-13 21z"></path><path id="path2393_1_" class="st1" d="M19079.6 7200.7l24 15-14 21-13 21-24-15 14-21 13-21z"></path><path id="path2395_1_" class="st1" d="M19089.6 7236.7l14-21 2 2-16 19z"></path><path id="path2397_1_" class="st1" d="M19105.6 7217.7l20 16-16 19-16 19-20-16 16-19 16-19z"></path><path id="path2399_1_" class="st1" d="M19109.6 7252.7l16-19 2 2-18 17z"></path><path id="path2401_1_" class="st1" d="M19127.6 7235.7l16 17-18 17-18 17-16-17 18-17 18-17z"></path><path id="path2403_1_" class="st1" d="M19125.6 7269.7l18-17 2 2-20 15z"></path><path id="path2405_1_" class="st1" d="M19145.6 7254.7l13 18-20 15-20 15-13-18 20-15 20-15z"></path><path id="path2407_1_" class="st1" d="M19138.6 7287.7l20-15 2 2-22 13z"></path><path id="path2409_1_" class="st1" d="M19160.6 7274.7l11 18-22 13-21 13-11-18 21-13 22-13z"></path><path id="path2411_1_" class="st1" d="M19149.6 7305.7l22-13 1 2-23 11z"></path><path id="path2413_1_" class="st1" d="M19172.6 7294.7l18 36-22 11-23 11-18-36 22-11 23-11z"></path><path id="path2415_1_" class="st1" d="M19168.6 7341.7l-22 11h-1l23-11z"></path><path id="path2417_1_" class="st1" d="M19190.6 7330.7l17 33-22 12-22 11-17-34 22-11 22-11z"></path><path id="path2419_1_" class="st1" d="M19185.6 7375.7l-21 13-1-2 22-11z"></path><path id="path2421_1_" class="st1" d="M19206.6 7361.7l10 16-21 13-21 14-10-16 21-13 21-14z"></path><path id="path2423_1_" class="st1" d="M19195.6 7390.7l-19 16-2-2 21-14z"></path><path id="path2425_1_" class="st1" d="M19215.6 7374.7l11 14-19 16-19 16-12-14 19-16 20-16z"></path><path id="path2427_1_" class="st1" d="M19207.6 7404.7l-17 19-2-3 19-16z"></path><path id="path2429_1_" class="st1" d="M19224.6 7386.7l7 7-17 18-17 18-7-6 17-19 17-18z"></path><path id="path2431_1_" class="st1" d="M19214.6 7411.7l-16 19-1-1 17-18z"></path><path id="path2433_1_" class="st1" d="M19230.6 7391.7l7 7-16 19-15 19-8-6 16-19 16-20z"></path><path id="path2435_1_" class="st1" d="M19221.6 7417.7l-14 21-1-2 15-19z"></path><path id="path2437_1_" class="st1" d="M19235.6 7396.7l9 6-14 21-14 20-9-5 14-21 14-21z"></path><path id="path2439_1_" class="st1" d="M19230.6 7423.7l-13 21-1-1 14-20z"></path><path id="path2441_1_" class="st1" d="M19242.6 7401.7l9 5-12 22-13 21-9-5 13-21 12-22z"></path><path id="path2443_1_" class="st1" d="M19239.6 7428.7l-11 22-2-1 13-21z"></path><path id="path2445_1_" class="st1" d="M19249.6 7405.7l10 4-10 23-11 23-10-5 11-22 10-23z"></path><path id="path2447_1_" class="st1" d="M19249.6 7432.7l-9 24-2-1 11-23z"></path><path id="path2449_1_" class="st1" d="M19257.6 7409.7l11 3-8 24-9 24-11-4 9-24 8-23z"></path><path id="path2451_1_" class="st1" d="M19260.6 7436.7l-6 24h-3l9-24z"></path><path id="path2453_1_" class="st1" d="M19265.6 7412.7l26 6-6 24-6 24-25-6 6-24 5-24z"></path><path id="path2455_1_" class="st1" d="M19285.6 7442.7l-3 25-3-1 6-24z"></path><path id="path2457_1_" class="st1" d="M19288.6 7417.7l14 2-3 25-3 24-14-1 3-25 3-25z"></path><path id="path2459_1_" class="st1" d="M19299.6 7444.7l-1 25-2-1 3-24z"></path><path id="path2461_1_" class="st1" d="M19300.6 7419.7h13v25l-1 25h-14l1-25 1-25z"></path><path id="path2463_1_" class="st1" d="M19313.6 7444.7l1 25h-2l1-25z"></path><path id="path2465_1_" class="st1" d="M19311.6 7419.7l14-1 1 25 2 25-14 1-1-25-2-25z"></path><path id="path2467_1_" class="st1" d="M19326.6 7443.7l4 25h-2l-2-25z"></path><path id="path2469_1_" class="st1" d="M19322.6 7419.7l14-2 4 24 3 25-13 2-4-25-4-24z"></path><path id="path2471_1_" class="st1" d="M19340.6 7441.7l6 24-3 1-3-25z"></path><path id="path2473_1_" class="st1" d="M19333.6 7417.7l26-7 7 24 7 24-27 7-6-24-7-24z"></path><path id="path2475_1_" class="st1" d="M19366.6 7434.7l10 23-3 1-7-24z"></path><path id="path2477_1_" class="st1" d="M19356.6 7411.7l26-11 10 23 10 23-26 11-10-23-10-23z"></path><path id="path2479_1_" class="st1" d="M19392.6 7423.7l13 21-3 2-10-23z"></path><path id="path2481_1_" class="st1" d="M19379.6 7401.7l25-15 13 22 13 21-25 15-13-21-13-22z"></path><path id="path2483_1_" class="st1" d="M19417.6 7408.7l15 20-2 1-13-21z"></path><path id="path2485_1_" class="st1" d="M19402.6 7388.7l25-18 15 20 14 20-24 18-15-20-15-20z"></path><path id="path2487_1_" class="st1" d="M19442.6 7390.7l16 19-2 1-14-20z"></path><path id="path2489_1_" class="st1" d="M19425.6 7371.7l24-21 17 19 16 19-24 21-16-19-17-19z"></path><path id="path2491_1_" class="st1" d="M19466.6 7369.7l17 18-1 1-16-19z"></path><path id="path2493_1_" class="st1" d="M19448.6 7351.7l23-22 18 17 17 18-23 23-17-18-18-18z"></path><path id="path2495_1_" class="st1" d="M19489.6 7346.7l19 17-2 1-17-18z"></path><path id="path2497_1_" class="st1" d="M19470.6 7330.7l44-51 19 17 19 16-44 51-19-17-19-16z"></path><path id="path2499_1_" class="st1" d="M19533.6 7296.7l20 15-1 1-19-16z"></path><path id="path2501_1_" class="st1" d="M19513.6 7281.7l41-54 20 15 20 15-41 54-20-15-20-15z"></path><path id="path2503_1_" class="st1" d="M19574.6 7242.7l20 14v1l-20-15z"></path><path id="path2505_1_" class="st1" d="M19553.6 7228.7l70-103 21 14 21 14-71 103-20-14-21-14z"></path><path id="path2507_1_" class="st1" d="M19644.6 7139.7l-21-14 21 14z"></path><path id="path2509_1_" class="st1" d="M19623.6 7125.7l49-71 21 14 20 14-48 71-21-14-21-14z"></path><path id="path2511_1_" class="st1" d="M19693.6 7068.7l-21-14 1-1 20 15z"></path><path id="path2513_1_" class="st1" d="M19673.6 7053.7l43-58 20 15 20 15-43 58-20-15-20-15z"></path><path id="path2515_1_" class="st1" d="M19736.6 7010.7l-20-15 1-1 19 16z"></path><path id="path2517_1_" class="st1" d="M19717.6 6994.7l39-48 19 16 20 16-40 48-19-16-19-16z"></path><path id="path2519_1_" class="st1" d="M19775.6 6962.7l-19-16 1-1 18 17z"></path><path id="path2521_1_" class="st1" d="M19757.6 6945.7l39-40 18 17 18 17-39 40-18-17-18-17z"></path><path id="path2523_1_" class="st1" d="M19814.6 6922.7l-18-17 1-2 17 19z"></path><path id="path2525_1_" class="st1" d="M19797.6 6903.7l39-35 17 19 17 18-40 36-16-19-17-19z"></path><path id="path2527_1_" class="st1" d="M19853.6 6887.7l-17-19 2-1 15 20z"></path><path id="path2529_1_" class="st1" d="M19838.6 6867.7l43-34 15 20 16 20-43 33-16-19-15-20z"></path><path id="path2531_1_" class="st1" d="M19896.6 6853.7l-15-20 1-1 14 21z"></path><path id="path2533_1_" class="st1" d="M19882.6 6832.7l106-73 14 21 14 21-106 73-14-21-14-21z"></path><path id="path2535_1_" class="st1" d="M20002.6 6780.7l-14-21 4-2 4-1 4-1h2v25z"></path><path id="path2537_1_" class="st1" d="M20002.6 6755.7h67v50h-67v-50z"></path><path id="path2539_1_" class="st1" d="M20069.6 6780.7v-25h1l-1 25z"></path><path id="path2541_1_" class="st1" d="M20070.6 6755.7l32 1-1 25-1 25-32-1 1-25 1-25z"></path><path id="path2543_1_" class="st1" d="M20101.6 6781.7l1-25h1l-2 25z"></path><path id="path2545_1_" class="st1" d="M20103.6 6756.7l35 3-2 25-2 25-35-3 2-25 2-25z"></path><path id="path2547_1_" class="st1" d="M20136.6 6784.7l2-25h1l-3 25z"></path><path id="path2549_1_" class="st1" d="M20139.6 6759.7l36 4-3 25-3 25-36-4 3-25 3-25z"></path><path id="path2551_1_" class="st1" d="M20172.6 6788.7l3-25h1l-4 25z"></path><path id="path2553_1_" class="st1" d="M20176.6 6763.7l37 6-4 25-4 25-37-6 4-25 4-25z"></path><path id="path2555_1_" class="st1" d="M20209.6 6794.7l4-25 2 1-6 24z"></path><path id="path2557_1_" class="st1" d="M20215.6 6770.7l25 6-6 25-6 24-25-7 6-24 6-24z"></path><path id="path2559_1_" class="st1" d="M20234.6 6801.7l6-25 3 1-9 24z"></path><path id="path2561_1_" class="st1" d="M20243.6 6777.7l24 9-9 24-9 23-24-9 9-23 9-24z"></path><path id="path2563_1_" class="st1" d="M20258.6 6810.7l9-24 2 1-11 23z"></path><path id="path2565_1_" class="st1" d="M20269.6 6787.7l22 12-11 22-11 22-22-11 11-22 11-23z"></path><path id="path2567_1_" class="st1" d="M20280.6 6821.7l11-22 2 1-13 21z"></path><path id="path2569_1_" class="st1" d="M20293.6 6800.7l21 12-13 22-13 21-21-13 13-21 13-21z"></path><path id="path2571_1_" class="st1" d="M20301.6 6834.7l13-22 2 2-15 20z"></path><path id="path2573_1_" class="st1" d="M20316.6 6814.7l19 14-14 20-15 20-19-14 14-20 15-20z"></path><path id="path2575_1_" class="st1" d="M20321.6 6848.7l14-20 2 1-16 19z"></path><path id="path2577_1_" class="st1" d="M20337.6 6829.7l18 15-16 19-16 19-18-15 16-19 16-19z"></path><path id="path2579_1_" class="st1" d="M20339.6 6863.7l16-19 1 1-17 18z"></path><path id="path2581_1_" class="st1" d="M20356.6 6845.7l16 15-17 18-17 19-16-16 17-18 17-18z"></path><path id="path2583_1_" class="st1" d="M20355.6 6878.7l17-18 1 1-18 17z"></path><path id="path2585_1_" class="st1" d="M20373.6 6861.7l15 16-18 17-18 17-15-15 18-18 18-17z"></path><path id="path2587_1_" class="st1" d="M20370.6 6894.7l18-17 1 1-19 16z"></path><path id="path2589_1_" class="st1" d="M20389.6 6878.7l26 30-19 16-20 16-25-30 19-16 19-16z"></path><path id="path2591_1_" class="st1" d="M20396.6 6924.7l19-16 1 1-20 15z"></path><path id="path2593_1_" class="st1" d="M20416.6 6909.7l18 25-20 15-20 15-19-26 21-14 20-15z"></path><path id="path2595_1_" class="st1" d="M20414.6 6949.7l20-15 1 1-21 14z"></path><path id="path2597_1_" class="st1" d="M20435.6 6935.7l11 18-21 13-21 14-11-17 21-14 21-14z"></path><path id="path2599_1_" class="st1" d="M20425.6 6966.7l21-13 1 1-22 12z"></path><path id="path2601_1_" class="st1" d="M20447.6 6954.7l3 5-22 12-21 13-3-5 21-13 22-12z"></path><path id="path2603_1_" class="st1" d="M20428.6 6971.7l22-12-22 12z"></path><path id="path2605_1_" class="st1" d="M20450.6 6959.7v1l-21 13-22 12-1-1 22-13 22-12z"></path><path id="path2607_1_" class="st1" d="M20429.6 6973.7l21-13h1l-22 13z"></path><path id="path2609_1_" class="st1" d="M20451.6 6960.7v1l-22 12-22 12 22-12 22-13z"></path><path id="path2611_1_" class="st1" d="M20429.6 6973.7l22-12-22 12z"></path><path id="path2613_1_" class="st1" d="M20451.6 6961.7l-22 12-22 12 22-12 22-12z"></path><path id="path2615_1_" class="st1" d="M20429.6 6973.7l22-12-22 12z"></path><path id="path2617_1_" class="st1" d="M20451.6 6961.7l-22 12-22 12 22-12 22-12z"></path><path id="path2619_1_" class="st1" d="M20429.6 6973.7l22-12-22 12z"></path><path id="path2621_1_" class="st1" d="M20451.6 6961.7l-22 12-22 12 22-12 22-12z"></path><path id="path2623_1_" class="st1" d="M20429.6 6973.7l22-12-22 12z"></path><path id="path2625_1_" class="st1" d="M20451.6 6961.7l-22 12-22 12 22-12 22-12z"></path><path id="path2627_1_" class="st1" d="M20429.6 6973.7l-21 14-1-2 22-12z"></path><path id="path2629_1_" class="st1" d="M20450.6 6959.7l74 112-21 14-20 14-75-112 21-14 21-14z"></path><path id="path2631_1_" class="st1" d="M20503.6 7085.7l21-14 1 2-22 12z"></path><path id="path2633_1_" class="st1" d="M20525.6 7073.7l32 55-22 13-22 12-31-56 21-12 22-12z"></path><path id="path2635_1_" class="st1" d="M20535.6 7141.7l22-13v1l-22 12z"></path><path id="path2637_1_" class="st1" d="M20557.6 7129.7l32 63-22 12-22 11-32-63 22-11 22-12z"></path><path id="path2639_1_" class="st1" d="M20567.6 7204.7l22-12 1 2-23 10z"></path><path id="path2641_1_" class="st1" d="M20590.6 7194.7l30 69-23 9-23 10-30-68 23-10 23-10z"></path><path id="path2643_1_" class="st1" d="M20597.6 7272.7l23-9v1l-23 8z"></path><path id="path2645_1_" class="st1" d="M20620.6 7264.7l26 73-24 8-24 8-25-72 24-9 23-8z"></path><path id="path2647_1_" class="st1" d="M20622.6 7345.7l24-8v1l-24 7z"></path><path id="path2649_1_" class="st1" d="M20646.6 7338.7l59 207-24 6-24 7-59-206 24-7 24-7z"></path><path id="path2651_1_" class="st1" d="M20681.6 7551.7l24-6v1l-24 5z"></path><path id="path2653_1_" class="st1" d="M20705.6 7546.7l43 178-24 5-24 6-44-178 25-6 24-5z"></path><path id="path2655_1_" class="st1" d="M20724.6 7729.7l24-5-24 5z"></path><path id="path2657_1_" class="st1" d="M20748.6 7724.7l32 154-25 5-24 5-32-154 25-5 24-5z"></path><path id="path2659_1_" class="st1" d="M20755.6 7883.7l25-5v1l-25 4z"></path><path id="path2661_1_" class="st1" d="M20780.6 7879.7l22 132-25 4-25 4-22-132 25-4 25-4z"></path><path id="path2663_1_" class="st1" d="M20777.6 8015.7l25-4-25 4z"></path><path id="path2665_1_" class="st1" d="M20802.6 8011.7l27 216-25 3-25 3-27-215 25-3 25-4z"></path><path id="path2667_1_" class="st1" d="M20804.6 8230.7l25-3-25 3z"></path><path id="path2669_1_" class="st1" d="M20829.6 8227.7l11 91-25 3-24 3-12-91 25-3 25-3z"></path><path id="path2671_1_" class="st1" d="M20815.6 8321.7l-24 4v-1l24-3z"></path><path id="path2673_1_" class="st1" d="M20840.6 8317.7l14 85-25 4-25 4-13-85 24-4 25-4z"></path><path id="path2675_1_" class="st1" d="M20829.6 8406.7l-23 10-1-4-1-2 25-4z"></path><path id="path2677_1_" class="st1" d="M20852.6 8396.7l65 150-23 10-23 10-65-150 23-10 23-10z"></path><path id="path2679_1_" class="st1" d="M20894.6 8556.7l-22 13-1-3 23-10z"></path><path id="path2681_1_" class="st1" d="M20915.6 8543.7l15 24-22 13-21 13-15-24 22-13 21-13z"></path><path id="path2683_1_" class="st1" d="M20908.6 8580.7l-20 14-1-1 21-13z"></path><path id="path2685_1_" class="st1" d="M20929.6 8565.7l15 22-20 15-21 14-15-22 20-14 21-15z"></path><path id="path2687_1_" class="st1" d="M20924.6 8602.7l-19 16-2-2 21-14z"></path><path id="path2689_1_" class="st1" d="M20942.6 8585.7l16 18-18 16-19 17-16-18 19-16 18-17z"></path><path id="path2691_1_" class="st1" d="M20940.6 8619.7l-17 19-2-2 19-17z"></path><path id="path2693_1_" class="st1" d="M20956.6 8601.7l8 7-16 19-17 18-8-7 17-19 16-18z"></path><path id="path2695_1_" class="st1" d="M20948.6 8627.7l-15 20-2-2 17-18z"></path><path id="path2697_1_" class="st1" d="M20962.6 8606.7l8 6-14 21-14 20-9-6 15-20 14-21z"></path><path id="path2699_1_" class="st1" d="M20956.6 8633.7l-12 22-2-2 14-20z"></path><path id="path2701_1_" class="st1" d="M20968.6 8610.7l8 5-12 22-11 22-9-4 12-22 12-23z"></path><path id="path2703_1_" class="st1" d="M20964.6 8637.7l-7 24-4-2 11-22z"></path><path id="path2705_1_" class="st1" d="M20972.6 8613.7l8 3-7 24-8 23-8-2 7-24 8-24z"></path><path id="path2707_1_" class="st1" d="M20973.6 8640.7l-3 24h-4l-1-1 8-23z"></path><path id="path2709_1_" class="st1" d="M20975.6 8615.7l9 1-3 24-3 25-8-1 3-24 2-25z"></path><path id="path2711_1_" class="st1" d="M20981.6 8640.7l3 25h-6l3-25z"></path><path id="path2713_1_" class="st1" d="M20978.6 8616.7l8-1 3 24 3 25-8 1-3-25-3-24z"></path><path id="path2715_1_" class="st1" d="M20989.6 8639.7l9 24-4 1h-2l-3-25z"></path><path id="path2717_1_" class="st1" d="M20980.6 8616.7l9-3 9 23 8 24-8 3-9-24-9-23z"></path><path id="path2719_1_" class="st1" d="M20998.6 8636.7l13 21-4 2-1 1-8-24z"></path><path id="path2721_1_" class="st1" d="M20984.6 8615.7l8-5 14 21 13 21-8 5-13-21-14-21z"></path><path id="path2723_1_" class="st1" d="M21006.6 8631.7l17 18-3 3h-1l-13-21z"></path><path id="path2725_1_" class="st1" d="M20989.6 8613.7l8-8 17 18 17 18-8 8-17-18-17-18z"></path><path id="path2727_1_" class="st1" d="M21014.6 8623.7l20 16-3 2-17-18z"></path><path id="path2729_1_" class="st1" d="M20994.6 8608.7l8-10 20 15 20 15-8 11-20-16-20-15z"></path><path id="path2731_1_" class="st1" d="M21022.6 8613.7l21 13-1 2-20-15z"></path><path id="path2733_1_" class="st1" d="M21001.6 8600.7l21-34 21 13 21 14-21 33-21-13-21-13z"></path><path id="path2735_1_" class="st1" d="M21043.6 8579.7l22 12-1 2-21-14z"></path><path id="path2737_1_" class="st1" d="M21021.6 8568.7l18-33 22 11 22 12-18 33-22-12-22-11z"></path><path id="path2739_1_" class="st1" d="M21061.6 8546.7l23 10-1 2-22-12z"></path><path id="path2741_1_" class="st1" d="M21038.6 8536.7l14-32 23 10 23 10-14 32-23-10-23-10z"></path><path id="path2743_1_" class="st1" d="M21075.6 8514.7l23 8v2l-23-10z"></path><path id="path2745_1_" class="st1" d="M21051.6 8505.7l12-32 23 9 24 8-12 32-23-8-24-9z"></path><path id="path2747_1_" class="st1" d="M21086.6 8482.7l24 6v2l-24-8z"></path><path id="path2749_1_" class="st1" d="M21062.6 8475.7l17-62 24 7 24 7-17 61-24-6-24-7z"></path><path id="path2751_1_" class="st1" d="M21103.6 8420.7l25 5-1 2-24-7z"></path><path id="path2753_1_" class="st1" d="M21079.6 8415.7l12-57 25 5 24 5-12 57-25-5-24-5z"></path><path id="path2755_1_" class="st1" d="M21116.6 8363.7l-25-5v-1l25 6z"></path><path id="path2757_1_" class="st1" d="M21091.6 8357.7l12-51 24 5 25 6-12 52-24-6-25-6z"></path><path id="path2759_1_" class="st1" d="M21127.6 8311.7l-24-5v-2l24 7z"></path><path id="path2761_1_" class="st1" d="M21103.6 8304.7l7-23 24 7 24 7-7 23-24-7-24-7z"></path><path id="path2763_1_" class="st1" d="M21134.6 8288.7l-24-7 1-2 23 9z"></path><path id="path2765_1_" class="st1" d="M21111.6 8279.7l8-22 24 9 23 9-8 22-24-9-23-9z"></path><path id="path2767_1_" class="st1" d="M21143.6 8266.7l-24-9 2-2 22 11z"></path><path id="path2769_1_" class="st1" d="M21121.6 8255.7l10-20 22 11 22 12-10 20-22-12-22-11z"></path><path id="path2771_1_" class="st1" d="M21153.6 8246.7l-22-11 2-3 20 14z"></path><path id="path2773_1_" class="st1" d="M21133.6 8232.7l13-18 20 15 20 14-13 18-20-15-20-14z"></path><path id="path2775_1_" class="st1" d="M21166.6 8229.7l-20-15 2-2 18 17z"></path><path id="path2777_1_" class="st1" d="M21148.6 8212.7l7-8 18 17 19 17-8 8-18-17-18-17z"></path><path id="path2779_1_" class="st1" d="M21173.6 8221.7l-18-17 2-2 16 19z"></path><path id="path2781_1_" class="st1" d="M21157.6 8202.7l8-7 17 18 16 19-8 7-17-18-16-19z"></path><path id="path2783_1_" class="st1" d="M21182.6 8213.7l-17-18 2-2 15 20z"></path><path id="path2785_1_" class="st1" d="M21167.6 8193.7l9-7 15 20 15 20-9 7-15-20-15-20z"></path><path id="path2787_1_" class="st1" d="M21191.6 8206.7l-15-20 2-1 13 21z"></path><path id="path2789_1_" class="st1" d="M21178.6 8185.7l10-6 13 21 13 21-10 7-13-22-13-21z"></path><path id="path2791_1_" class="st1" d="M21201.6 8200.7l-13-21 2-1 11 22z"></path><path id="path2793_1_" class="st1" d="M21190.6 8178.7l10-5 11 22 11 23-10 4-11-22-11-22z"></path><path id="path2795_1_" class="st1" d="M21211.6 8195.7l-11-22 4-2 7 24z"></path><path id="path2797_1_" class="st1" d="M21204.6 8171.7l10-3 7 24 8 24-10 3-8-24-7-24z"></path><path id="path2799_1_" class="st1" d="M21221.6 8192.7l-7-24 4-1 3 25z"></path><path id="path2801_1_" class="st1" d="M21218.6 8167.7l9-1 4 24 4 25-10 2-4-25-3-25z"></path><path id="path2803_1_" class="st1" d="M21231.6 8190.7l-4-24 5-1-1 25z"></path><path id="path2805_1_" class="st1" d="M21232.6 8165.7l9 1v25l-1 25-10-1 1-25 1-25z"></path><path id="path2807_1_" class="st1" d="M21241.6 8191.7v-25h4l-4 25z"></path><path id="path2809_1_" class="st1" d="M21245.6 8166.7l10 2-5 25-5 24-9-2 5-24 4-25z"></path><path id="path2811_1_" class="st1" d="M21250.6 8193.7l5-25 4 1-9 24z"></path><path id="path2813_1_" class="st1" d="M21259.6 8169.7l9 4-9 23-8 23-10-3 9-23 9-24z"></path><path id="path2815_1_" class="st1" d="M21259.6 8196.7l9-23 4 1 1 1-14 21z"></path><path id="path2817_1_" class="st1" d="M21273.6 8175.7l18 11-14 21-13 21-18-11 13-21 14-21z"></path><path id="path2819_1_" class="st1" d="M21277.6 8207.7l14-21 3 3 1 1-18 17z"></path><path id="path2821_1_" class="st1" d="M21295.6 8190.7l17 16-18 18-17 18-17-17 17-18 18-17z"></path><path id="path2823_1_" class="st1" d="M21294.6 8224.7l18-18 2 3-20 15z"></path><path id="path2825_1_" class="st1" d="M21314.6 8209.7l17 22-20 15-20 15-17-22 20-15 20-15z"></path><path id="path2827_1_" class="st1" d="M21311.6 8246.7l20-15 1 3-21 12z"></path><path id="path2829_1_" class="st1" d="M21332.6 8234.7l16 27-22 12-21 13-16-27 22-13 21-12z"></path><path id="path2831_1_" class="st1" d="M21326.6 8273.7l22-12 1 1-23 11z"></path><path id="path2833_1_" class="st1" d="M21349.6 8262.7l15 32-23 10-22 11-15-31 22-11 23-11z"></path><path id="path2835_1_" class="st1" d="M21341.6 8304.7l23-10 1 1-24 9z"></path><path id="path2837_1_" class="st1" d="M21365.6 8295.7l27 74-23 9-24 9-27-74 23-9 24-9z"></path><path id="path2839_1_" class="st1" d="M21369.6 8378.7l23-9 1 2-24 7z"></path><path id="path2841_1_" class="st1" d="M21393.6 8371.7l25 85-24 7-24 7-25-85 24-7 24-7z"></path><path id="path2843_1_" class="st1" d="M21394.6 8463.7l24-7v2l-24 5z"></path><path id="path2845_1_" class="st1" d="M21418.6 8458.7l41 192-24 6-24 5-42-193 25-5 24-5z"></path><path id="path2847_1_" class="st1" d="M21435.6 8656.7l24-6 1 2-25 4z"></path><path id="path2849_1_" class="st1" d="M21460.6 8652.7l31 198-25 4-25 4-31-198 25-4 25-4z"></path><path id="path2851_1_" class="st1" d="M21466.6 8854.7l25-4v1l-25 3z"></path><path id="path2853_1_" class="st1" d="M21491.6 8851.7l21 176-24 3-25 3-22-176 25-3 25-3z"></path><path id="path2855_1_" class="st1" d="M21488.6 9030.7l24-3v1l-24 2z"></path><path id="path2857_1_" class="st1" d="M21512.6 9028.7l13 126-25 3-25 2-12-126 25-3 24-2z"></path><path id="path2859_1_" class="st1" d="M21500.6 9157.7l25-3v1l-25 2z"></path><path id="path2861_1_" class="st1" d="M21525.6 9155.7l3 35-25 2-25 2-3-35 25-2 25-2z"></path><path id="path2863_1_" class="st1" d="M21503.6 9192.7l25-2-25 2z"></path><path id="path2865_1_" class="st1" d="M21528.6 9190.7l1 10-25 2-25 2-1-10 25-2 25-2z"></path><path id="path2867_1_" class="st1" d="M21504.6 9202.7l25-2-25 2z"></path><path id="path2869_1_" class="st1" d="M21529.6 9200.7v2l-25 2-25 2v-2l25-2 25-2z"></path><path id="path2871_1_" class="st1" d="M21504.6 9204.7l25-2-25 2z"></path><path id="path2873_1_" class="st1" d="M21529.6 9202.7v1l-25 2-25 2v-1l25-2 25-2z"></path><path id="path2875_1_" class="st1" d="M21504.6 9205.7l25-2-25 2z"></path><path id="path2877_1_" class="st1" d="M21529.6 9203.7l-25 2-25 2 25-2 25-2z"></path><path id="path2879_1_" class="st1" d="M21504.6 9205.7l25-2-25 2z"></path><path id="path2881_1_" class="st1" d="M21529.6 9203.7l-25 2-25 2 25-2 25-2z"></path><path id="path2883_1_" class="st1" d="M21504.6 9205.7l25-2-25 2z"></path><path id="path2885_1_" class="st1" d="M21529.6 9203.7l-25 2-25 2 25-2 25-2z"></path><path id="path2887_1_" class="st1" d="M21504.6 9205.7l25-2v1l-25 1z"></path><path id="path2889_1_" class="st1" d="M21529.6 9204.7l96 1626-25 1-25 1-96-1626 25-1 25-1z"></path><path id="path2891_1_" class="st1" d="M21600.6 10831.7l25-1-25 1z"></path><path id="path2893_1_" class="st1" d="M21625.6 10830.7l8 302h-25l-25 1-8-301 25-1 25-1z"></path><path id="path2895_1_" class="st1" d="M21608.6 11132.7l-25 1 25-1z"></path><path id="path2897_1_" class="st1" d="M21633.6 11131.7l9 251-25 1-25 1-9-251 25-1 25-1z"></path><path id="path2899_1_" class="st1" d="M21617.6 11383.7l-25 2v-1l25-1z"></path><path id="path2901_1_" class="st1" d="M21642.6 11382.7l11 206-25 1-25 1-11-205 25-2 25-1z"></path><path id="path2903_1_" class="st1" d="M21628.6 11589.7l25-1-25 1z"></path><path id="path2905_1_" class="st1" d="M21653.6 11588.7l19 369-25 2-25 1-19-370 25-1 25-1z"></path><path id="path2907_1_" class="st1" d="M21647.6 11959.8l25-2v1l-25 1z"></path><path id="path2909_1_" class="st1" d="M21672.6 11958.8l6 166-25 1-25 1-6-166 25-1 25-1z"></path><path id="path2911_1_" class="st1" d="M21653.6 12125.8l25-1-25 1z"></path><path id="path2913_1_" class="st1" d="M21678.6 12124.8l2 51-25 1-25 1-2-51 25-1 25-1z"></path><path id="path2915_1_" class="st1" d="M21655.6 12176.8l25-1-25 1z"></path><path id="path2917_1_" class="st1" d="M21680.6 12175.8l1 14-25 1-25 1-1-14 25-1 25-1z"></path><path id="path2919_1_" class="st1" d="M21656.6 12190.8l25-1-25 1z"></path><path id="path2921_1_" class="st1" d="M21681.6 12189.8v4l-25 1-25 1v-4l25-1 25-1z"></path><path id="path2923_1_" class="st1" d="M21656.6 12194.8l25-1-25 1z"></path><path id="path2925_1_" class="st1" d="M21681.6 12193.8v1l-25 1-25 1v-1l25-1 25-1z"></path><path id="path2927_1_" class="st1" d="M21656.6 12195.8l25-1-25 1z"></path><path id="path2929_1_" class="st1" d="M21681.6 12194.8l-25 1-25 1 25-1 25-1z"></path><path id="path2931_1_" class="st1" d="M21656.6 12195.8l25-1-25 1z"></path><path id="path2933_1_" class="st1" d="M21681.6 12194.8l-25 1-25 1 25-1 25-1z"></path><path id="path2935_1_" class="st1" d="M21656.6 12195.8l25-1-25 1z"></path><path id="path2937_1_" class="st1" d="M21681.6 12194.8l-25 1-25 1 25-1 25-1z"></path><path id="path2939_1_" class="st1" d="M21656.6 12195.8l25-1-25 1z"></path><path id="path2941_1_" class="st1" d="M21681.6 12194.8l-25 1-25 1 25-1 25-1z"></path></g>
    <text transform="translate(97.633 592.724)" class="st2 st3">10</text>
    <text transform="translate(240.739 592.724)" class="st2 st3">100</text>
    <text transform="translate(381.827 592.724)" class="st2 st3">1000</text>
    <text transform="translate(525.003 592.724)" class="st2 st3">10k</text>
    <text transform="translate(668.275 592.724)" class="st2 st3">100k</text>
    <g>
        <text transform="translate(780.918 592.724)" class="st2 st3">10</text>
        <text transform="translate(924.023 592.724)" class="st2 st3">100</text>
        <text transform="translate(1065.112 592.724)" class="st2 st3">1000</text>
        <text transform="translate(1208.288 592.724)" class="st2 st3">10k</text>
        <text transform="translate(1351.56 592.724)" class="st2 st3">100k</text>
    </g>
    <g>
        <text transform="translate(77.633 194.694)" class="st2 st3">0</text>
        <text transform="translate(46.582 124.251)" class="st2 st3">+10</text>
        <text transform="translate(46.582 49.098)" class="st2 st3">+20</text>
        <text transform="translate(54.674 269.252)" class="st2 st3">-10</text>
        <text transform="translate(54.674 343.29)" class="st2 st3">-20</text>
        <text transform="translate(54.674 412.216)" class="st2 st3">-30</text>
        <text transform="translate(54.674 488.932)" class="st2 st3">-40</text>
        <text transform="translate(54.674 565.35)" class="st2 st3">-50</text>
    </g>
    <text transform="rotate(-90 196.718 158.573)" class="st2 st4">Gain (dBFS)</text>
</svg>